<svg width="620" height="620" viewBox="0 0 620 620" fill="none" xmlns="http://www.w3.org/2000/svg">
<rect width="620" height="620" rx="310" fill="#111111"/>
<path d="M127.941 332.995C112.941 332.995 100.541 328.595 90.7414 319.795C81.3414 310.995 76.6414 299.895 76.6414 286.495C76.6414 272.695 80.2414 258.995 87.4414 245.395C94.6414 231.795 104.041 219.595 115.641 208.795C121.441 203.395 127.741 198.495 134.541 194.095C141.341 189.495 148.641 185.495 156.441 182.095C164.641 178.295 172.641 175.595 180.441 173.995C188.441 172.195 195.941 171.295 202.941 171.295C215.741 171.295 226.341 173.795 234.741 178.795C239.341 167.995 243.741 162.595 247.941 162.595C254.741 162.595 258.141 163.895 258.141 166.495C253.341 172.695 249.441 177.695 246.441 181.495C243.441 185.295 241.441 187.995 240.441 189.595C228.641 205.595 222.741 217.295 222.741 224.695L223.941 229.195C223.941 229.595 223.741 229.795 223.341 229.795C220.941 229.795 219.741 227.195 219.741 221.995C219.741 212.995 223.741 200.395 231.741 184.195C225.541 178.595 216.841 175.795 205.641 175.795C188.441 175.795 170.941 181.295 153.141 192.295C135.341 203.095 120.441 216.895 108.441 233.695C102.441 241.895 98.0414 249.895 95.2414 257.695C92.6414 265.295 91.3414 272.595 91.3414 279.595C91.3414 288.395 93.3414 296.295 97.3414 303.295C101.341 310.295 106.841 315.695 113.841 319.495C120.841 323.495 128.741 325.495 137.541 325.495C151.541 325.495 164.841 322.695 177.441 317.095C190.241 311.295 202.241 302.495 213.441 290.695C216.241 287.895 218.241 286.495 219.441 286.495C220.241 286.495 220.641 287.095 220.641 288.295C220.641 290.095 219.741 291.995 217.941 293.995C207.341 305.995 193.441 315.495 176.241 322.495C158.841 329.495 142.741 332.995 127.941 332.995ZM248.15 319.195C231.95 319.195 223.85 310.695 223.85 293.695C223.85 286.895 225.35 279.695 228.35 272.095C231.55 264.295 235.45 257.995 240.05 253.195C237.85 249.395 236.75 244.695 236.75 239.095C236.75 233.295 239.15 228.095 243.95 223.495C248.75 218.695 254.65 216.295 261.65 216.295C274.65 216.295 283.45 223.095 288.05 236.695C297.45 238.495 302.15 240.695 302.15 243.295C302.15 246.295 301.15 247.795 299.15 247.795L291.65 246.595C291.85 248.595 291.95 250.395 291.95 251.995C292.15 253.595 292.25 254.995 292.25 256.195C292.25 272.595 288.05 287.295 279.65 300.295C271.25 312.895 260.75 319.195 248.15 319.195ZM244.25 250.495C257.85 240.295 267.25 235.195 272.45 235.195H273.35C270.55 228.195 265.35 224.695 257.75 224.695C254.35 224.695 251.55 225.895 249.35 228.295C247.15 230.495 245.55 233.195 244.55 236.395C243.55 239.595 243.05 242.495 243.05 245.095C243.05 247.495 243.45 249.295 244.25 250.495ZM247.85 315.595C256.05 315.595 263.75 309.195 270.95 296.395C278.15 283.395 281.75 270.995 281.75 259.195C281.75 253.995 280.85 249.795 279.05 246.595C271.65 247.795 263.55 252.495 254.75 260.695C256.75 262.095 258.35 262.795 259.55 262.795C260.75 262.595 261.45 262.495 261.65 262.495C262.65 262.495 263.15 262.995 263.15 263.995C263.15 265.595 261.85 266.395 259.25 266.395C257.05 266.395 254.55 265.695 251.75 264.295C241.15 276.695 235.85 288.395 235.85 299.395C235.85 310.195 239.85 315.595 247.85 315.595ZM313.67 321.895C304.07 321.895 299.27 313.895 299.27 297.895C299.27 287.695 302.47 270.895 308.87 247.495C315.27 223.895 323.37 202.195 333.17 182.395C343.17 162.195 351.97 152.095 359.57 152.095C363.97 152.095 368.37 153.595 372.77 156.595C377.17 159.395 379.37 162.495 379.37 165.895C379.37 180.295 358.17 212.295 315.77 261.895C314.17 269.295 312.87 276.195 311.87 282.595C311.07 288.995 310.67 294.995 310.67 300.595C310.67 311.595 313.07 317.095 317.87 317.095L322.67 315.595C323.67 315.595 324.17 316.095 324.17 317.095C324.17 320.295 320.67 321.895 313.67 321.895ZM317.87 254.095C354.07 206.895 372.17 177.195 372.17 164.995C372.17 162.595 371.47 161.395 370.07 161.395C364.07 161.395 355.37 172.095 343.97 193.495C332.57 214.895 323.87 235.095 317.87 254.095ZM365.232 321.895C355.632 321.895 350.832 313.895 350.832 297.895C350.832 287.695 354.032 270.895 360.432 247.495C366.832 223.895 374.932 202.195 384.732 182.395C394.732 162.195 403.532 152.095 411.132 152.095C415.532 152.095 419.932 153.595 424.332 156.595C428.732 159.395 430.932 162.495 430.932 165.895C430.932 180.295 409.732 212.295 367.332 261.895C365.732 269.295 364.432 276.195 363.432 282.595C362.632 288.995 362.232 294.995 362.232 300.595C362.232 311.595 364.632 317.095 369.432 317.095L374.232 315.595C375.232 315.595 375.732 316.095 375.732 317.095C375.732 320.295 372.232 321.895 365.232 321.895ZM369.432 254.095C405.632 206.895 423.732 177.195 423.732 164.995C423.732 162.595 423.032 161.395 421.632 161.395C415.632 161.395 406.932 172.095 395.532 193.495C384.132 214.895 375.432 235.095 369.432 254.095ZM436.114 214.495C431.714 214.495 428.114 213.295 425.314 210.895C429.114 208.295 433.114 204.895 437.314 200.695C441.714 196.495 446.214 191.495 450.814 185.695C451.214 185.695 451.414 186.195 451.414 187.195L449.914 195.895C448.914 202.095 447.114 206.795 444.514 209.995C441.914 212.995 439.114 214.495 436.114 214.495ZM407.314 323.695C399.714 323.695 395.914 318.195 395.914 307.195C395.914 290.595 401.914 268.695 413.914 241.495C413.914 240.695 414.414 239.195 415.414 236.995C416.614 234.795 417.514 233.395 418.114 232.795C419.514 231.395 421.414 230.695 423.814 230.695C430.814 230.695 434.614 232.095 435.214 234.895C432.014 240.095 428.914 246.095 425.914 252.895C423.114 259.695 420.314 267.195 417.514 275.395C414.514 284.195 412.314 291.495 410.914 297.295C409.714 302.895 409.114 307.395 409.114 310.795C409.114 315.795 410.414 318.295 413.014 318.295C414.814 318.295 417.114 317.195 419.914 314.995C422.114 313.195 423.614 311.895 424.414 311.095C425.414 310.295 426.314 309.595 427.114 308.995C427.914 308.995 428.314 309.395 428.314 310.195C428.314 312.395 425.414 315.195 419.614 318.595C413.814 321.995 409.714 323.695 407.314 323.695ZM373.728 410.395C365.128 410.395 357.228 407.395 350.028 401.395C342.828 395.395 339.228 387.195 339.228 376.795C339.228 375.595 339.528 374.995 340.128 374.995C340.928 374.995 341.628 376.095 342.228 378.295C346.628 393.495 356.428 401.095 371.628 401.095C393.028 401.095 414.028 375.895 434.628 325.495C435.228 323.695 435.728 322.195 436.128 320.995C436.728 319.995 437.428 318.495 438.228 316.495C439.028 314.295 440.128 310.895 441.528 306.295C443.128 301.695 445.428 295.195 448.428 286.795L462.228 246.895C452.628 244.095 447.828 238.495 447.828 230.095C447.828 228.295 448.328 227.395 449.328 227.395L464.628 230.095H466.428C467.428 230.095 468.128 229.795 468.528 229.195C470.728 226.195 472.228 222.595 473.028 218.395C476.828 206.595 480.328 196.595 483.528 188.395C486.928 180.195 490.128 173.795 493.128 169.195C499.528 159.795 507.228 155.095 516.228 155.095C520.828 155.095 524.828 156.395 528.228 158.995C531.628 161.595 533.328 164.895 533.328 168.895C533.328 178.495 530.228 183.295 524.028 183.295C522.028 183.295 521.028 182.695 521.028 181.495C522.628 177.895 523.428 173.595 523.428 168.595C523.428 163.195 521.928 160.495 518.928 160.495C512.928 160.495 505.528 169.095 496.728 186.295C496.128 187.695 495.228 189.595 494.028 191.995C493.028 194.395 491.128 199.595 488.328 207.595C484.328 218.995 482.328 225.195 482.328 226.195C482.328 228.195 483.628 229.195 486.228 229.195L524.328 228.295C524.928 228.295 525.228 228.695 525.228 229.495C511.628 234.095 500.628 237.795 492.228 240.595C484.028 243.195 478.328 244.895 475.128 245.695C475.128 246.495 474.428 248.995 473.028 253.195C471.628 257.195 469.228 264.795 465.828 275.995C458.428 300.195 451.228 320.695 444.228 337.495C437.228 354.495 430.028 368.295 422.628 378.895C408.028 399.895 391.728 410.395 373.728 410.395ZM518.539 322.495C501.539 322.495 493.039 314.595 493.039 298.795C493.039 286.595 499.039 271.795 511.039 254.395C523.439 236.995 535.239 228.295 546.439 228.295C551.239 228.295 555.439 229.895 559.039 233.095C562.839 236.095 564.739 239.795 564.739 244.195C564.739 251.595 560.039 259.095 550.639 266.695C541.439 274.095 532.339 277.795 523.339 277.795C521.539 277.795 520.639 277.395 520.639 276.595L521.539 275.095C544.539 267.895 556.039 256.095 556.039 239.695C556.039 237.295 555.239 236.095 553.639 236.095C551.439 236.095 547.439 238.395 541.639 242.995C536.639 246.995 531.939 251.595 527.539 256.795C523.339 261.995 519.539 267.395 516.139 272.995C508.939 285.195 505.339 295.395 505.339 303.595C505.339 311.595 508.439 315.595 514.639 315.595C521.839 315.595 529.739 311.895 538.339 304.495C541.139 301.895 544.139 298.995 547.339 295.795C550.539 292.395 554.039 288.695 557.839 284.695C565.239 276.695 569.139 272.695 569.539 272.695C570.739 272.695 571.339 273.195 571.339 274.195C571.339 274.995 571.139 275.795 570.739 276.595C549.739 307.195 532.339 322.495 518.539 322.495Z" fill="white"/>
<path d="M585 328.459L35 399.676L57.7064 366.611L585 328.459Z" fill="white"/>
<path d="M96.8831 418.823C96.8831 413.927 98.0111 409.535 100.267 405.647C102.571 401.759 105.667 398.735 109.555 396.575C113.491 394.367 117.787 393.263 122.443 393.263C127.771 393.263 132.499 394.583 136.627 397.223C140.803 399.815 143.827 403.511 145.699 408.311H135.835C134.539 405.671 132.739 403.703 130.435 402.407C128.131 401.111 125.467 400.463 122.443 400.463C119.131 400.463 116.179 401.207 113.587 402.695C110.995 404.183 108.955 406.319 107.467 409.103C106.027 411.887 105.307 415.127 105.307 418.823C105.307 422.519 106.027 425.759 107.467 428.543C108.955 431.327 110.995 433.487 113.587 435.023C116.179 436.511 119.131 437.255 122.443 437.255C125.467 437.255 128.131 436.607 130.435 435.311C132.739 434.015 134.539 432.047 135.835 429.407H145.699C143.827 434.207 140.803 437.903 136.627 440.495C132.499 443.087 127.771 444.383 122.443 444.383C117.739 444.383 113.443 443.303 109.555 441.143C105.667 438.935 102.571 435.887 100.267 431.999C98.0111 428.111 96.8831 423.719 96.8831 418.823ZM189.651 444.455C184.995 444.455 180.699 443.375 176.763 441.215C172.875 439.007 169.779 435.959 167.475 432.071C165.219 428.135 164.091 423.719 164.091 418.823C164.091 413.927 165.219 409.535 167.475 405.647C169.779 401.759 172.875 398.735 176.763 396.575C180.699 394.367 184.995 393.263 189.651 393.263C194.355 393.263 198.651 394.367 202.539 396.575C206.475 398.735 209.571 401.759 211.827 405.647C214.083 409.535 215.211 413.927 215.211 418.823C215.211 423.719 214.083 428.135 211.827 432.071C209.571 435.959 206.475 439.007 202.539 441.215C198.651 443.375 194.355 444.455 189.651 444.455ZM189.651 437.327C192.963 437.327 195.915 436.583 198.507 435.095C201.099 433.559 203.115 431.399 204.555 428.615C206.043 425.783 206.787 422.519 206.787 418.823C206.787 415.127 206.043 411.887 204.555 409.103C203.115 406.319 201.099 404.183 198.507 402.695C195.915 401.207 192.963 400.463 189.651 400.463C186.339 400.463 183.387 401.207 180.795 402.695C178.203 404.183 176.163 406.319 174.675 409.103C173.235 411.887 172.515 415.127 172.515 418.823C172.515 422.519 173.235 425.783 174.675 428.615C176.163 431.399 178.203 433.559 180.795 435.095C183.387 436.583 186.339 437.327 189.651 437.327ZM242.944 393.911V425.807C242.944 429.599 243.928 432.455 245.896 434.375C247.912 436.295 250.696 437.255 254.248 437.255C257.848 437.255 260.632 436.295 262.6 434.375C264.616 432.455 265.624 429.599 265.624 425.807V393.911H273.832V425.663C273.832 429.743 272.944 433.199 271.168 436.031C269.392 438.863 267.016 440.975 264.04 442.367C261.064 443.759 257.776 444.455 254.176 444.455C250.576 444.455 247.288 443.759 244.312 442.367C241.384 440.975 239.056 438.863 237.328 436.031C235.6 433.199 234.736 429.743 234.736 425.663V393.911H242.944ZM328.366 393.911V400.607H315.046V443.951H306.838V400.607H293.446V393.911H328.366ZM371.023 444.455C366.367 444.455 362.071 443.375 358.135 441.215C354.247 439.007 351.151 435.959 348.847 432.071C346.591 428.135 345.463 423.719 345.463 418.823C345.463 413.927 346.591 409.535 348.847 405.647C351.151 401.759 354.247 398.735 358.135 396.575C362.071 394.367 366.367 393.263 371.023 393.263C375.727 393.263 380.023 394.367 383.911 396.575C387.847 398.735 390.943 401.759 393.199 405.647C395.455 409.535 396.583 413.927 396.583 418.823C396.583 423.719 395.455 428.135 393.199 432.071C390.943 435.959 387.847 439.007 383.911 441.215C380.023 443.375 375.727 444.455 371.023 444.455ZM371.023 437.327C374.335 437.327 377.287 436.583 379.879 435.095C382.471 433.559 384.487 431.399 385.927 428.615C387.415 425.783 388.159 422.519 388.159 418.823C388.159 415.127 387.415 411.887 385.927 409.103C384.487 406.319 382.471 404.183 379.879 402.695C377.287 401.207 374.335 400.463 371.023 400.463C367.711 400.463 364.759 401.207 362.167 402.695C359.575 404.183 357.535 406.319 356.047 409.103C354.607 411.887 353.887 415.127 353.887 418.823C353.887 422.519 354.607 425.783 356.047 428.615C357.535 431.399 359.575 433.559 362.167 435.095C364.759 436.583 367.711 437.327 371.023 437.327ZM424.316 393.911V425.807C424.316 429.599 425.3 432.455 427.268 434.375C429.284 436.295 432.068 437.255 435.62 437.255C439.22 437.255 442.004 436.295 443.972 434.375C445.988 432.455 446.996 429.599 446.996 425.807V393.911H455.204V425.663C455.204 429.743 454.316 433.199 452.54 436.031C450.764 438.863 448.388 440.975 445.412 442.367C442.436 443.759 439.148 444.455 435.548 444.455C431.948 444.455 428.66 443.759 425.684 442.367C422.756 440.975 420.428 438.863 418.7 436.031C416.972 433.199 416.108 429.743 416.108 425.663V393.911H424.316ZM503.403 443.951L491.883 423.935H485.619V443.951H477.411V393.911H494.691C498.531 393.911 501.771 394.583 504.411 395.927C507.099 397.271 509.091 399.071 510.387 401.327C511.731 403.583 512.403 406.103 512.403 408.887C512.403 412.151 511.443 415.127 509.523 417.815C507.651 420.455 504.747 422.255 500.811 423.215L513.195 443.951H503.403ZM485.619 417.383H494.691C497.763 417.383 500.067 416.615 501.603 415.079C503.187 413.543 503.979 411.479 503.979 408.887C503.979 406.295 503.211 404.279 501.675 402.839C500.139 401.351 497.811 400.607 494.691 400.607H485.619V417.383ZM542.631 400.535V415.223H559.911V421.919H542.631V437.255H562.071V443.951H534.423V393.839H562.071V400.535H542.631Z" fill="white"/>
</svg>
