<svg width="618" height="618" viewBox="0 0 618 618" fill="none" xmlns="http://www.w3.org/2000/svg">
<rect width="618" height="618" rx="309" fill="#111111"/>
<path d="M44 461H574" stroke="white" stroke-width="2"/>
<path d="M125.812 240.078C125.812 238.047 125.63 236.198 125.266 234.531C124.901 232.865 124.12 231.328 122.922 229.922C121.776 228.516 120.083 227.109 117.844 225.703C115.656 224.297 112.792 222.839 109.25 221.328C105.031 219.557 100.943 217.682 96.9844 215.703C93.026 213.672 89.4583 211.328 86.2812 208.672C83.1042 206.016 80.5781 202.891 78.7031 199.297C76.8802 195.651 75.9688 191.38 75.9688 186.484C75.9688 181.693 76.8281 177.344 78.5469 173.438C80.3177 169.531 82.8177 166.198 86.0469 163.438C89.276 160.625 93.0521 158.464 97.375 156.953C101.75 155.443 106.62 154.688 111.984 154.688C119.276 154.688 125.578 156.198 130.891 159.219C136.255 162.24 140.396 166.38 143.312 171.641C146.281 176.901 147.766 182.943 147.766 189.766H124.953C124.953 186.536 124.484 183.698 123.547 181.25C122.661 178.75 121.229 176.797 119.25 175.391C117.271 173.984 114.719 173.281 111.594 173.281C108.677 173.281 106.255 173.88 104.328 175.078C102.453 176.224 101.047 177.812 100.109 179.844C99.224 181.823 98.7812 184.062 98.7812 186.562C98.7812 188.438 99.224 190.13 100.109 191.641C101.047 193.099 102.323 194.427 103.938 195.625C105.552 196.771 107.453 197.891 109.641 198.984C111.88 200.078 114.328 201.146 116.984 202.188C122.141 204.219 126.698 206.458 130.656 208.906C134.615 211.302 137.922 214.01 140.578 217.031C143.234 220 145.24 223.359 146.594 227.109C147.948 230.859 148.625 235.13 148.625 239.922C148.625 244.661 147.792 248.984 146.125 252.891C144.51 256.745 142.141 260.078 139.016 262.891C135.891 265.651 132.115 267.786 127.688 269.297C123.312 270.807 118.417 271.562 113 271.562C107.74 271.562 102.766 270.833 98.0781 269.375C93.3906 267.865 89.25 265.599 85.6562 262.578C82.1146 259.505 79.3281 255.625 77.2969 250.938C75.2656 246.198 74.25 240.599 74.25 234.141H97.1406C97.1406 237.578 97.4792 240.521 98.1562 242.969C98.8333 245.365 99.875 247.292 101.281 248.75C102.688 250.156 104.406 251.224 106.438 251.953C108.521 252.63 110.891 252.969 113.547 252.969C116.568 252.969 118.964 252.396 120.734 251.25C122.557 250.104 123.859 248.568 124.641 246.641C125.422 244.714 125.812 242.526 125.812 240.078ZM242.016 204.297V223.281C242.016 231.302 241.026 238.333 239.047 244.375C237.12 250.365 234.359 255.391 230.766 259.453C227.224 263.464 222.927 266.484 217.875 268.516C212.875 270.547 207.328 271.562 201.234 271.562C195.141 271.562 189.568 270.547 184.516 268.516C179.516 266.484 175.193 263.464 171.547 259.453C167.953 255.391 165.167 250.365 163.188 244.375C161.208 238.333 160.219 231.302 160.219 223.281V204.297C160.219 196.068 161.182 188.88 163.109 182.734C165.036 176.536 167.823 171.38 171.469 167.266C175.115 163.099 179.438 159.974 184.438 157.891C189.438 155.755 194.984 154.688 201.078 154.688C207.172 154.688 212.719 155.755 217.719 157.891C222.719 159.974 227.042 163.099 230.688 167.266C234.333 171.38 237.12 176.536 239.047 182.734C241.026 188.88 242.016 196.068 242.016 204.297ZM219.281 223.281V204.141C219.281 198.724 218.891 194.115 218.109 190.312C217.328 186.458 216.156 183.307 214.594 180.859C213.031 178.411 211.13 176.615 208.891 175.469C206.651 174.323 204.047 173.75 201.078 173.75C198.109 173.75 195.479 174.323 193.188 175.469C190.948 176.615 189.047 178.411 187.484 180.859C185.974 183.307 184.828 186.458 184.047 190.312C183.318 194.115 182.953 198.724 182.953 204.141V223.281C182.953 228.49 183.344 232.943 184.125 236.641C184.906 240.339 186.078 243.359 187.641 245.703C189.203 248.047 191.104 249.792 193.344 250.938C195.635 252.031 198.266 252.578 201.234 252.578C204.151 252.578 206.729 252.031 208.969 250.938C211.26 249.792 213.161 248.047 214.672 245.703C216.182 243.359 217.328 240.339 218.109 236.641C218.891 232.943 219.281 228.49 219.281 223.281ZM295.406 229.922H272.125V210.938H295.406C298.635 210.938 301.266 210.208 303.297 208.75C305.38 207.292 306.891 205.286 307.828 202.734C308.766 200.13 309.234 197.214 309.234 193.984C309.234 190.703 308.74 187.656 307.75 184.844C306.812 181.979 305.328 179.661 303.297 177.891C301.318 176.12 298.688 175.234 295.406 175.234H279.469V270H256.656V156.25H295.406C303.062 156.25 309.651 157.865 315.172 161.094C320.693 164.323 324.911 168.776 327.828 174.453C330.797 180.078 332.281 186.536 332.281 193.828C332.281 201.172 330.797 207.552 327.828 212.969C324.911 218.333 320.693 222.5 315.172 225.469C309.651 228.438 303.062 229.922 295.406 229.922ZM408.641 202.344V221.25H362V202.344H408.641ZM368.484 156.25V270H345.594V156.25H368.484ZM425.203 156.25V270H402.547V156.25H425.203ZM465.625 156.25V270H442.891V156.25H465.625ZM548.391 251.094V270H498.938V251.094H548.391ZM506.047 156.25V270H483.156V156.25H506.047ZM541.75 202.344V220.703H498.938V202.344H541.75ZM548.234 156.25V175.234H498.938V156.25H548.234Z" fill="white"/>
<path d="M78.9576 365V292.2H86.6536V358.344H127.422V365H78.9576ZM220.2 365V292.2H227.896V365H220.2ZM384.831 292.2H392.423V365H386.079L339.279 305.928V365H331.583V292.2H337.927L384.831 351.272V292.2ZM503.88 358.344H547.664V365H496.184V292.2H546.104V298.856H503.88V324.752H541.528V331.304H503.88V358.344Z" fill="white"/>
<path d="M312.115 447.76C311.635 447.76 311.022 447.44 310.275 446.8C309.528 446.213 309.155 445.68 309.155 445.2V444.72C309.582 442.693 310.328 440.8 311.395 439.04C312.515 437.28 313.608 435.547 314.675 433.84C314.995 433.307 315.315 432.827 315.635 432.4C316.008 431.92 316.328 431.413 316.595 430.88C316.808 430.453 316.995 430.053 317.155 429.68C317.315 429.307 317.502 428.933 317.715 428.56C318.302 427.6 318.915 426.693 319.555 425.84C320.248 424.933 320.888 424 321.475 423.04C321.688 422.773 321.875 422.507 322.035 422.24C322.248 421.92 322.435 421.6 322.595 421.28C322.862 420.8 323.368 420.027 324.115 418.96C324.862 417.84 325.715 416.587 326.675 415.2C327.635 413.813 328.595 412.48 329.555 411.2C330.515 409.867 331.395 408.72 332.195 407.76C332.995 406.747 333.582 406.107 333.955 405.84C334.542 404.613 335.395 403.467 336.515 402.4C337.688 401.28 338.755 400.293 339.715 399.44C340.302 398.907 341.128 398.213 342.195 397.36C343.315 396.453 344.568 395.547 345.955 394.64C347.395 393.733 348.835 392.96 350.275 392.32C351.715 391.68 353.022 391.36 354.195 391.36C355.368 391.36 356.355 391.76 357.155 392.56C357.955 393.307 358.435 394.64 358.595 396.56C358.648 396.987 358.542 397.573 358.275 398.32C358.062 399.067 357.848 399.6 357.635 399.92C357.208 400.613 356.808 401.36 356.435 402.16C356.115 402.96 355.795 403.653 355.475 404.24C355.262 404.56 355.075 404.773 354.915 404.88C354.862 404.933 354.782 404.96 354.675 404.96C354.462 404.96 354.328 404.827 354.275 404.56C354.275 404.293 354.382 404.107 354.595 404C354.702 403.467 354.888 402.56 355.155 401.28C355.422 400 355.555 398.747 355.555 397.52C355.555 396.4 355.368 395.44 354.995 394.64C354.675 393.84 354.062 393.44 353.155 393.44C352.088 393.44 350.835 393.84 349.395 394.64C347.955 395.44 346.515 396.453 345.075 397.68C343.635 398.907 342.355 400.187 341.235 401.52C340.115 402.8 339.368 403.92 338.995 404.88C338.888 405.147 338.755 405.28 338.595 405.28C338.382 405.44 338.168 405.707 337.955 406.08C337.742 406.4 337.582 406.667 337.475 406.88C336.888 407.253 336.435 407.813 336.115 408.56C335.795 409.253 335.475 409.893 335.155 410.48C334.942 410.853 334.702 411.173 334.435 411.44C333.902 411.867 333.342 412.507 332.755 413.36C332.168 414.213 331.848 415.013 331.795 415.76C331.795 416.08 331.688 416.267 331.475 416.32C330.568 416.96 329.875 417.627 329.395 418.32C328.915 418.96 328.355 419.733 327.715 420.64C326.435 422.453 325.182 424.267 323.955 426.08C322.728 427.893 321.502 429.733 320.275 431.6C320.062 431.973 319.822 432.347 319.555 432.72C319.288 433.04 319.048 433.413 318.835 433.84C318.622 434.32 318.408 434.8 318.195 435.28C317.982 435.76 317.742 436.24 317.475 436.72C317.262 437.147 317.075 437.6 316.915 438.08C316.808 438.56 316.622 439.013 316.355 439.44C316.408 439.6 316.435 439.893 316.435 440.32C316.435 441.173 316.248 442.187 315.875 443.36C315.555 444.533 315.075 445.547 314.435 446.4C313.795 447.307 313.022 447.76 312.115 447.76ZM278.435 443.2C277.688 443.2 277.102 442.827 276.675 442.08C276.248 441.333 276.008 440.693 275.955 440.16C275.848 438.987 276.035 437.893 276.515 436.88C277.048 435.813 277.688 434.827 278.435 433.92C279.182 432.96 279.875 432.08 280.515 431.28C281.368 430.213 282.142 429.253 282.835 428.4C283.582 427.493 284.302 426.64 284.995 425.84C285.742 425.04 286.515 424.267 287.315 423.52C288.168 422.773 289.182 421.973 290.355 421.12C290.462 420.693 290.595 420.187 290.755 419.6C290.915 418.96 291.208 418.533 291.635 418.32L291.795 418.16C291.582 418.107 291.475 417.867 291.475 417.44C291.848 416.16 292.222 414.667 292.595 412.96C292.968 411.2 293.262 409.467 293.475 407.76C293.688 406 293.742 404.507 293.635 403.28C293.582 402.533 293.448 401.867 293.235 401.28C293.075 400.693 292.568 400.4 291.715 400.4C290.702 400.4 289.528 400.72 288.195 401.36C286.915 402 285.688 402.773 284.515 403.68C283.342 404.533 282.382 405.28 281.635 405.92C280.462 406.933 279.315 407.973 278.195 409.04C277.128 410.107 276.062 411.2 274.995 412.32C273.662 413.653 272.435 415.067 271.315 416.56C270.248 418.053 269.715 419.76 269.715 421.68C269.715 422.427 269.768 422.96 269.875 423.28C269.982 423.6 270.115 423.84 270.275 424C270.542 424.267 270.728 424.453 270.835 424.56C270.942 424.613 271.075 424.853 271.235 425.28H270.835L269.795 425.2C268.728 424.613 267.928 423.787 267.395 422.72C266.915 421.6 266.675 420.56 266.675 419.6C266.675 417.68 267.342 415.707 268.675 413.68C270.008 411.653 271.662 409.707 273.635 407.84C275.662 405.973 277.742 404.32 279.875 402.88C282.062 401.44 283.955 400.347 285.555 399.6C286.088 399.333 286.622 399.093 287.155 398.88C287.688 398.613 288.222 398.427 288.755 398.32C288.968 398.213 289.155 398.187 289.315 398.24C289.528 398.24 289.742 398.213 289.955 398.16C290.008 398.16 290.088 398.133 290.195 398.08C290.302 398.027 290.408 397.973 290.515 397.92L291.075 397.76C292.035 397.76 293.048 397.947 294.115 398.32C295.182 398.693 296.115 399.227 296.915 399.92C297.768 400.613 298.275 401.467 298.435 402.48C298.595 403.493 298.675 404.587 298.675 405.76C298.675 406.613 298.622 407.493 298.515 408.4C298.462 409.253 298.302 410.107 298.035 410.96C297.768 411.92 297.502 412.96 297.235 414.08C296.968 415.2 296.648 416.213 296.275 417.12C296.115 417.333 296.035 417.547 296.035 417.76C297.102 417.12 298.382 416.453 299.875 415.76C301.368 415.013 302.888 414.4 304.435 413.92C306.035 413.387 307.475 413.12 308.755 413.12C310.515 413.12 311.795 413.733 312.595 414.96C313.395 416.187 313.848 417.547 313.955 419.04L314.195 421.68C314.248 422.16 314.275 422.64 314.275 423.12C314.328 423.6 314.355 424.08 314.355 424.56C314.355 426.693 314.115 428.8 313.635 430.88C313.208 432.96 312.542 434.96 311.635 436.88C311.635 437.093 311.502 437.2 311.235 437.2C311.022 437.2 310.862 437.067 310.755 436.8C310.648 436.533 310.595 436.347 310.595 436.24C310.595 435.973 310.622 435.76 310.675 435.6C311.048 434.8 311.288 434.053 311.395 433.36C311.502 432.667 311.582 431.973 311.635 431.28C311.688 430.533 311.688 429.813 311.635 429.12C311.635 428.427 311.635 427.733 311.635 427.04C311.635 426.133 311.528 425.253 311.315 424.4C311.155 423.493 310.968 422.613 310.755 421.76C310.595 420.907 310.168 419.973 309.475 418.96C308.835 417.893 307.928 417.36 306.755 417.36C306.595 417.36 306.408 417.36 306.195 417.36C306.035 417.36 305.875 417.387 305.715 417.44C304.382 417.76 303.235 418.08 302.275 418.4C301.368 418.72 300.515 419.093 299.715 419.52C298.915 419.893 298.088 420.32 297.235 420.8C296.435 421.28 295.475 421.867 294.355 422.56C293.875 423.893 293.342 425.2 292.755 426.48C292.168 427.707 291.582 428.96 290.995 430.24C290.462 431.36 289.902 432.453 289.315 433.52C288.728 434.587 288.062 435.627 287.315 436.64C287.155 436.853 286.968 437.067 286.755 437.28C286.542 437.44 286.355 437.653 286.195 437.92C285.768 438.453 285.342 438.907 284.915 439.28C284.648 439.547 284.195 439.92 283.555 440.4C282.702 441.147 281.955 441.787 281.315 442.32C280.675 442.907 279.715 443.2 278.435 443.2ZM278.275 441.6C279.875 441.6 281.262 441.013 282.435 439.84C283.608 438.667 284.622 437.2 285.475 435.44C286.382 433.68 287.128 431.92 287.715 430.16C288.355 428.347 288.888 426.853 289.315 425.68C287.715 426.747 286.542 427.653 285.795 428.4C285.582 428.613 285.342 428.88 285.075 429.2C284.862 429.467 284.622 429.733 284.355 430L282.595 432.32C282.168 432.907 281.528 433.68 280.675 434.64C279.875 435.6 279.128 436.613 278.435 437.68C277.795 438.693 277.502 439.6 277.555 440.4C277.608 440.507 277.688 440.72 277.795 441.04C277.955 441.413 278.115 441.6 278.275 441.6ZM331.721 440.56C330.761 440.56 329.721 440.373 328.601 440C327.534 439.627 326.601 439.067 325.801 438.32C325.054 437.573 324.627 436.667 324.521 435.6C324.521 435.333 324.521 435.067 324.521 434.8C324.574 434.533 324.574 434.293 324.521 434.08C324.521 433.92 324.361 433.76 324.041 433.6L323.801 433.36C323.587 433.253 323.374 433.12 323.161 432.96C322.947 432.747 322.841 432.507 322.841 432.24C323.001 432.187 323.134 432.16 323.241 432.16C323.507 432.16 323.747 432.187 323.961 432.24C324.227 432.293 324.467 432.32 324.681 432.32C324.627 432.32 324.654 432.213 324.761 432C324.761 431.893 324.787 431.787 324.841 431.68C324.894 431.52 324.947 431.413 325.001 431.36C325.054 431.36 325.134 431.173 325.241 430.8C325.347 430.373 325.427 430.133 325.481 430.08C326.227 427.787 327.241 425.84 328.521 424.24C329.854 422.587 331.667 421.36 333.961 420.56C334.174 420.507 334.361 420.48 334.521 420.48C334.734 420.427 334.947 420.4 335.161 420.4C335.587 420.4 336.147 420.56 336.841 420.88C337.534 421.147 338.147 421.52 338.681 422C339.267 422.427 339.587 422.88 339.641 423.36C339.641 423.573 339.641 423.76 339.641 423.92C339.694 424.08 339.721 424.267 339.721 424.48C339.721 424.8 339.641 425.173 339.481 425.6L339.001 425.84C338.894 426.053 338.787 426.213 338.681 426.32L338.201 426.88C337.774 427.307 337.614 427.6 337.721 427.76L337.561 427.84C337.561 427.84 337.561 427.867 337.561 427.92C337.561 427.92 337.534 427.92 337.481 427.92L337.561 427.84L337.481 427.92V428L337.081 428.08C336.867 428.24 336.681 428.427 336.521 428.64C336.361 428.8 336.201 428.987 336.041 429.2C335.241 430.053 334.201 430.8 332.921 431.44C331.641 432.027 330.467 432.56 329.401 433.04C329.241 433.093 329.001 433.173 328.681 433.28C328.414 433.333 328.227 433.44 328.121 433.6C327.907 433.867 327.774 434.213 327.721 434.64C327.667 435.067 327.641 435.467 327.641 435.84C327.747 436.48 327.907 437.093 328.121 437.68C328.387 438.267 328.921 438.56 329.721 438.56H330.441C330.707 438.56 330.974 438.533 331.241 438.48C331.561 438.427 331.881 438.373 332.201 438.32L332.761 438L332.841 438.08C333.161 437.973 333.721 437.733 334.521 437.36C335.321 436.987 336.094 436.613 336.841 436.24C337.587 435.813 338.041 435.52 338.201 435.36L338.281 435.28L338.361 435.12L338.601 434.88C339.561 434.187 340.494 433.6 341.401 433.12C342.307 432.587 343.187 431.893 344.041 431.04L344.201 431.2H344.441C344.387 431.573 344.254 431.867 344.041 432.08C343.827 432.24 343.587 432.453 343.321 432.72L343.081 433.12C342.441 434.133 341.454 435.147 340.121 436.16C338.841 437.173 337.667 438.027 336.601 438.72C336.227 438.933 335.854 439.2 335.481 439.52C335.107 439.787 334.681 440 334.201 440.16C333.294 440.427 332.467 440.56 331.721 440.56ZM329.161 430.64C329.481 430.64 329.694 430.64 329.801 430.64C329.961 430.587 330.174 430.533 330.441 430.48C331.507 429.893 332.494 429.2 333.401 428.4C334.361 427.6 335.267 426.8 336.121 426C336.227 425.627 336.494 425.307 336.921 425.04L337.241 424.8C337.347 424.693 337.427 424.587 337.481 424.48C337.587 424.373 337.641 424.267 337.641 424.16C337.694 424.107 337.667 423.92 337.561 423.6L337.481 423.2V423.04C337.321 422.987 337.107 422.96 336.841 422.96C336.467 423.12 336.094 423.36 335.721 423.68C335.347 424 334.947 424.187 334.521 424.24C334.307 424.56 333.854 424.987 333.161 425.52C332.787 425.84 332.414 426.16 332.041 426.48C331.721 426.747 331.507 426.933 331.401 427.04C331.027 427.413 330.574 428 330.041 428.8C329.507 429.547 329.214 430.16 329.161 430.64ZM390.4 447.76C389.387 447.76 388.427 447.333 387.52 446.48C386.613 445.68 386.16 444.8 386.16 443.84C386.16 443.147 386.24 442.453 386.4 441.76C386.613 441.12 386.693 440.453 386.64 439.76C385.947 439.387 385.093 438.88 384.08 438.24C383.067 437.6 382.56 436.8 382.56 435.84C382.56 434.987 382.907 434.267 383.6 433.68C384.293 433.093 384.907 432.613 385.44 432.24H386V432.32H386.16C386.107 432.8 385.973 433.227 385.76 433.6C385.547 433.973 385.333 434.373 385.12 434.8C384.907 435.173 384.72 435.547 384.56 435.92C384.453 436.24 384.4 436.56 384.4 436.88C384.453 437.413 384.8 437.76 385.44 437.92C386.08 438.027 386.64 438.08 387.12 438.08C387.28 436.96 387.653 435.92 388.24 434.96C388.827 433.947 389.307 432.933 389.68 431.92C390.587 429.733 391.653 427.627 392.88 425.6C394.16 423.573 395.413 421.573 396.64 419.6C398.133 417.253 399.573 414.88 400.96 412.48C402.4 410.027 404 407.733 405.76 405.6C406.187 405.12 406.72 404.88 407.36 404.88C407.893 404.88 408.56 405.04 409.36 405.36C410.213 405.68 410.667 406.107 410.72 406.64C410.827 407.653 410.453 408.773 409.6 410C408.8 411.227 408.027 412.213 407.28 412.96H406.96L406.88 412.56C406.88 412.453 406.933 412.4 407.04 412.4C407.04 412.4 407.04 412.32 407.04 412.16H406.8L406.32 412.56C406.427 413.04 406.32 413.6 406 414.24C405.68 414.88 405.307 415.493 404.88 416.08C404.453 416.613 404.133 417.04 403.92 417.36C403.6 417.733 403.28 418.133 402.96 418.56C402.693 418.933 402.453 419.307 402.24 419.68C401.76 420.373 401.52 421.067 401.52 421.76H401.28C400.8 421.973 400.293 422.453 399.76 423.2C399.28 423.947 398.827 424.747 398.4 425.6C397.973 426.4 397.6 427.04 397.28 427.52C396.587 428.587 395.92 429.707 395.28 430.88C394.64 432 394.08 433.173 393.6 434.4C393.387 434.987 392.907 435.547 392.16 436.08C391.413 436.56 390.88 437.067 390.56 437.6H395.04C395.147 437.547 395.307 437.52 395.52 437.52V437.44C396.053 437.28 396.64 437.147 397.28 437.04C397.493 436.933 397.68 436.88 397.84 436.88C398.053 436.88 398.16 436.853 398.16 436.8C398.373 436.747 398.587 436.667 398.8 436.56C399.067 436.4 399.28 436.4 399.44 436.56L400.64 436.16L401.04 435.76V436.08C401.52 435.973 402 435.867 402.48 435.76C402.96 435.6 403.44 435.52 403.92 435.52C404.507 435.093 405.147 434.853 405.84 434.8C406.533 434.747 407.2 434.64 407.84 434.48C408.16 434.107 408.747 433.76 409.6 433.44C410.453 433.12 411.147 432.96 411.68 432.96H411.76L413.28 432.16C413.387 432.213 413.68 432.133 414.16 431.92C414.64 431.653 415.173 431.36 415.76 431.04L418.72 429.44C420.213 428.64 421.707 427.6 423.2 426.32C424.693 424.987 425.947 423.52 426.96 421.92C428.027 420.32 428.56 418.667 428.56 416.96C428.56 414.56 427.653 412.533 425.84 410.88C424.027 409.227 421.707 407.84 418.88 406.72C416.533 405.707 414.133 405.04 411.68 404.72C409.28 404.347 406.96 404.16 404.72 404.16C402.587 404.16 400.533 404.267 398.56 404.48C396.587 404.693 394.827 404.907 393.28 405.12C392.427 405.227 391.493 405.36 390.48 405.52C389.467 405.68 388.587 405.867 387.84 406.08C387.253 406.24 386.667 406.48 386.08 406.8C385.547 407.067 384.987 407.28 384.4 407.44C381.733 408.4 379.013 409.44 376.24 410.56C373.52 411.627 371.04 413.12 368.8 415.04C368.587 415.253 368.267 415.547 367.84 415.92C367.467 416.24 367.28 416.587 367.28 416.96C367.28 417.28 367.52 417.52 368 417.68C368.533 417.84 369.093 417.947 369.68 418C370.267 418 370.667 418 370.88 418L370.8 417.84H370.08L371.6 417.68C371.653 417.68 371.68 417.707 371.68 417.76C371.68 417.76 371.707 417.76 371.76 417.76C372.56 417.653 373.333 417.52 374.08 417.36C374.827 417.2 375.547 417.04 376.24 416.88V416.72H377.2C377.2 416.827 377.2 416.96 377.2 417.12C377.253 417.28 377.173 417.413 376.96 417.52C375.893 418 374.507 418.507 372.8 419.04C371.093 419.573 369.6 419.84 368.32 419.84C367.147 419.84 365.947 419.467 364.72 418.72C363.493 417.92 362.88 416.907 362.88 415.68C362.88 414.667 363.493 413.653 364.72 412.64C365.893 411.573 367.387 410.56 369.2 409.6C371.013 408.64 372.853 407.787 374.72 407.04C376.64 406.24 378.32 405.6 379.76 405.12C381.2 404.587 382.107 404.267 382.48 404.16C383.173 403.947 383.84 403.813 384.48 403.76C385.173 403.653 385.867 403.547 386.56 403.44C387.84 403.227 389.093 403.013 390.32 402.8C391.6 402.533 392.88 402.4 394.16 402.4V402.32H396.56L397.2 402C398.587 402.053 399.973 402.08 401.36 402.08C402.8 402.027 404.187 402.053 405.52 402.16C408.88 402.373 412.187 402.907 415.44 403.76C418.747 404.613 421.76 405.947 424.48 407.76C427.2 409.52 429.387 411.947 431.04 415.04C431.467 415.733 431.733 416.453 431.84 417.2C432 417.947 432.08 418.693 432.08 419.44C432.08 422 431.307 424.267 429.76 426.24C428.213 428.16 426.24 429.84 423.84 431.28C421.44 432.72 418.933 433.973 416.32 435.04C413.707 436.053 411.333 436.933 409.2 437.68C408.187 438 407.28 438.373 406.48 438.8C405.68 439.227 404.72 439.44 403.6 439.44H403.36L402.8 439.6C402.587 439.653 402.373 439.707 402.16 439.76C401.947 439.813 401.813 439.867 401.76 439.92C401.013 440.08 400.267 440.16 399.52 440.16C398.773 440.213 398.027 440.24 397.28 440.24H394.32C393.84 440.24 393.333 440.213 392.8 440.16C392.32 440.107 391.84 440.08 391.36 440.08C391.147 440.08 390.827 440.08 390.4 440.08C390.027 440.133 389.787 440.213 389.68 440.32C389.307 440.64 389.093 441.2 389.04 442C389.04 442.8 389.067 443.413 389.12 443.84C389.173 444.373 389.307 445.013 389.52 445.76C389.787 446.507 390.347 446.88 391.2 446.88L391.28 447.6C391.067 447.653 390.88 447.68 390.72 447.68C390.613 447.733 390.507 447.76 390.4 447.76ZM435.518 440.56C434.558 440.56 433.518 440.373 432.398 440C431.331 439.627 430.398 439.067 429.598 438.32C428.851 437.573 428.424 436.667 428.318 435.6C428.318 435.333 428.318 435.067 428.318 434.8C428.371 434.533 428.371 434.293 428.318 434.08C428.318 433.92 428.158 433.76 427.838 433.6L427.598 433.36C427.384 433.253 427.171 433.12 426.957 432.96C426.744 432.747 426.637 432.507 426.637 432.24C426.797 432.187 426.931 432.16 427.037 432.16C427.304 432.16 427.544 432.187 427.758 432.24C428.024 432.293 428.264 432.32 428.478 432.32C428.424 432.32 428.451 432.213 428.558 432C428.558 431.893 428.584 431.787 428.638 431.68C428.691 431.52 428.744 431.413 428.798 431.36C428.851 431.36 428.931 431.173 429.038 430.8C429.144 430.373 429.224 430.133 429.278 430.08C430.024 427.787 431.038 425.84 432.318 424.24C433.651 422.587 435.464 421.36 437.758 420.56C437.971 420.507 438.158 420.48 438.318 420.48C438.531 420.427 438.744 420.4 438.958 420.4C439.384 420.4 439.944 420.56 440.638 420.88C441.331 421.147 441.944 421.52 442.478 422C443.064 422.427 443.384 422.88 443.438 423.36C443.438 423.573 443.438 423.76 443.438 423.92C443.491 424.08 443.518 424.267 443.518 424.48C443.518 424.8 443.438 425.173 443.278 425.6L442.798 425.84C442.691 426.053 442.584 426.213 442.478 426.32L441.998 426.88C441.571 427.307 441.411 427.6 441.518 427.76L441.358 427.84C441.358 427.84 441.358 427.867 441.358 427.92C441.358 427.92 441.331 427.92 441.278 427.92L441.358 427.84L441.278 427.92V428L440.878 428.08C440.664 428.24 440.478 428.427 440.318 428.64C440.158 428.8 439.998 428.987 439.838 429.2C439.038 430.053 437.998 430.8 436.718 431.44C435.438 432.027 434.264 432.56 433.198 433.04C433.038 433.093 432.798 433.173 432.478 433.28C432.211 433.333 432.024 433.44 431.918 433.6C431.704 433.867 431.571 434.213 431.518 434.64C431.464 435.067 431.438 435.467 431.438 435.84C431.544 436.48 431.704 437.093 431.918 437.68C432.184 438.267 432.718 438.56 433.518 438.56H434.238C434.504 438.56 434.771 438.533 435.038 438.48C435.358 438.427 435.678 438.373 435.998 438.32L436.558 438L436.638 438.08C436.958 437.973 437.518 437.733 438.318 437.36C439.118 436.987 439.891 436.613 440.638 436.24C441.384 435.813 441.838 435.52 441.998 435.36L442.078 435.28L442.158 435.12L442.398 434.88C443.358 434.187 444.291 433.6 445.198 433.12C446.104 432.587 446.984 431.893 447.838 431.04L447.997 431.2H448.238C448.184 431.573 448.051 431.867 447.838 432.08C447.624 432.24 447.384 432.453 447.118 432.72L446.878 433.12C446.238 434.133 445.251 435.147 443.918 436.16C442.638 437.173 441.464 438.027 440.398 438.72C440.024 438.933 439.651 439.2 439.278 439.52C438.904 439.787 438.478 440 437.997 440.16C437.091 440.427 436.264 440.56 435.518 440.56ZM432.958 430.64C433.278 430.64 433.491 430.64 433.598 430.64C433.758 430.587 433.971 430.533 434.238 430.48C435.304 429.893 436.291 429.2 437.198 428.4C438.158 427.6 439.064 426.8 439.918 426C440.024 425.627 440.291 425.307 440.718 425.04L441.038 424.8C441.144 424.693 441.224 424.587 441.278 424.48C441.384 424.373 441.438 424.267 441.438 424.16C441.491 424.107 441.464 423.92 441.358 423.6L441.278 423.2V423.04C441.118 422.987 440.904 422.96 440.638 422.96C440.264 423.12 439.891 423.36 439.518 423.68C439.144 424 438.744 424.187 438.318 424.24C438.104 424.56 437.651 424.987 436.958 425.52C436.584 425.84 436.211 426.16 435.838 426.48C435.518 426.747 435.304 426.933 435.198 427.04C434.824 427.413 434.371 428 433.838 428.8C433.304 429.547 433.011 430.16 432.958 430.64ZM452.334 441.52C450.788 441.52 449.588 441.173 448.734 440.48C447.934 439.84 447.374 439.013 447.054 438C446.734 436.933 446.521 435.84 446.414 434.72C446.361 434.133 446.121 433.733 445.694 433.52C445.534 433.413 445.348 433.333 445.134 433.28C444.974 433.173 444.894 433.013 444.894 432.8C445.108 432.373 445.428 432.053 445.854 431.84C446.281 431.573 446.548 431.413 446.654 431.36C446.654 431.307 446.654 431.253 446.654 431.2C446.708 431.093 446.734 430.987 446.734 430.88L447.134 429.68L447.694 427.6C447.854 427.013 447.988 426.4 448.094 425.76C448.254 425.067 448.441 424.373 448.654 423.68C448.868 422.933 449.108 422.16 449.374 421.36C449.641 420.56 449.961 419.707 450.334 418.8C450.761 418.693 450.974 418.587 450.974 418.48C451.028 418.32 451.001 418.08 450.894 417.76C450.894 417.707 450.868 417.653 450.814 417.6C450.814 417.547 450.814 417.493 450.814 417.44C450.814 417.12 450.921 416.773 451.134 416.4C451.401 416.027 451.641 415.653 451.854 415.28C452.121 414.853 452.388 414.48 452.654 414.16C452.921 413.787 453.081 413.573 453.134 413.52C454.521 411.653 455.961 409.893 457.454 408.24C459.001 406.587 460.841 405.173 462.974 404C463.241 403.893 463.454 403.787 463.614 403.68C463.828 403.52 464.068 403.413 464.334 403.36L464.254 403.28C464.361 403.28 464.468 403.28 464.574 403.28C464.681 403.227 464.788 403.2 464.894 403.2C465.321 403.2 466.014 403.36 466.974 403.68C467.934 404 468.814 404.4 469.614 404.88C470.468 405.36 470.894 405.893 470.894 406.48C470.894 407.067 470.574 407.947 469.934 409.12C469.294 410.24 468.494 411.493 467.534 412.88C466.574 414.213 465.561 415.547 464.494 416.88C463.481 418.213 462.521 419.387 461.614 420.4C460.761 421.413 460.121 422.133 459.694 422.56C459.481 422.773 459.268 422.96 459.054 423.12C458.841 423.28 458.628 423.467 458.414 423.68C457.988 424.107 457.561 424.56 457.134 425.04C456.761 425.52 456.334 425.973 455.854 426.4C455.161 427.04 454.281 427.76 453.214 428.56C452.201 429.307 451.348 430 450.654 430.64C450.441 430.853 450.281 431.04 450.174 431.2C450.121 431.36 450.014 431.547 449.854 431.76C449.641 432.027 449.481 432.587 449.374 433.44C449.321 434.24 449.321 434.853 449.374 435.28C449.428 435.76 449.561 436.373 449.774 437.12C449.988 437.813 450.308 438.453 450.734 439.04C451.161 439.627 451.694 439.92 452.334 439.92C452.654 439.92 452.921 439.867 453.134 439.76C453.401 439.6 453.668 439.467 453.934 439.36C455.481 438.507 456.788 437.627 457.854 436.72C458.974 435.76 460.121 434.64 461.294 433.36C461.721 432.933 462.121 432.507 462.494 432.08C462.921 431.6 463.348 431.147 463.774 430.72C464.041 430.507 464.308 430.267 464.574 430C464.894 429.68 465.241 429.547 465.614 429.6C465.561 430.24 465.348 430.693 464.974 430.96C464.654 431.173 464.361 431.493 464.094 431.92C463.828 432.4 463.561 432.853 463.294 433.28C463.028 433.707 462.788 434.187 462.574 434.72C462.468 434.933 462.308 435.147 462.094 435.36C461.881 435.573 461.694 435.787 461.534 436C460.681 437.013 459.774 437.947 458.814 438.8C457.854 439.6 456.734 440.24 455.454 440.72C454.921 440.933 454.414 441.12 453.934 441.28C453.454 441.44 452.921 441.52 452.334 441.52ZM449.454 429.04H449.534C452.734 426.107 455.828 423.067 458.814 419.92C461.801 416.773 464.361 413.387 466.494 409.76C466.601 409.6 466.814 409.2 467.134 408.56C467.454 407.92 467.721 407.28 467.934 406.64C468.201 406 468.201 405.6 467.934 405.44C467.348 405.653 466.788 405.947 466.254 406.32C465.774 406.693 465.294 407.067 464.814 407.44C464.654 407.547 464.468 407.653 464.254 407.76C464.041 407.867 463.881 408 463.774 408.16C463.348 408.587 462.921 409.013 462.494 409.44C462.068 409.867 461.641 410.293 461.214 410.72C460.628 411.307 460.068 411.947 459.534 412.64C459.054 413.333 458.548 414.027 458.014 414.72C456.788 416.32 455.774 417.733 454.974 418.96C454.174 420.133 453.268 421.573 452.254 423.28C452.094 423.6 451.801 424.16 451.374 424.96C450.948 425.76 450.548 426.56 450.174 427.36C449.801 428.107 449.561 428.667 449.454 429.04ZM472.484 420.56C471.95 420.56 471.31 420.507 470.564 420.4C469.817 420.24 469.417 419.76 469.364 418.96C469.364 418.853 469.55 418.587 469.924 418.16C470.35 417.733 470.777 417.307 471.204 416.88C471.684 416.453 471.977 416.187 472.084 416.08C472.244 415.973 472.617 415.68 473.204 415.2C473.844 414.72 474.27 414.64 474.484 414.96C474.537 415.013 474.564 415.387 474.564 416.08V417.2C474.564 417.307 474.51 417.413 474.404 417.52C474.35 417.52 474.217 417.573 474.004 417.68C473.844 417.733 473.764 417.787 473.764 417.84L473.844 417.92C473.95 417.973 474.03 418.08 474.084 418.24C474.19 418.4 474.217 418.533 474.164 418.64C473.95 419.013 473.684 419.44 473.364 419.92C473.044 420.347 472.75 420.56 472.484 420.56ZM465.044 441.2C464.83 441.2 464.377 441.12 463.684 440.96C463.044 440.8 462.617 440.667 462.404 440.56C461.87 440.187 461.497 439.867 461.284 439.6C461.07 439.333 460.964 438.773 460.964 437.92C460.964 436.373 461.31 434.853 462.004 433.36C462.75 431.813 463.417 430.347 464.004 428.96C464.11 428.853 464.11 428.773 464.004 428.72V428.56C463.844 428.027 463.977 427.413 464.404 426.72C464.83 425.973 465.337 425.28 465.924 424.64C466.51 424 466.964 423.573 467.284 423.36C467.55 423.36 468.03 423.413 468.724 423.52C469.417 423.573 470.084 423.68 470.724 423.84C471.364 424 471.684 424.267 471.684 424.64C471.684 424.693 471.604 424.827 471.444 425.04C471.284 425.253 471.097 425.493 470.884 425.76L470.244 426.48C470.03 426.693 469.924 426.827 469.924 426.88C469.444 427.733 468.804 428.773 468.004 430C467.204 431.227 466.457 432.48 465.764 433.76C465.284 434.613 464.884 435.44 464.564 436.24C464.297 436.987 464.164 437.653 464.164 438.24C464.164 438.72 464.27 439.067 464.484 439.28C465.07 439.173 465.684 438.8 466.324 438.16C467.017 437.52 467.577 436.933 468.004 436.4H468.404C468.404 436.933 468.217 437.387 467.844 437.76L467.604 438C467.337 438.48 466.99 439.147 466.564 440C466.19 440.8 465.684 441.2 465.044 441.2ZM471.648 441.92C470.901 441.92 470.341 441.6 469.968 440.96C469.648 440.373 469.488 439.813 469.488 439.28C469.488 438.053 469.648 436.853 469.968 435.68C470.288 434.453 470.555 433.253 470.768 432.08C470.928 431.333 471.035 430.587 471.088 429.84C471.195 429.093 471.275 428.347 471.328 427.6C471.381 427.227 471.435 426.88 471.488 426.56C471.541 426.187 471.595 425.813 471.648 425.44V424.8C471.648 424.213 471.541 423.84 471.328 423.68C471.115 423.52 470.608 423.44 469.808 423.44C469.541 423.44 469.355 423.387 469.248 423.28C469.195 423.227 469.168 423.2 469.168 423.2C469.168 423.147 469.168 423.12 469.168 423.12C469.168 422.907 469.248 422.747 469.408 422.64C469.621 422.533 469.808 422.453 469.968 422.4L471.088 422.64L471.248 422.56C471.568 422.613 471.915 422.64 472.288 422.64C472.715 422.587 473.115 422.56 473.488 422.56C474.075 422.56 474.608 422.8 475.088 423.28C475.568 423.707 475.808 424.213 475.808 424.8C475.808 425.12 475.755 425.44 475.648 425.76C475.595 426.027 475.541 426.32 475.488 426.64C475.488 426.693 475.515 426.773 475.568 426.88V427.04C475.675 427.413 475.568 427.92 475.248 428.56C474.928 429.147 474.715 429.653 474.608 430.08C474.555 430.4 474.501 430.72 474.448 431.04C474.448 431.307 474.395 431.573 474.288 431.84C474.181 432.107 474.101 432.4 474.048 432.72C473.995 433.04 473.915 433.36 473.808 433.68C473.595 434.213 473.435 434.88 473.328 435.68C473.328 435.893 473.328 436 473.328 436C473.381 436 473.435 435.947 473.488 435.84C473.755 435.413 473.995 434.96 474.208 434.48C474.421 434 474.661 433.573 474.928 433.2C475.995 431.813 477.115 430.453 478.288 429.12C479.515 427.787 480.768 426.507 482.048 425.28C482.901 424.533 483.728 423.813 484.528 423.12C485.328 422.427 486.261 421.893 487.328 421.52C487.808 421.36 488.261 421.28 488.688 421.28C489.861 421.28 490.741 421.627 491.328 422.32C491.595 422.693 491.728 423.013 491.728 423.28C491.728 423.493 491.621 423.6 491.408 423.6C491.301 423.6 491.035 423.467 490.608 423.2C490.395 423.04 490.101 422.96 489.728 422.96C489.408 422.96 489.115 422.96 488.848 422.96C488.261 422.96 487.461 423.28 486.448 423.92C486.235 424.08 486.021 424.24 485.808 424.4C485.648 424.507 485.541 424.667 485.488 424.88C485.115 424.933 484.875 425.067 484.768 425.28C484.661 425.493 484.475 425.733 484.208 426L483.648 426.24L481.888 428.16H481.808L481.888 428.48C481.621 428.48 481.435 428.533 481.328 428.64C481.008 428.853 480.741 429.147 480.528 429.52C480.315 429.84 480.075 430.133 479.808 430.4L479.568 430.64C479.355 430.853 479.168 431.093 479.008 431.36C478.901 431.627 478.768 431.92 478.608 432.24L477.888 432.72L477.968 432.96C477.755 433.12 477.648 433.28 477.648 433.44C477.275 433.813 476.795 434.4 476.208 435.2C475.621 436 475.301 436.613 475.248 437.04C474.875 437.2 474.475 437.573 474.048 438.16C473.675 438.747 473.355 439.36 473.088 440C472.821 440.587 472.688 441.04 472.688 441.36C472.635 441.573 472.501 441.707 472.288 441.76C472.075 441.867 471.861 441.92 471.648 441.92ZM492.049 440.56C491.089 440.56 490.049 440.373 488.929 440C487.862 439.627 486.929 439.067 486.129 438.32C485.382 437.573 484.955 436.667 484.849 435.6C484.849 435.333 484.849 435.067 484.849 434.8C484.902 434.533 484.902 434.293 484.849 434.08C484.849 433.92 484.689 433.76 484.369 433.6L484.129 433.36C483.915 433.253 483.702 433.12 483.489 432.96C483.275 432.747 483.169 432.507 483.169 432.24C483.329 432.187 483.462 432.16 483.569 432.16C483.835 432.16 484.075 432.187 484.289 432.24C484.555 432.293 484.795 432.32 485.009 432.32C484.955 432.32 484.982 432.213 485.089 432C485.089 431.893 485.115 431.787 485.169 431.68C485.222 431.52 485.275 431.413 485.329 431.36C485.382 431.36 485.462 431.173 485.569 430.8C485.675 430.373 485.755 430.133 485.809 430.08C486.555 427.787 487.569 425.84 488.849 424.24C490.182 422.587 491.995 421.36 494.289 420.56C494.502 420.507 494.689 420.48 494.849 420.48C495.062 420.427 495.275 420.4 495.489 420.4C495.915 420.4 496.475 420.56 497.169 420.88C497.862 421.147 498.475 421.52 499.009 422C499.595 422.427 499.915 422.88 499.969 423.36C499.969 423.573 499.969 423.76 499.969 423.92C500.022 424.08 500.049 424.267 500.049 424.48C500.049 424.8 499.969 425.173 499.809 425.6L499.329 425.84C499.222 426.053 499.115 426.213 499.009 426.32L498.529 426.88C498.102 427.307 497.942 427.6 498.049 427.76L497.889 427.84C497.889 427.84 497.889 427.867 497.889 427.92C497.889 427.92 497.862 427.92 497.809 427.92L497.889 427.84L497.809 427.92V428L497.409 428.08C497.195 428.24 497.009 428.427 496.849 428.64C496.689 428.8 496.529 428.987 496.369 429.2C495.569 430.053 494.529 430.8 493.249 431.44C491.969 432.027 490.795 432.56 489.729 433.04C489.569 433.093 489.329 433.173 489.009 433.28C488.742 433.333 488.555 433.44 488.449 433.6C488.235 433.867 488.102 434.213 488.049 434.64C487.995 435.067 487.969 435.467 487.969 435.84C488.075 436.48 488.235 437.093 488.449 437.68C488.715 438.267 489.249 438.56 490.049 438.56H490.769C491.035 438.56 491.302 438.533 491.569 438.48C491.889 438.427 492.209 438.373 492.529 438.32L493.089 438L493.169 438.08C493.489 437.973 494.049 437.733 494.849 437.36C495.649 436.987 496.422 436.613 497.169 436.24C497.915 435.813 498.369 435.52 498.529 435.36L498.609 435.28L498.689 435.12L498.929 434.88C499.889 434.187 500.822 433.6 501.729 433.12C502.635 432.587 503.515 431.893 504.369 431.04L504.529 431.2H504.769C504.715 431.573 504.582 431.867 504.369 432.08C504.155 432.24 503.915 432.453 503.649 432.72L503.409 433.12C502.769 434.133 501.782 435.147 500.449 436.16C499.169 437.173 497.995 438.027 496.929 438.72C496.555 438.933 496.182 439.2 495.809 439.52C495.435 439.787 495.009 440 494.529 440.16C493.622 440.427 492.795 440.56 492.049 440.56ZM489.489 430.64C489.809 430.64 490.022 430.64 490.129 430.64C490.289 430.587 490.502 430.533 490.769 430.48C491.835 429.893 492.822 429.2 493.729 428.4C494.689 427.6 495.595 426.8 496.449 426C496.555 425.627 496.822 425.307 497.249 425.04L497.569 424.8C497.675 424.693 497.755 424.587 497.809 424.48C497.915 424.373 497.969 424.267 497.969 424.16C498.022 424.107 497.995 423.92 497.889 423.6L497.809 423.2V423.04C497.649 422.987 497.435 422.96 497.169 422.96C496.795 423.12 496.422 423.36 496.049 423.68C495.675 424 495.275 424.187 494.849 424.24C494.635 424.56 494.182 424.987 493.489 425.52C493.115 425.84 492.742 426.16 492.369 426.48C492.049 426.747 491.835 426.933 491.729 427.04C491.355 427.413 490.902 428 490.369 428.8C489.835 429.547 489.542 430.16 489.489 430.64ZM503.586 441.68C503.212 441.68 502.812 441.573 502.386 441.36C501.959 441.147 501.666 440.853 501.506 440.48L501.586 440.08C501.906 438.427 502.386 436.827 503.026 435.28C503.666 433.733 504.252 432.187 504.786 430.64C505.212 429.467 505.692 428.027 506.226 426.32C506.759 424.613 507.026 423.093 507.026 421.76C507.026 421.6 507.026 421.44 507.026 421.28C507.026 421.067 506.999 420.88 506.946 420.72C506.572 420.72 506.226 420.773 505.906 420.88C505.586 420.933 505.239 420.96 504.866 420.96H504.786C504.519 420.96 504.386 420.8 504.386 420.48C504.386 420.32 504.492 420.133 504.706 419.92C504.919 419.707 505.239 419.6 505.666 419.6C505.826 419.653 506.279 419.68 507.026 419.68C507.452 419.68 508.039 419.707 508.786 419.76C509.532 419.76 510.226 419.84 510.866 420C511.559 420.16 511.959 420.507 512.066 421.04C512.119 421.36 511.959 421.973 511.586 422.88C511.266 423.733 510.892 424.667 510.466 425.68C509.986 426.693 509.532 427.68 509.106 428.64C508.946 429.067 508.786 429.493 508.626 429.92C508.466 430.293 508.386 430.613 508.386 430.88V430.96L508.546 430.72C508.866 430.24 509.186 429.787 509.506 429.36C509.879 428.933 510.172 428.533 510.386 428.16C510.652 427.84 511.052 427.36 511.586 426.72C512.172 426.027 512.759 425.307 513.346 424.56C513.986 423.813 514.599 423.067 515.186 422.32C515.826 421.573 516.386 421.013 516.866 420.64C516.972 420.533 517.079 420.4 517.186 420.24C517.346 420.08 517.506 419.973 517.666 419.92C517.826 419.867 518.039 419.84 518.306 419.84C518.626 419.787 519.079 419.76 519.666 419.76C519.826 419.76 519.986 419.787 520.146 419.84C520.306 419.84 520.439 419.84 520.546 419.84C520.759 419.84 521.212 420 521.906 420.32C522.599 420.587 523.292 420.907 523.986 421.28C524.679 421.653 525.026 421.973 525.026 422.24C525.079 422.773 524.892 423.173 524.466 423.44C524.092 423.653 523.772 423.92 523.506 424.24C523.132 424.72 522.759 425.253 522.386 425.84C522.066 426.373 521.799 426.933 521.586 427.52L521.426 428C521.212 428.213 521.026 428.32 520.866 428.32C520.546 428.32 520.439 428.133 520.546 427.76C520.546 427.227 520.599 426.747 520.706 426.32C520.812 425.84 520.892 425.413 520.946 425.04C521.052 424.613 521.106 424.213 521.106 423.84C521.159 423.413 521.159 422.96 521.106 422.48C521.106 422.32 521.052 422.24 520.946 422.24C520.466 422.24 520.012 422.453 519.586 422.88C519.159 423.307 518.812 423.68 518.546 424L518.066 424.32C517.799 424.693 517.346 425.12 516.706 425.6L515.186 426.72C514.812 426.987 514.279 427.52 513.586 428.32C512.892 429.067 512.359 429.653 511.986 430.08C511.986 430.133 511.799 430.16 511.426 430.16H511.346L511.266 430.24V430.4C511.372 430.56 511.319 430.747 511.106 430.96C510.786 431.387 510.226 432.107 509.426 433.12C508.626 434.133 507.852 435.147 507.106 436.16C506.359 437.12 505.932 437.813 505.826 438.24C505.612 438.827 505.426 439.36 505.266 439.84C505.159 440.32 505.132 440.907 505.186 441.6C504.812 441.547 504.546 441.52 504.386 441.52C504.279 441.573 504.199 441.6 504.146 441.6C503.986 441.653 503.799 441.68 503.586 441.68Z" fill="#F79A1A"/>
<path d="M101.298 419.133C101.146 418.649 100.843 418.227 100.434 417.927C100.025 417.628 99.5308 417.467 99.0241 417.468H97.8583C97.752 417.465 97.6496 417.428 97.5656 417.362C97.4815 417.297 97.4201 417.207 97.3901 417.105L97.0366 415.957C96.8918 415.461 96.5901 415.024 96.1766 414.714C95.763 414.403 95.2601 414.236 94.7432 414.236C94.2263 414.236 93.7234 414.403 93.3099 414.714C92.8964 415.024 92.5946 415.461 92.4499 415.957L92.0868 417.105C92.0584 417.209 91.9978 417.301 91.9136 417.368C91.8294 417.435 91.7261 417.474 91.6186 417.478H90.4623C89.9553 417.475 89.4607 417.636 89.0513 417.935C88.642 418.235 88.3394 418.658 88.1881 419.142C88.0211 419.628 88.0106 420.155 88.158 420.647C88.3054 421.139 88.6034 421.573 89.0099 421.887L89.9654 422.595C90.0562 422.67 90.1228 422.769 90.1568 422.882C90.1908 422.994 90.1907 423.114 90.1566 423.226L89.7934 424.374C89.6361 424.879 89.6439 425.422 89.8157 425.922C89.9876 426.423 90.3145 426.856 90.749 427.157C91.1519 427.459 91.6413 427.621 92.1441 427.621C92.647 427.621 93.1363 427.459 93.5392 427.157L94.4948 426.45C94.5745 426.389 94.6718 426.356 94.7719 426.356C94.872 426.356 94.9693 426.389 95.049 426.45L96.0046 427.157C96.4081 427.457 96.8972 427.619 97.3997 427.619C97.9021 427.619 98.3913 427.457 98.7948 427.157C99.2293 426.856 99.5562 426.423 99.7281 425.922C99.8999 425.422 99.9077 424.879 99.7503 424.374L99.3968 423.226C99.3585 423.114 99.3563 422.993 99.3906 422.88C99.4249 422.767 99.4939 422.667 99.5879 422.595L100.477 421.887C100.883 421.571 101.18 421.135 101.327 420.642C101.475 420.148 101.465 419.62 101.298 419.133Z" fill="white"/>
<path d="M123.275 419.133C123.122 418.649 122.819 418.227 122.41 417.927C122.001 417.628 121.507 417.467 121.001 417.468H119.835C119.729 417.465 119.626 417.428 119.542 417.362C119.458 417.297 119.397 417.207 119.367 417.105L119.013 415.957C118.868 415.461 118.567 415.024 118.153 414.714C117.74 414.403 117.237 414.236 116.72 414.236C116.203 414.236 115.7 414.403 115.286 414.714C114.873 415.024 114.571 415.461 114.426 415.957L114.063 417.105C114.035 417.209 113.974 417.301 113.89 417.368C113.806 417.435 113.703 417.474 113.595 417.478H112.439C111.932 417.475 111.437 417.636 111.028 417.935C110.619 418.235 110.316 418.658 110.165 419.142C109.998 419.628 109.987 420.155 110.135 420.647C110.282 421.139 110.58 421.573 110.986 421.887L111.942 422.595C112.033 422.67 112.099 422.769 112.133 422.882C112.167 422.994 112.167 423.114 112.133 423.226L111.77 424.374C111.613 424.879 111.62 425.422 111.792 425.922C111.964 426.423 112.291 426.856 112.726 427.157C113.128 427.459 113.618 427.621 114.121 427.621C114.624 427.621 115.113 427.459 115.516 427.157L116.471 426.45C116.551 426.389 116.648 426.356 116.748 426.356C116.849 426.356 116.946 426.389 117.026 426.45L117.981 427.157C118.385 427.457 118.874 427.619 119.376 427.619C119.879 427.619 120.368 427.457 120.771 427.157C121.206 426.856 121.533 426.423 121.705 425.922C121.876 425.422 121.884 424.879 121.727 424.374L121.373 423.226C121.335 423.114 121.333 422.993 121.367 422.88C121.401 422.767 121.47 422.667 121.564 422.595L122.453 421.887C122.859 421.571 123.157 421.135 123.304 420.642C123.451 420.148 123.441 419.62 123.275 419.133Z" fill="white"/>
<path d="M145.251 419.133C145.099 418.649 144.796 418.227 144.387 417.927C143.978 417.628 143.484 417.467 142.977 417.468H141.811C141.705 417.465 141.603 417.428 141.519 417.362C141.435 417.297 141.373 417.207 141.343 417.105L140.99 415.957C140.845 415.461 140.543 415.024 140.13 414.714C139.716 414.403 139.213 414.236 138.696 414.236C138.179 414.236 137.677 414.403 137.263 414.714C136.85 415.024 136.548 415.461 136.403 415.957L136.04 417.105C136.012 417.209 135.951 417.301 135.867 417.368C135.783 417.435 135.679 417.474 135.572 417.478H134.415C133.908 417.475 133.414 417.636 133.004 417.935C132.595 418.235 132.293 418.658 132.141 419.142C131.974 419.628 131.964 420.155 132.111 420.647C132.259 421.139 132.556 421.573 132.963 421.887L133.919 422.595C134.009 422.67 134.076 422.769 134.11 422.882C134.144 422.994 134.144 423.114 134.11 423.226L133.747 424.374C133.589 424.879 133.597 425.422 133.769 425.922C133.941 426.423 134.268 426.856 134.702 427.157C135.105 427.459 135.594 427.621 136.097 427.621C136.6 427.621 137.089 427.459 137.492 427.157L138.448 426.45C138.528 426.389 138.625 426.356 138.725 426.356C138.825 426.356 138.922 426.389 139.002 426.45L139.958 427.157C140.361 427.457 140.85 427.619 141.353 427.619C141.855 427.619 142.344 427.457 142.748 427.157C143.182 426.856 143.509 426.423 143.681 425.922C143.853 425.422 143.861 424.879 143.703 424.374L143.35 423.226C143.312 423.114 143.309 422.993 143.344 422.88C143.378 422.767 143.447 422.667 143.541 422.595L144.43 421.887C144.836 421.571 145.133 421.135 145.281 420.642C145.428 420.148 145.418 419.62 145.251 419.133Z" fill="white"/>
<path d="M167.228 419.133C167.075 418.649 166.772 418.227 166.363 417.927C165.954 417.628 165.461 417.467 164.954 417.468H163.788C163.682 417.465 163.579 417.428 163.495 417.362C163.411 417.297 163.35 417.207 163.32 417.105L162.966 415.957C162.822 415.461 162.52 415.024 162.106 414.714C161.693 414.403 161.19 414.236 160.673 414.236C160.156 414.236 159.653 414.403 159.24 414.714C158.826 415.024 158.524 415.461 158.38 415.957L158.016 417.105C157.988 417.209 157.927 417.301 157.843 417.368C157.759 417.435 157.656 417.474 157.548 417.478H156.392C155.885 417.475 155.39 417.636 154.981 417.935C154.572 418.235 154.269 418.658 154.118 419.142C153.951 419.628 153.94 420.155 154.088 420.647C154.235 421.139 154.533 421.573 154.94 421.887L155.895 422.595C155.986 422.67 156.052 422.769 156.086 422.882C156.12 422.994 156.12 423.114 156.086 423.226L155.723 424.374C155.566 424.879 155.574 425.422 155.745 425.922C155.917 426.423 156.244 426.856 156.679 427.157C157.082 427.459 157.571 427.621 158.074 427.621C158.577 427.621 159.066 427.459 159.469 427.157L160.424 426.45C160.504 426.389 160.602 426.356 160.702 426.356C160.802 426.356 160.899 426.389 160.979 426.45L161.934 427.157C162.338 427.457 162.827 427.619 163.329 427.619C163.832 427.619 164.321 427.457 164.724 427.157C165.159 426.856 165.486 426.423 165.658 425.922C165.83 425.422 165.837 424.879 165.68 424.374L165.326 423.226C165.288 423.114 165.286 422.993 165.32 422.88C165.355 422.767 165.424 422.667 165.518 422.595L166.406 421.887C166.812 421.571 167.11 421.135 167.257 420.642C167.404 420.148 167.394 419.62 167.228 419.133Z" fill="white"/>
<path d="M189.212 419.133C189.06 418.649 188.757 418.227 188.348 417.927C187.939 417.628 187.445 417.467 186.938 417.468H185.772C185.666 417.465 185.564 417.428 185.48 417.362C185.396 417.297 185.334 417.207 185.304 417.105L184.951 415.957C184.806 415.461 184.504 415.024 184.091 414.714C183.677 414.403 183.174 414.236 182.657 414.236C182.14 414.236 181.637 414.403 181.224 414.714C180.81 415.024 180.509 415.461 180.364 415.957L180.001 417.105C179.973 417.209 179.912 417.301 179.828 417.368C179.743 417.435 179.64 417.474 179.533 417.478H178.376C177.869 417.475 177.375 417.636 176.965 417.935C176.556 418.235 176.253 418.658 176.102 419.142C175.935 419.628 175.925 420.155 176.072 420.647C176.22 421.139 176.517 421.573 176.924 421.887L177.88 422.595C177.97 422.67 178.037 422.769 178.071 422.882C178.105 422.994 178.105 423.114 178.071 423.226L177.708 424.374C177.55 424.879 177.558 425.422 177.73 425.922C177.902 426.423 178.229 426.856 178.663 427.157C179.066 427.459 179.555 427.621 180.058 427.621C180.561 427.621 181.05 427.459 181.453 427.157L182.409 426.45C182.489 426.389 182.586 426.356 182.686 426.356C182.786 426.356 182.883 426.389 182.963 426.45L183.919 427.157C184.322 427.457 184.811 427.619 185.314 427.619C185.816 427.619 186.305 427.457 186.709 427.157C187.143 426.856 187.47 426.423 187.642 425.922C187.814 425.422 187.822 424.879 187.664 424.374L187.311 423.226C187.273 423.114 187.27 422.993 187.305 422.88C187.339 422.767 187.408 422.667 187.502 422.595L188.391 421.887C188.797 421.571 189.094 421.135 189.242 420.642C189.389 420.148 189.379 419.62 189.212 419.133Z" fill="white"/>
</svg>
