<svg width="558" height="558" viewBox="0 0 558 558" fill="none" xmlns="http://www.w3.org/2000/svg">
<rect width="558" height="558" rx="279" fill="#111111"/>
<path d="M90.16 267.045C90.56 270.485 90.76 273.805 90.76 277.005C90.76 280.205 90.68 283.165 90.52 285.885C89.48 286.205 87.76 286.365 85.36 286.365C84.96 281.485 83.96 278.085 82.36 276.165C80.76 274.245 78.24 273.285 74.8 273.285H66.28V336.165C69.08 337.205 72.2 337.725 75.64 337.725C75.64 338.045 75.64 338.605 75.64 339.405C75.64 340.205 75.52 341.485 75.28 343.245H41.8C41.8 342.765 41.8 342.045 41.8 341.085C41.8 340.045 42 338.925 42.4 337.725C45.52 337.325 47.72 336.685 49 335.805C50.36 334.925 51.04 333.365 51.04 331.125V273.285H42.64C39.12 273.285 36.56 274.245 34.96 276.165C33.36 278.085 32.4 281.485 32.08 286.365C29.6 286.365 27.84 286.205 26.8 285.885C26.56 283.325 26.44 280.485 26.44 277.365C26.44 274.245 26.68 270.805 27.16 267.045H90.16ZM151.186 306.645C151.186 283.525 145.106 271.965 132.946 271.965C121.986 271.965 116.506 282.645 116.506 304.005C116.506 316.245 118.066 325.045 121.186 330.405C124.306 335.685 128.706 338.325 134.386 338.325C145.586 338.325 151.186 327.765 151.186 306.645ZM159.226 334.005C152.666 341.285 144.146 344.925 133.666 344.925C123.186 344.925 114.706 341.285 108.226 334.005C101.746 326.725 98.5056 317.205 98.5056 305.445C98.5056 293.605 101.746 283.965 108.226 276.525C114.706 269.085 123.186 265.365 133.666 265.365C144.146 265.365 152.666 269.085 159.226 276.525C165.866 283.965 169.186 293.605 169.186 305.445C169.186 317.205 165.866 326.725 159.226 334.005ZM203.312 305.445H210.032C215.232 305.445 219.232 304.005 222.032 301.125C224.912 298.245 226.352 294.325 226.352 289.365C226.352 284.405 224.952 280.485 222.152 277.605C219.352 274.725 215.312 273.285 210.032 273.285H203.312V305.445ZM212.912 311.685H203.312V335.445C206.192 336.645 209.832 337.405 214.232 337.725C214.232 340.125 214.032 341.965 213.632 343.245H180.032C180.032 342.685 180.032 341.925 180.032 340.965C180.032 340.005 180.192 338.925 180.512 337.725C183.152 337.325 185.072 336.685 186.272 335.805C187.472 334.925 188.072 333.365 188.072 331.125V274.125C185.512 273.085 182.752 272.565 179.792 272.565C179.792 272.245 179.792 271.685 179.792 270.885C179.792 270.085 179.912 268.805 180.152 267.045H212.792C221.592 267.045 228.792 269.165 234.392 273.405C239.992 277.645 242.792 283.005 242.792 289.485C242.792 295.965 239.992 301.285 234.392 305.445C228.872 309.605 221.712 311.685 212.912 311.685ZM272.572 302.085H280.492C285.052 302.085 288.532 300.885 290.932 298.485C293.412 296.005 294.652 292.445 294.652 287.805C294.652 283.085 293.412 279.485 290.932 277.005C288.532 274.525 285.052 273.285 280.492 273.285H272.572V302.085ZM319.852 337.245C319.852 339.645 319.652 341.645 319.252 343.245H299.452L284.812 313.005C284.012 311.325 283.132 310.125 282.172 309.405C281.212 308.685 279.812 308.325 277.972 308.325H272.572V335.445C275.692 336.725 279.052 337.485 282.652 337.725C282.732 338.285 282.772 339.005 282.772 339.885C282.772 340.765 282.612 341.885 282.292 343.245H249.292C249.292 342.765 249.292 342.045 249.292 341.085C249.292 340.045 249.492 338.925 249.892 337.725C252.532 337.325 254.452 336.685 255.652 335.805C256.852 334.925 257.452 333.365 257.452 331.125V274.125C254.892 273.085 252.052 272.565 248.932 272.565C248.932 270.165 249.132 268.325 249.532 267.045H283.372C292.012 267.045 298.732 268.885 303.532 272.565C308.412 276.245 310.852 281.285 310.852 287.685C310.852 292.325 309.532 296.285 306.892 299.565C304.252 302.845 300.452 305.245 295.492 306.765C297.732 308.125 299.852 310.645 301.852 314.325L309.892 330.045C311.332 332.845 312.732 334.765 314.092 335.805C315.532 336.765 317.452 337.245 319.852 337.245ZM381.459 306.645C381.459 283.525 375.379 271.965 363.219 271.965C352.259 271.965 346.779 282.645 346.779 304.005C346.779 316.245 348.339 325.045 351.459 330.405C354.579 335.685 358.979 338.325 364.659 338.325C375.859 338.325 381.459 327.765 381.459 306.645ZM389.499 334.005C382.939 341.285 374.419 344.925 363.939 344.925C353.459 344.925 344.979 341.285 338.499 334.005C332.019 326.725 328.779 317.205 328.779 305.445C328.779 293.605 332.019 283.965 338.499 276.525C344.979 269.085 353.459 265.365 363.939 265.365C374.419 265.365 382.939 269.085 389.499 276.525C396.139 283.965 399.459 293.605 399.459 305.445C399.459 317.205 396.139 326.725 389.499 334.005ZM462.865 322.245C462.865 329.045 460.225 334.485 454.945 338.565C449.665 342.645 443.585 344.685 436.705 344.685C429.825 344.685 421.985 343.285 413.185 340.485C413.105 338.965 413.065 336.525 413.065 333.165C413.065 329.805 413.425 324.965 414.145 318.645C416.305 318.645 418.345 318.845 420.265 319.245C420.265 319.485 420.265 319.725 420.265 319.965C420.265 331.645 425.705 337.485 436.585 337.485C440.345 337.485 443.385 336.565 445.705 334.725C448.025 332.805 449.185 330.205 449.185 326.925C449.185 323.645 447.945 320.765 445.465 318.285C443.065 315.805 440.105 313.725 436.585 312.045C433.145 310.285 429.665 308.445 426.145 306.525C422.625 304.525 419.625 301.805 417.145 298.365C414.745 294.925 413.545 290.845 413.545 286.125C413.545 279.725 415.905 274.725 420.625 271.125C425.345 267.445 431.145 265.605 438.025 265.605C444.905 265.605 452.025 266.765 459.385 269.085C459.385 274.685 458.865 280.845 457.825 287.565C456.145 287.565 454.505 287.445 452.905 287.205C451.545 277.445 446.745 272.565 438.505 272.565C434.905 272.565 431.985 273.445 429.745 275.205C427.505 276.965 426.385 279.405 426.385 282.525C426.385 285.565 427.625 288.285 430.105 290.685C432.665 293.085 435.705 295.125 439.225 296.805C442.825 298.485 446.385 300.285 449.905 302.205C453.505 304.045 456.545 306.685 459.025 310.125C461.585 313.485 462.865 317.525 462.865 322.245ZM496.049 337.005H514.049C517.889 337.005 520.409 335.885 521.609 333.645C522.809 331.405 523.689 327.605 524.249 322.245C527.369 322.245 529.569 322.365 530.849 322.605C531.169 327.245 531.329 331.285 531.329 334.725C531.329 338.165 531.289 341.005 531.209 343.245H472.769C472.769 342.765 472.769 342.045 472.769 341.085C472.769 340.045 472.969 338.925 473.369 337.725C476.009 337.325 477.929 336.685 479.129 335.805C480.329 334.925 480.929 333.365 480.929 331.125V274.125C478.769 273.085 475.929 272.565 472.409 272.565C472.409 270.165 472.609 268.325 473.009 267.045H530.009C530.009 268.725 530.009 271.325 530.009 274.845C530.009 278.365 529.809 282.405 529.409 286.965C527.809 287.125 525.729 287.205 523.169 287.205C522.449 280.725 521.489 276.885 520.289 275.685C518.609 274.005 516.289 273.165 513.329 273.165H496.049V301.725L513.329 300.405H518.009V309.165H513.329L496.049 308.205V337.005Z" fill="#FAFAFA"/>
<path d="M20 365.236L540 365.236" stroke="white" stroke-width="4"/>
<path d="M3 241.462H235" stroke="white" stroke-width="4"/>
<path d="M323.5 241.462H555.5" stroke="white" stroke-width="4"/>
<path d="M320.005 117.07C320.005 117.07 316.079 117.07 313.207 117.384C308.973 117.836 303.835 119.193 299.897 120.373C292.085 122.722 284.449 125.78 275.865 130.001C271.716 132.047 270.072 133.019 265.17 135.908L264.167 136.512C256.825 140.807 251.446 145.554 247.725 151.048C243.64 157.059 241.57 164.092 241.57 171.923C241.57 181.133 245.071 189.353 251.428 195.065C257.837 200.832 266.763 203.88 277.222 203.88C287.642 203.88 296.584 200.642 303.07 194.514C309.387 188.557 312.875 180.183 312.875 170.937C312.875 165.285 311.495 160.312 310.163 155.515C307.357 145.412 304.935 136.686 315.669 122.932C316.607 121.731 320.005 117.07 320.005 117.07Z" fill="white"/>
<path d="M268.973 118.776C257.713 112.566 243.508 109.835 238 109.835C238 109.835 243.176 116.208 244.495 122.36C245.815 128.511 245.953 133.349 245.144 142.389C249.141 137.759 254.188 133.991 260.59 130.243L261.588 129.655C266.522 126.745 268.356 125.66 272.761 123.492C273.403 123.176 274.04 122.868 274.673 122.563C272.888 121.13 270.981 119.863 268.973 118.776Z" fill="white"/>
<path d="M297.107 102.601C297.107 102.601 287.63 102.683 277.917 107.417C275.433 108.631 273.031 110.011 270.727 111.547C271.281 111.832 271.83 112.124 272.375 112.424C273.142 112.847 273.955 113.328 274.804 113.846C277.323 115.413 279.672 117.244 281.814 119.308C287.289 116.954 298.081 113.407 302.04 112.236C300.258 107.907 297.107 102.601 297.107 102.601Z" fill="white"/>
<path d="M259.383 71.0181C255.818 73.4664 251.977 80.3094 251.977 80.3094C255.666 81.2666 259.305 82.4173 262.877 83.757L266.81 81.1436C268.633 79.9342 270.498 78.8174 272.381 77.8046C272.376 77.8001 265.308 72.865 259.383 71.0181Z" fill="white"/>
<path d="M293.26 202.071C282.089 206.071 274.533 206.093 259.836 202.071L275.614 226.985C275.614 226.985 277.482 227.616 278.882 227.616C280.282 227.616 282.056 226.985 282.056 226.985L293.26 202.071Z" fill="white"/>
<path d="M282.009 227.843C279.43 228.69 278.12 228.718 275.547 227.843L277.441 255.536C277.441 255.536 278.555 255.988 279.112 255.988C279.669 255.988 280.449 255.536 280.449 255.536L282.009 227.843Z" fill="white"/>
<path d="M73.1797 387.267C73.1797 387.347 73.1797 387.467 73.1797 387.627C73.1797 387.787 73.1597 388.027 73.1197 388.347C72.5397 388.467 72.1097 388.637 71.8297 388.857C71.5697 389.077 71.3497 389.467 71.1697 390.027L65.9797 406.107H64.8997L60.0097 392.697L54.6097 406.107H53.4997L48.0097 388.707C47.4297 388.487 46.8797 388.367 46.3597 388.347C46.3197 388.027 46.2997 387.787 46.2997 387.627C46.2997 387.467 46.2997 387.347 46.2997 387.267H53.3197C53.4197 387.587 53.4697 387.947 53.4697 388.347C52.5697 388.427 52.0197 388.557 51.8197 388.737C51.6197 388.917 51.5197 389.117 51.5197 389.337C51.5197 389.537 51.5597 389.757 51.6397 389.997L54.6397 399.717C54.8397 400.397 54.9697 401.037 55.0297 401.637H55.1197L60.4597 388.197H61.5397L65.7097 399.867C65.9297 400.487 66.0697 401.107 66.1297 401.727H66.1897L70.1197 388.797C69.4597 388.537 68.8897 388.387 68.4097 388.347C68.4497 387.947 68.5097 387.587 68.5897 387.267H73.1797ZM83.6572 396.957C83.6372 395.717 83.3772 394.807 82.8772 394.227C82.3972 393.647 81.7872 393.357 81.0472 393.357C80.3072 393.357 79.6072 393.677 78.9472 394.317C78.2872 394.937 77.8572 395.897 77.6572 397.197L80.8372 396.987L83.6572 396.957ZM77.5372 398.367V398.877C77.5372 400.697 77.9072 402.067 78.6472 402.987C79.3872 403.907 80.4372 404.367 81.7972 404.367C83.1772 404.367 84.6072 403.937 86.0872 403.077L86.4772 403.767C84.9172 405.467 83.0472 406.317 80.8672 406.317C79.2472 406.317 77.7772 405.717 76.4572 404.517C75.1372 403.297 74.4772 401.547 74.4772 399.267C74.4772 396.987 75.1772 395.187 76.5772 393.867C77.9772 392.527 79.4972 391.857 81.1372 391.857C82.7972 391.857 84.1272 392.347 85.1272 393.327C86.1272 394.287 86.6272 395.727 86.6272 397.647C86.5272 397.887 86.3972 398.127 86.2372 398.367H77.5372ZM118.743 396.417V404.367C119.443 404.627 120.133 404.767 120.813 404.787C120.813 404.847 120.813 404.967 120.813 405.147C120.813 405.307 120.783 405.567 120.723 405.927H114.033C114.013 405.827 114.003 405.697 114.003 405.537C114.003 405.357 114.033 405.107 114.093 404.787C114.753 404.707 115.213 404.567 115.473 404.367C115.733 404.147 115.863 403.777 115.863 403.257V396.717C115.863 395.777 115.643 395.077 115.203 394.617C114.783 394.137 114.203 393.897 113.463 393.897C111.883 393.897 110.693 394.877 109.893 396.837V404.397C110.453 404.617 111.093 404.747 111.813 404.787C111.813 404.847 111.813 404.967 111.813 405.147C111.813 405.307 111.783 405.567 111.723 405.927H105.153C105.133 405.807 105.123 405.657 105.123 405.477C105.123 405.277 105.153 405.047 105.213 404.787C105.873 404.707 106.333 404.567 106.593 404.367C106.853 404.147 106.983 403.777 106.983 403.257V396.717C106.983 395.777 106.763 395.077 106.323 394.617C105.903 394.137 105.323 393.897 104.583 393.897C102.983 393.897 101.803 394.877 101.043 396.837V404.397C101.603 404.617 102.243 404.747 102.963 404.787C102.963 404.847 102.963 404.967 102.963 405.147C102.963 405.307 102.933 405.567 102.873 405.927H96.0927C96.0727 405.807 96.0627 405.647 96.0627 405.447C96.0627 405.247 96.1027 405.027 96.1827 404.787C96.8827 404.707 97.3827 404.567 97.6827 404.367C97.9827 404.147 98.1327 403.777 98.1327 403.257V394.227C97.5527 394.207 97.1027 394.197 96.7827 394.197C96.4827 394.197 96.2427 394.197 96.0627 394.197C96.1027 393.757 96.1627 393.407 96.2427 393.147C97.6827 392.607 99.1827 392.237 100.743 392.037C100.903 392.977 100.993 393.917 101.013 394.857C102.033 392.857 103.583 391.857 105.663 391.857C106.683 391.857 107.563 392.137 108.303 392.697C109.043 393.257 109.523 394.057 109.743 395.097C110.223 394.077 110.883 393.287 111.723 392.727C112.563 392.147 113.553 391.857 114.693 391.857C115.833 391.857 116.793 392.257 117.573 393.057C118.353 393.837 118.743 394.957 118.743 396.417ZM125.791 402.267C125.791 402.927 125.971 403.437 126.331 403.797C126.711 404.157 127.211 404.337 127.831 404.337C128.771 404.337 129.571 403.997 130.231 403.317V398.847L128.461 399.327C126.681 399.807 125.791 400.787 125.791 402.267ZM132.811 406.317C132.211 406.317 131.681 406.167 131.221 405.867C130.761 405.567 130.461 405.147 130.321 404.607C129.361 405.747 128.221 406.317 126.901 406.317C125.601 406.317 124.581 405.957 123.841 405.237C123.101 404.517 122.731 403.607 122.731 402.507C122.731 401.387 123.091 400.487 123.811 399.807C124.551 399.107 125.681 398.597 127.201 398.277L130.231 397.617V396.417C130.231 394.797 129.441 393.987 127.861 393.987C126.701 393.987 125.461 394.227 124.141 394.707L123.571 393.867C125.131 392.527 126.931 391.857 128.971 391.857C130.311 391.857 131.331 392.247 132.031 393.027C132.751 393.787 133.111 394.857 133.111 396.237V402.807C133.111 403.867 133.431 404.397 134.071 404.397C134.211 404.397 134.581 404.337 135.181 404.217L135.421 404.787C134.621 405.807 133.751 406.317 132.811 406.317ZM143.627 404.787C143.627 404.847 143.627 404.967 143.627 405.147C143.627 405.307 143.597 405.567 143.537 405.927H136.757C136.737 405.807 136.727 405.647 136.727 405.447C136.727 405.247 136.767 405.027 136.847 404.787C137.547 404.707 138.047 404.567 138.347 404.367C138.647 404.147 138.797 403.777 138.797 403.257V386.637C138.597 386.617 138.317 386.607 137.957 386.607C137.617 386.607 137.207 386.617 136.727 386.637C136.767 386.197 136.827 385.837 136.907 385.557C138.407 384.957 140.007 384.587 141.707 384.447V399.207L147.227 393.807C146.447 393.647 145.777 393.427 145.217 393.147C145.217 392.787 145.267 392.477 145.367 392.217H151.667C151.667 392.737 151.637 393.117 151.577 393.357C150.337 393.357 149.297 393.777 148.457 394.617L145.247 397.707C145.667 397.927 146.087 398.337 146.507 398.937L149.447 402.987C149.927 403.687 150.367 404.157 150.767 404.397C151.187 404.617 151.737 404.747 152.417 404.787C152.417 405.227 152.367 405.607 152.267 405.927H148.097L143.837 400.017C143.637 399.757 143.477 399.587 143.357 399.507L141.707 401.127V404.397C142.267 404.617 142.907 404.747 143.627 404.787ZM162.993 396.957C162.973 395.717 162.713 394.807 162.213 394.227C161.733 393.647 161.123 393.357 160.383 393.357C159.643 393.357 158.943 393.677 158.283 394.317C157.623 394.937 157.193 395.897 156.993 397.197L160.173 396.987L162.993 396.957ZM156.873 398.367V398.877C156.873 400.697 157.243 402.067 157.983 402.987C158.723 403.907 159.773 404.367 161.133 404.367C162.513 404.367 163.943 403.937 165.423 403.077L165.813 403.767C164.253 405.467 162.383 406.317 160.203 406.317C158.583 406.317 157.113 405.717 155.793 404.517C154.473 403.297 153.813 401.547 153.813 399.267C153.813 396.987 154.513 395.187 155.913 393.867C157.313 392.527 158.833 391.857 160.473 391.857C162.133 391.857 163.463 392.347 164.463 393.327C165.463 394.287 165.963 395.727 165.963 397.647C165.863 397.887 165.733 398.127 165.573 398.367H156.873ZM188.509 394.767V403.857C189.309 403.937 189.939 403.977 190.399 403.977C190.419 404.177 190.429 404.367 190.429 404.547C190.429 404.727 190.429 404.877 190.429 404.997C189.089 405.597 187.599 405.957 185.959 406.077C185.799 405.197 185.699 404.227 185.659 403.167C184.499 405.247 182.949 406.287 181.009 406.287C179.789 406.287 178.779 405.887 177.979 405.087C177.179 404.267 176.779 403.117 176.779 401.637V394.137C176.539 394.117 176.269 394.107 175.969 394.107C175.689 394.107 175.379 394.117 175.039 394.137C175.039 393.777 175.089 393.427 175.189 393.087C176.749 392.467 178.239 392.097 179.659 391.977V401.337C179.659 402.257 179.879 402.967 180.319 403.467C180.759 403.967 181.349 404.217 182.089 404.217C183.549 404.217 184.729 403.227 185.629 401.247V395.277C185.629 394.217 185.289 393.507 184.609 393.147C184.629 392.907 184.699 392.697 184.819 392.517C185.719 392.137 186.739 391.947 187.879 391.947C188.119 391.947 188.369 391.957 188.629 391.977C188.549 392.697 188.509 393.627 188.509 394.767ZM206.279 396.417V404.367C206.979 404.627 207.669 404.767 208.349 404.787C208.349 405.247 208.309 405.627 208.229 405.927H201.539C201.519 405.807 201.509 405.657 201.509 405.477C201.509 405.277 201.539 405.047 201.599 404.787C202.259 404.707 202.719 404.567 202.979 404.367C203.239 404.147 203.369 403.777 203.369 403.257V396.717C203.369 395.777 203.149 395.077 202.709 394.617C202.289 394.137 201.709 393.897 200.969 393.897C199.369 393.897 198.189 394.877 197.429 396.837V404.397C197.989 404.617 198.629 404.747 199.349 404.787C199.349 404.847 199.349 404.967 199.349 405.147C199.349 405.307 199.319 405.567 199.259 405.927H192.479C192.459 405.807 192.449 405.647 192.449 405.447C192.449 405.247 192.489 405.027 192.569 404.787C193.269 404.707 193.769 404.567 194.069 404.367C194.369 404.147 194.519 403.777 194.519 403.257V394.227C193.939 394.207 193.489 394.197 193.169 394.197C192.869 394.197 192.629 394.197 192.449 394.197C192.489 393.757 192.549 393.407 192.629 393.147C194.069 392.607 195.569 392.237 197.129 392.037C197.289 392.977 197.379 393.917 197.399 394.857C198.419 392.857 199.969 391.857 202.049 391.857C203.289 391.857 204.299 392.257 205.079 393.057C205.879 393.837 206.279 394.957 206.279 396.417ZM215.193 387.867C215.193 388.387 215.003 388.837 214.623 389.217C214.263 389.597 213.813 389.787 213.273 389.787C212.753 389.787 212.303 389.597 211.923 389.217C211.563 388.837 211.383 388.387 211.383 387.867C211.383 387.327 211.563 386.877 211.923 386.517C212.303 386.137 212.753 385.947 213.273 385.947C213.813 385.947 214.263 386.137 214.623 386.517C215.003 386.877 215.193 387.327 215.193 387.867ZM216.693 404.787C216.693 404.847 216.693 404.967 216.693 405.147C216.693 405.307 216.663 405.567 216.603 405.927H209.823C209.803 405.807 209.793 405.647 209.793 405.447C209.793 405.247 209.833 405.027 209.913 404.787C210.613 404.707 211.113 404.567 211.413 404.367C211.713 404.147 211.863 403.777 211.863 403.257V394.257C211.523 394.217 211.173 394.197 210.813 394.197C210.453 394.197 210.113 394.207 209.793 394.227C209.833 393.807 209.893 393.447 209.973 393.147C211.433 392.607 213.033 392.227 214.773 392.007V404.397C215.333 404.617 215.973 404.747 216.693 404.787ZM223.591 404.877C224.431 404.877 225.111 404.687 225.631 404.307C226.151 403.907 226.411 403.427 226.411 402.867C226.411 402.307 226.181 401.827 225.721 401.427C225.261 401.007 224.701 400.647 224.041 400.347C223.381 400.027 222.711 399.687 222.031 399.327C221.371 398.967 220.811 398.497 220.351 397.917C219.891 397.317 219.661 396.627 219.661 395.847C219.661 394.527 220.131 393.537 221.071 392.877C222.011 392.197 223.131 391.857 224.431 391.857C225.751 391.857 227.031 392.057 228.271 392.457C228.291 392.777 228.301 393.237 228.301 393.837C228.301 394.417 228.241 395.147 228.121 396.027C227.821 396.027 227.511 395.987 227.191 395.907C227.211 395.707 227.221 395.527 227.221 395.367C227.221 393.907 226.391 393.177 224.731 393.177C224.031 393.177 223.451 393.367 222.991 393.747C222.551 394.107 222.331 394.577 222.331 395.157C222.331 395.737 222.561 396.237 223.021 396.657C223.501 397.057 224.081 397.407 224.761 397.707C225.441 398.007 226.121 398.327 226.801 398.667C227.481 399.007 228.051 399.477 228.511 400.077C228.991 400.657 229.231 401.337 229.231 402.117C229.231 403.377 228.691 404.397 227.611 405.177C226.551 405.937 225.231 406.317 223.651 406.317C222.091 406.317 220.651 406.107 219.331 405.687C219.291 405.247 219.271 404.717 219.271 404.097C219.271 403.457 219.331 402.717 219.451 401.877C219.691 401.877 220.011 401.897 220.411 401.937C220.411 402.057 220.411 402.167 220.411 402.267C220.411 404.007 221.471 404.877 223.591 404.877ZM240.63 396.957C240.61 395.717 240.35 394.807 239.85 394.227C239.37 393.647 238.76 393.357 238.02 393.357C237.28 393.357 236.58 393.677 235.92 394.317C235.26 394.937 234.83 395.897 234.63 397.197L237.81 396.987L240.63 396.957ZM234.51 398.367V398.877C234.51 400.697 234.88 402.067 235.62 402.987C236.36 403.907 237.41 404.367 238.77 404.367C240.15 404.367 241.58 403.937 243.06 403.077L243.45 403.767C241.89 405.467 240.02 406.317 237.84 406.317C236.22 406.317 234.75 405.717 233.43 404.517C232.11 403.297 231.45 401.547 231.45 399.267C231.45 396.987 232.15 395.187 233.55 393.867C234.95 392.527 236.47 391.857 238.11 391.857C239.77 391.857 241.1 392.347 242.1 393.327C243.1 394.287 243.6 395.727 243.6 397.647C243.5 397.887 243.37 398.127 243.21 398.367H234.51ZM259.965 404.787C260.045 405.087 260.085 405.327 260.085 405.507C260.085 405.687 260.075 405.827 260.055 405.927H253.395C253.335 405.707 253.305 405.327 253.305 404.787C254.125 404.747 254.705 404.667 255.045 404.547L251.715 400.317L248.295 404.547C248.755 404.667 249.305 404.747 249.945 404.787C249.965 404.987 249.975 405.187 249.975 405.387C249.975 405.567 249.965 405.747 249.945 405.927H244.725C244.745 405.527 244.805 405.147 244.905 404.787C245.825 404.747 246.685 404.277 247.485 403.377L250.905 399.267L247.575 395.007C246.835 394.007 245.925 393.457 244.845 393.357C244.745 393.097 244.695 392.877 244.695 392.697C244.695 392.497 244.705 392.347 244.725 392.247H251.535C251.595 392.447 251.625 392.817 251.625 393.357C250.805 393.397 250.245 393.467 249.945 393.567L253.125 397.707L256.425 393.627C256.065 393.487 255.535 393.397 254.835 393.357C254.795 393.177 254.775 392.997 254.775 392.817C254.775 392.617 254.795 392.427 254.835 392.247H260.025C260.025 392.327 260.025 392.467 260.025 392.667C260.025 392.867 259.955 393.097 259.815 393.357C258.895 393.397 258.055 393.877 257.295 394.797L253.965 398.757L257.205 402.957C257.745 403.637 258.185 404.107 258.525 404.367C258.885 404.607 259.365 404.747 259.965 404.787ZM280.355 403.977C278.755 405.537 277.035 406.317 275.195 406.317C273.355 406.317 271.815 405.687 270.575 404.427C269.335 403.167 268.715 401.447 268.715 399.267C268.715 397.067 269.395 395.287 270.755 393.927C272.135 392.547 273.855 391.857 275.915 391.857C277.455 391.857 278.805 392.217 279.965 392.937C279.925 394.197 279.805 395.387 279.605 396.507C279.245 396.467 278.995 396.427 278.855 396.387C278.835 395.467 278.535 394.737 277.955 394.197C277.375 393.657 276.655 393.387 275.795 393.387C274.575 393.387 273.605 393.877 272.885 394.857C272.165 395.837 271.805 397.217 271.805 398.997C271.805 400.777 272.165 402.137 272.885 403.077C273.625 404.017 274.625 404.487 275.885 404.487C277.145 404.487 278.475 404.107 279.875 403.347L280.355 403.977ZM288.91 404.787C288.91 404.847 288.91 404.967 288.91 405.147C288.91 405.307 288.88 405.567 288.82 405.927H282.04C282.02 405.807 282.01 405.647 282.01 405.447C282.01 405.247 282.05 405.027 282.13 404.787C282.83 404.707 283.33 404.567 283.63 404.367C283.93 404.147 284.08 403.777 284.08 403.257V386.637C283.88 386.617 283.6 386.607 283.24 386.607C282.9 386.607 282.49 386.617 282.01 386.637C282.05 386.197 282.11 385.837 282.19 385.557C283.69 384.957 285.29 384.587 286.99 384.447V404.397C287.55 404.617 288.19 404.747 288.91 404.787ZM297.998 404.787C300.298 404.787 301.448 403.037 301.448 399.537C301.448 397.457 301.118 395.897 300.458 394.857C299.818 393.797 298.898 393.267 297.698 393.267C295.358 393.267 294.188 395.117 294.188 398.817C294.188 398.897 294.188 398.987 294.188 399.087C294.308 402.887 295.578 404.787 297.998 404.787ZM297.878 391.857C299.898 391.857 301.508 392.507 302.708 393.807C303.928 395.087 304.538 396.837 304.538 399.057C304.538 401.277 303.918 403.037 302.678 404.337C301.438 405.637 299.798 406.287 297.758 406.287C295.738 406.287 294.128 405.647 292.928 404.367C291.728 403.067 291.128 401.307 291.128 399.087C291.128 396.867 291.748 395.107 292.988 393.807C294.228 392.507 295.858 391.857 297.878 391.857ZM311.902 406.287C310.862 406.287 310.002 405.967 309.322 405.327C308.662 404.687 308.332 403.737 308.332 402.477V393.897C307.772 393.817 307.132 393.777 306.412 393.777C306.412 393.477 306.432 393.187 306.472 392.907C306.972 392.707 307.592 392.537 308.332 392.397L310.642 388.377L311.242 388.557V392.367C312.742 392.327 314.082 392.247 315.262 392.127C315.262 392.807 315.182 393.377 315.022 393.837H311.242L311.272 402.237C311.272 403.537 311.792 404.187 312.832 404.187C313.732 404.187 314.592 403.857 315.412 403.197L315.892 403.767C314.752 405.447 313.422 406.287 311.902 406.287ZM331.231 396.417V404.367C331.931 404.627 332.621 404.767 333.301 404.787C333.301 405.247 333.261 405.627 333.181 405.927H326.491C326.471 405.807 326.461 405.657 326.461 405.477C326.461 405.277 326.491 405.047 326.551 404.787C327.211 404.707 327.671 404.567 327.931 404.367C328.191 404.147 328.321 403.777 328.321 403.257V396.717C328.321 395.777 328.101 395.077 327.661 394.617C327.241 394.137 326.661 393.897 325.921 393.897C324.321 393.897 323.141 394.877 322.381 396.837V404.397C322.941 404.617 323.581 404.747 324.301 404.787C324.301 404.847 324.301 404.967 324.301 405.147C324.301 405.307 324.271 405.567 324.211 405.927H317.431C317.411 405.807 317.401 405.647 317.401 405.447C317.401 405.247 317.441 405.027 317.521 404.787C318.221 404.707 318.721 404.567 319.021 404.367C319.321 404.147 319.471 403.777 319.471 403.257V386.727C319.131 386.687 318.781 386.667 318.421 386.667C318.061 386.667 317.721 386.677 317.401 386.697C317.441 386.237 317.501 385.877 317.581 385.617C319.121 385.037 320.721 384.667 322.381 384.507V394.797C323.401 392.837 324.941 391.857 327.001 391.857C328.241 391.857 329.251 392.257 330.031 393.057C330.831 393.837 331.231 394.957 331.231 396.417ZM344.341 396.957C344.321 395.717 344.061 394.807 343.561 394.227C343.081 393.647 342.471 393.357 341.731 393.357C340.991 393.357 340.291 393.677 339.631 394.317C338.971 394.937 338.541 395.897 338.341 397.197L341.521 396.987L344.341 396.957ZM338.221 398.367V398.877C338.221 400.697 338.591 402.067 339.331 402.987C340.071 403.907 341.121 404.367 342.481 404.367C343.861 404.367 345.291 403.937 346.771 403.077L347.161 403.767C345.601 405.467 343.731 406.317 341.551 406.317C339.931 406.317 338.461 405.717 337.141 404.517C335.821 403.297 335.161 401.547 335.161 399.267C335.161 396.987 335.861 395.187 337.261 393.867C338.661 392.527 340.181 391.857 341.821 391.857C343.481 391.857 344.811 392.347 345.811 393.327C346.811 394.287 347.311 395.727 347.311 397.647C347.211 397.887 347.081 398.127 346.921 398.367H338.221ZM354.196 404.877C355.036 404.877 355.716 404.687 356.236 404.307C356.756 403.907 357.016 403.427 357.016 402.867C357.016 402.307 356.786 401.827 356.326 401.427C355.866 401.007 355.306 400.647 354.646 400.347C353.986 400.027 353.316 399.687 352.636 399.327C351.976 398.967 351.416 398.497 350.956 397.917C350.496 397.317 350.266 396.627 350.266 395.847C350.266 394.527 350.736 393.537 351.676 392.877C352.616 392.197 353.736 391.857 355.036 391.857C356.356 391.857 357.636 392.057 358.876 392.457C358.896 392.777 358.906 393.237 358.906 393.837C358.906 394.417 358.846 395.147 358.726 396.027C358.426 396.027 358.116 395.987 357.796 395.907C357.816 395.707 357.826 395.527 357.826 395.367C357.826 393.907 356.996 393.177 355.336 393.177C354.636 393.177 354.056 393.367 353.596 393.747C353.156 394.107 352.936 394.577 352.936 395.157C352.936 395.737 353.166 396.237 353.626 396.657C354.106 397.057 354.686 397.407 355.366 397.707C356.046 398.007 356.726 398.327 357.406 398.667C358.086 399.007 358.656 399.477 359.116 400.077C359.596 400.657 359.836 401.337 359.836 402.117C359.836 403.377 359.296 404.397 358.216 405.177C357.156 405.937 355.836 406.317 354.256 406.317C352.696 406.317 351.256 406.107 349.936 405.687C349.896 405.247 349.876 404.717 349.876 404.097C349.876 403.457 349.936 402.717 350.056 401.877C350.296 401.877 350.616 401.897 351.016 401.937C351.016 402.057 351.016 402.167 351.016 402.267C351.016 404.007 352.076 404.877 354.196 404.877ZM376.425 404.787C378.725 404.787 379.875 403.037 379.875 399.537C379.875 397.457 379.545 395.897 378.885 394.857C378.245 393.797 377.325 393.267 376.125 393.267C373.785 393.267 372.615 395.117 372.615 398.817C372.615 398.897 372.615 398.987 372.615 399.087C372.735 402.887 374.005 404.787 376.425 404.787ZM376.305 391.857C378.325 391.857 379.935 392.507 381.135 393.807C382.355 395.087 382.965 396.837 382.965 399.057C382.965 401.277 382.345 403.037 381.105 404.337C379.865 405.637 378.225 406.287 376.185 406.287C374.165 406.287 372.555 405.647 371.355 404.367C370.155 403.067 369.555 401.307 369.555 399.087C369.555 396.867 370.175 395.107 371.415 393.807C372.655 392.507 374.285 391.857 376.305 391.857ZM386.94 390.537C386.94 388.597 387.43 387.127 388.41 386.127C389.39 385.107 390.54 384.597 391.86 384.597C393.2 384.597 394.36 385.047 395.34 385.947C395.28 386.887 395.13 387.847 394.89 388.827C394.49 388.827 394.13 388.787 393.81 388.707C393.81 388.567 393.81 388.437 393.81 388.317C393.81 387.657 393.66 387.127 393.36 386.727C393.08 386.307 392.64 386.097 392.04 386.097C390.56 386.097 389.82 387.147 389.82 389.247V392.367C391.32 392.327 392.67 392.247 393.87 392.127C393.87 392.807 393.79 393.377 393.63 393.837H389.82V404.187C390.68 404.527 391.67 404.727 392.79 404.787C392.81 404.907 392.82 405.067 392.82 405.267C392.82 405.467 392.78 405.687 392.7 405.927H384.9C384.88 405.807 384.87 405.647 384.87 405.447C384.87 405.247 384.91 405.027 384.99 404.787C385.69 404.687 386.19 404.537 386.49 404.337C386.79 404.117 386.94 403.747 386.94 403.227V393.897C386.4 393.817 385.78 393.777 385.08 393.777C385.08 393.477 385.1 393.187 385.14 392.907C385.74 392.647 386.34 392.477 386.94 392.397V390.537ZM405.459 402.267C405.459 402.927 405.639 403.437 405.999 403.797C406.379 404.157 406.879 404.337 407.499 404.337C408.439 404.337 409.239 403.997 409.899 403.317V398.847L408.129 399.327C406.349 399.807 405.459 400.787 405.459 402.267ZM412.479 406.317C411.879 406.317 411.349 406.167 410.889 405.867C410.429 405.567 410.129 405.147 409.989 404.607C409.029 405.747 407.889 406.317 406.569 406.317C405.269 406.317 404.249 405.957 403.509 405.237C402.769 404.517 402.399 403.607 402.399 402.507C402.399 401.387 402.759 400.487 403.479 399.807C404.219 399.107 405.349 398.597 406.869 398.277L409.899 397.617V396.417C409.899 394.797 409.109 393.987 407.529 393.987C406.369 393.987 405.129 394.227 403.809 394.707L403.239 393.867C404.799 392.527 406.599 391.857 408.639 391.857C409.979 391.857 410.999 392.247 411.699 393.027C412.419 393.787 412.779 394.857 412.779 396.237V402.807C412.779 403.867 413.099 404.397 413.739 404.397C413.879 404.397 414.249 404.337 414.849 404.217L415.089 404.787C414.289 405.807 413.419 406.317 412.479 406.317ZM423.295 404.787C423.295 404.847 423.295 404.967 423.295 405.147C423.295 405.307 423.265 405.567 423.205 405.927H416.425C416.405 405.807 416.395 405.647 416.395 405.447C416.395 405.247 416.435 405.027 416.515 404.787C417.215 404.707 417.715 404.567 418.015 404.367C418.315 404.147 418.465 403.777 418.465 403.257V386.637C418.265 386.617 417.985 386.607 417.625 386.607C417.285 386.607 416.875 386.617 416.395 386.637C416.435 386.197 416.495 385.837 416.575 385.557C418.075 384.957 419.675 384.587 421.375 384.447V404.397C421.935 404.617 422.575 404.747 423.295 404.787ZM432.142 404.787C432.142 404.847 432.142 404.967 432.142 405.147C432.142 405.307 432.112 405.567 432.052 405.927H425.272C425.252 405.807 425.242 405.647 425.242 405.447C425.242 405.247 425.282 405.027 425.362 404.787C426.062 404.707 426.562 404.567 426.862 404.367C427.162 404.147 427.312 403.777 427.312 403.257V386.637C427.112 386.617 426.832 386.607 426.472 386.607C426.132 386.607 425.722 386.617 425.242 386.637C425.282 386.197 425.342 385.837 425.422 385.557C426.922 384.957 428.522 384.587 430.222 384.447V404.397C430.782 404.617 431.422 404.747 432.142 404.787ZM448.49 404.787C448.49 404.847 448.49 404.967 448.49 405.147C448.49 405.307 448.46 405.567 448.4 405.927H441.62C441.6 405.807 441.59 405.647 441.59 405.447C441.59 405.247 441.63 405.027 441.71 404.787C442.41 404.707 442.91 404.567 443.21 404.367C443.51 404.147 443.66 403.777 443.66 403.257V386.637C443.46 386.617 443.18 386.607 442.82 386.607C442.48 386.607 442.07 386.617 441.59 386.637C441.63 386.197 441.69 385.837 441.77 385.557C443.27 384.957 444.87 384.587 446.57 384.447V399.207L452.09 393.807C451.31 393.647 450.64 393.427 450.08 393.147C450.08 392.787 450.13 392.477 450.23 392.217H456.53C456.53 392.737 456.5 393.117 456.44 393.357C455.2 393.357 454.16 393.777 453.32 394.617L450.11 397.707C450.53 397.927 450.95 398.337 451.37 398.937L454.31 402.987C454.79 403.687 455.23 404.157 455.63 404.397C456.05 404.617 456.6 404.747 457.28 404.787C457.28 405.227 457.23 405.607 457.13 405.927H452.96L448.7 400.017C448.5 399.757 448.34 399.587 448.22 399.507L446.57 401.127V404.397C447.13 404.617 447.77 404.747 448.49 404.787ZM463.806 387.867C463.806 388.387 463.616 388.837 463.236 389.217C462.876 389.597 462.426 389.787 461.886 389.787C461.366 389.787 460.916 389.597 460.536 389.217C460.176 388.837 459.996 388.387 459.996 387.867C459.996 387.327 460.176 386.877 460.536 386.517C460.916 386.137 461.366 385.947 461.886 385.947C462.426 385.947 462.876 386.137 463.236 386.517C463.616 386.877 463.806 387.327 463.806 387.867ZM465.306 404.787C465.306 404.847 465.306 404.967 465.306 405.147C465.306 405.307 465.276 405.567 465.216 405.927H458.436C458.416 405.807 458.406 405.647 458.406 405.447C458.406 405.247 458.446 405.027 458.526 404.787C459.226 404.707 459.726 404.567 460.026 404.367C460.326 404.147 460.476 403.777 460.476 403.257V394.257C460.136 394.217 459.786 394.197 459.426 394.197C459.066 394.197 458.726 394.207 458.406 394.227C458.446 393.807 458.506 393.447 458.586 393.147C460.046 392.607 461.646 392.227 463.386 392.007V404.397C463.946 404.617 464.586 404.747 465.306 404.787ZM481.084 396.417V404.367C481.784 404.627 482.474 404.767 483.154 404.787C483.154 405.247 483.114 405.627 483.034 405.927H476.344C476.324 405.807 476.314 405.657 476.314 405.477C476.314 405.277 476.344 405.047 476.404 404.787C477.064 404.707 477.524 404.567 477.784 404.367C478.044 404.147 478.174 403.777 478.174 403.257V396.717C478.174 395.777 477.954 395.077 477.514 394.617C477.094 394.137 476.514 393.897 475.774 393.897C474.174 393.897 472.994 394.877 472.234 396.837V404.397C472.794 404.617 473.434 404.747 474.154 404.787C474.154 404.847 474.154 404.967 474.154 405.147C474.154 405.307 474.124 405.567 474.064 405.927H467.284C467.264 405.807 467.254 405.647 467.254 405.447C467.254 405.247 467.294 405.027 467.374 404.787C468.074 404.707 468.574 404.567 468.874 404.367C469.174 404.147 469.324 403.777 469.324 403.257V394.227C468.744 394.207 468.294 394.197 467.974 394.197C467.674 394.197 467.434 394.197 467.254 394.197C467.294 393.757 467.354 393.407 467.434 393.147C468.874 392.607 470.374 392.237 471.934 392.037C472.094 392.977 472.184 393.917 472.204 394.857C473.224 392.857 474.774 391.857 476.854 391.857C478.094 391.857 479.104 392.257 479.884 393.057C480.684 393.837 481.084 394.957 481.084 396.417ZM492.398 393.567C490.938 393.567 489.828 393.987 489.068 394.827C488.328 395.667 487.958 397.047 487.958 398.967C487.958 402.567 489.168 404.367 491.588 404.367C492.608 404.367 493.478 404.077 494.198 403.497V393.747C493.658 393.627 493.058 393.567 492.398 393.567ZM496.778 406.317C495.598 406.317 494.798 405.807 494.378 404.787C493.278 405.787 491.978 406.287 490.478 406.287C488.998 406.287 487.698 405.687 486.578 404.487C485.458 403.287 484.898 401.557 484.898 399.297C484.898 397.017 485.678 395.207 487.238 393.867C488.798 392.527 490.758 391.857 493.118 391.857C493.358 391.857 493.718 391.877 494.198 391.917V386.637C493.998 386.617 493.718 386.607 493.358 386.607C493.018 386.607 492.608 386.617 492.128 386.637C492.168 386.197 492.228 385.837 492.308 385.557C493.848 384.957 495.448 384.587 497.108 384.447V402.807C497.108 403.867 497.408 404.397 498.008 404.397C498.148 404.397 498.518 404.337 499.118 404.217L499.418 404.787C498.558 405.807 497.678 406.317 496.778 406.317ZM506.071 404.877C506.911 404.877 507.591 404.687 508.111 404.307C508.631 403.907 508.891 403.427 508.891 402.867C508.891 402.307 508.661 401.827 508.201 401.427C507.741 401.007 507.181 400.647 506.521 400.347C505.861 400.027 505.191 399.687 504.511 399.327C503.851 398.967 503.291 398.497 502.831 397.917C502.371 397.317 502.141 396.627 502.141 395.847C502.141 394.527 502.611 393.537 503.551 392.877C504.491 392.197 505.611 391.857 506.911 391.857C508.231 391.857 509.511 392.057 510.751 392.457C510.771 392.777 510.781 393.237 510.781 393.837C510.781 394.417 510.721 395.147 510.601 396.027C510.301 396.027 509.991 395.987 509.671 395.907C509.691 395.707 509.701 395.527 509.701 395.367C509.701 393.907 508.871 393.177 507.211 393.177C506.511 393.177 505.931 393.367 505.471 393.747C505.031 394.107 504.811 394.577 504.811 395.157C504.811 395.737 505.041 396.237 505.501 396.657C505.981 397.057 506.561 397.407 507.241 397.707C507.921 398.007 508.601 398.327 509.281 398.667C509.961 399.007 510.531 399.477 510.991 400.077C511.471 400.657 511.711 401.337 511.711 402.117C511.711 403.377 511.171 404.397 510.091 405.177C509.031 405.937 507.711 406.317 506.131 406.317C504.571 406.317 503.131 406.107 501.811 405.687C501.771 405.247 501.751 404.717 501.751 404.097C501.751 403.457 501.811 402.717 501.931 401.877C502.171 401.877 502.491 401.897 502.891 401.937C502.891 402.057 502.891 402.167 502.891 402.267C502.891 404.007 503.951 404.877 506.071 404.877Z" fill="#FAFAFA"/>
</svg>
