<svg width="294" height="88" viewBox="0 0 294 88" fill="none" xmlns="http://www.w3.org/2000/svg">
<rect width="294" height="88" fill="#3C514D"/>
<path d="M98.81 27.75V25.878H102.554V39H100.484V27.75H98.81ZM106.561 36.264V34.716L112.609 26.04H115.093V34.482H116.767V36.264H115.093V39H113.077V36.264H106.561ZM113.167 28.128L108.919 34.482H113.167V28.128ZM130.379 26.49C131.711 26.49 132.875 26.748 133.871 27.264C134.879 27.768 135.653 28.5 136.193 29.46C136.745 30.408 137.021 31.518 137.021 32.79C137.021 34.062 136.745 35.166 136.193 36.102C135.653 37.038 134.879 37.758 133.871 38.262C132.875 38.754 131.711 39 130.379 39H126.293V26.49H130.379ZM130.379 37.326C131.843 37.326 132.965 36.93 133.745 36.138C134.525 35.346 134.915 34.23 134.915 32.79C134.915 31.338 134.525 30.204 133.745 29.388C132.965 28.572 131.843 28.164 130.379 28.164H128.345V37.326H130.379ZM148.037 36.444H142.799L141.899 39H139.757L144.239 26.472H146.615L151.097 39H148.937L148.037 36.444ZM147.461 34.77L145.427 28.956L143.375 34.77H147.461ZM163.756 26.49L159.616 34.464V39H157.564V34.464L153.406 26.49H155.692L158.59 32.628L161.488 26.49H163.756ZM170.946 39.126C170.106 39.126 169.35 38.982 168.678 38.694C168.006 38.394 167.478 37.974 167.094 37.434C166.71 36.894 166.518 36.264 166.518 35.544H168.714C168.762 36.084 168.972 36.528 169.344 36.876C169.728 37.224 170.262 37.398 170.946 37.398C171.654 37.398 172.206 37.23 172.602 36.894C172.998 36.546 173.196 36.102 173.196 35.562C173.196 35.142 173.07 34.8 172.818 34.536C172.578 34.272 172.272 34.068 171.9 33.924C171.54 33.78 171.036 33.624 170.388 33.456C169.572 33.24 168.906 33.024 168.39 32.808C167.886 32.58 167.454 32.232 167.094 31.764C166.734 31.296 166.554 30.672 166.554 29.892C166.554 29.172 166.734 28.542 167.094 28.002C167.454 27.462 167.958 27.048 168.606 26.76C169.254 26.472 170.004 26.328 170.856 26.328C172.068 26.328 173.058 26.634 173.826 27.246C174.606 27.846 175.038 28.674 175.122 29.73H172.854C172.818 29.274 172.602 28.884 172.206 28.56C171.81 28.236 171.288 28.074 170.64 28.074C170.052 28.074 169.572 28.224 169.2 28.524C168.828 28.824 168.642 29.256 168.642 29.82C168.642 30.204 168.756 30.522 168.984 30.774C169.224 31.014 169.524 31.206 169.884 31.35C170.244 31.494 170.736 31.65 171.36 31.818C172.188 32.046 172.86 32.274 173.376 32.502C173.904 32.73 174.348 33.084 174.708 33.564C175.08 34.032 175.266 34.662 175.266 35.454C175.266 36.09 175.092 36.69 174.744 37.254C174.408 37.818 173.91 38.274 173.25 38.622C172.602 38.958 171.834 39.126 170.946 39.126ZM191.741 39L188.861 33.996H187.295V39H185.243V26.49H189.563C190.523 26.49 191.333 26.658 191.993 26.994C192.665 27.33 193.163 27.78 193.487 28.344C193.823 28.908 193.991 29.538 193.991 30.234C193.991 31.05 193.751 31.794 193.271 32.466C192.803 33.126 192.077 33.576 191.093 33.816L194.189 39H191.741ZM187.295 32.358H189.563C190.331 32.358 190.907 32.166 191.291 31.782C191.687 31.398 191.885 30.882 191.885 30.234C191.885 29.586 191.693 29.082 191.309 28.722C190.925 28.35 190.343 28.164 189.563 28.164H187.295V32.358ZM200.108 28.146V31.818H204.428V33.492H200.108V37.326H204.968V39H198.056V26.472H204.968V28.146H200.108ZM217.018 26.49V28.164H213.688V39H211.636V28.164H208.288V26.49H217.018ZM222.57 26.49V34.464C222.57 35.412 222.816 36.126 223.308 36.606C223.812 37.086 224.508 37.326 225.396 37.326C226.296 37.326 226.992 37.086 227.484 36.606C227.988 36.126 228.24 35.412 228.24 34.464V26.49H230.292V34.428C230.292 35.448 230.07 36.312 229.626 37.02C229.182 37.728 228.588 38.256 227.844 38.604C227.1 38.952 226.278 39.126 225.378 39.126C224.478 39.126 223.656 38.952 222.912 38.604C222.18 38.256 221.598 37.728 221.166 37.02C220.734 36.312 220.518 35.448 220.518 34.428V26.49H222.57ZM240.901 39L238.021 33.996H236.455V39H234.403V26.49H238.723C239.683 26.49 240.493 26.658 241.153 26.994C241.825 27.33 242.323 27.78 242.647 28.344C242.983 28.908 243.151 29.538 243.151 30.234C243.151 31.05 242.911 31.794 242.431 32.466C241.963 33.126 241.237 33.576 240.253 33.816L243.349 39H240.901ZM236.455 32.358H238.723C239.491 32.358 240.067 32.166 240.451 31.782C240.847 31.398 241.045 30.882 241.045 30.234C241.045 29.586 240.853 29.082 240.469 28.722C240.085 28.35 239.503 28.164 238.723 28.164H236.455V32.358ZM257.494 39H255.442L249.268 29.658V39H247.216V26.472H249.268L255.442 35.796V26.472H257.494V39Z" fill="white"/>
<path d="M109.488 55.4C109.488 56.2427 109.355 57.016 109.088 57.72C108.832 58.4133 108.464 59.0213 107.984 59.544C107.504 60.056 106.933 60.456 106.272 60.744C105.621 61.0213 104.907 61.16 104.128 61.16C103.349 61.16 102.629 61.0213 101.968 60.744C101.317 60.456 100.752 60.056 100.272 59.544C99.792 59.0213 99.4187 58.4133 99.152 57.72C98.896 57.016 98.768 56.2427 98.768 55.4C98.768 54.5573 98.896 53.7893 99.152 53.096C99.4187 52.392 99.792 51.784 100.272 51.272C100.752 50.7493 101.317 50.3493 101.968 50.072C102.629 49.784 103.349 49.64 104.128 49.64C104.907 49.64 105.621 49.784 106.272 50.072C106.933 50.3493 107.504 50.7493 107.984 51.272C108.464 51.784 108.832 52.392 109.088 53.096C109.355 53.7893 109.488 54.5573 109.488 55.4ZM108.464 55.4C108.464 54.4507 108.277 53.6187 107.904 52.904C107.541 52.1787 107.035 51.6133 106.384 51.208C105.733 50.8027 104.981 50.6 104.128 50.6C103.285 50.6 102.533 50.8027 101.872 51.208C101.221 51.6133 100.709 52.1787 100.336 52.904C99.9733 53.6187 99.792 54.4507 99.792 55.4C99.792 56.3493 99.9733 57.1867 100.336 57.912C100.709 58.6267 101.221 59.1867 101.872 59.592C102.533 59.9973 103.285 60.2 104.128 60.2C104.981 60.2 105.733 59.9973 106.384 59.592C107.035 59.1867 107.541 58.6267 107.904 57.912C108.277 57.1867 108.464 56.3493 108.464 55.4ZM115.37 52.632C116.074 52.632 116.634 52.776 117.05 53.064C117.477 53.3413 117.781 53.7253 117.962 54.216C118.154 54.696 118.25 55.2293 118.25 55.816V60.52C118.25 60.648 118.202 60.76 118.106 60.856C118.01 60.952 117.898 61 117.77 61C117.621 61 117.503 60.952 117.418 60.856C117.333 60.76 117.29 60.648 117.29 60.52V55.864C117.29 55.4373 117.221 55.048 117.082 54.696C116.943 54.344 116.714 54.0613 116.394 53.848C116.085 53.6347 115.674 53.528 115.162 53.528C114.703 53.528 114.266 53.6347 113.85 53.848C113.445 54.0613 113.114 54.344 112.858 54.696C112.602 55.048 112.474 55.4373 112.474 55.864V60.52C112.474 60.648 112.426 60.76 112.33 60.856C112.234 60.952 112.122 61 111.994 61C111.845 61 111.727 60.952 111.642 60.856C111.557 60.76 111.514 60.648 111.514 60.52V53.352C111.514 53.224 111.557 53.112 111.642 53.016C111.738 52.92 111.855 52.872 111.994 52.872C112.133 52.872 112.245 52.92 112.33 53.016C112.426 53.112 112.474 53.224 112.474 53.352V54.696L112.106 55.272C112.127 54.9307 112.234 54.6053 112.426 54.296C112.629 53.976 112.885 53.6933 113.194 53.448C113.503 53.192 113.845 52.9947 114.218 52.856C114.602 52.7067 114.986 52.632 115.37 52.632ZM128.547 52.632C129.027 52.632 129.47 52.7173 129.875 52.888C130.28 53.048 130.632 53.2613 130.931 53.528C131.24 53.784 131.48 54.0613 131.651 54.36C131.822 54.648 131.907 54.9253 131.907 55.192L131.635 54.808V53.32C131.635 53.1813 131.678 53.064 131.763 52.968C131.859 52.872 131.976 52.824 132.115 52.824C132.264 52.824 132.382 52.872 132.467 52.968C132.552 53.064 132.595 53.1813 132.595 53.32V60.248C132.595 61.1013 132.419 61.8213 132.067 62.408C131.715 62.9947 131.235 63.4373 130.627 63.736C130.03 64.0453 129.347 64.2 128.579 64.2C128.206 64.2 127.811 64.152 127.395 64.056C126.99 63.96 126.638 63.8373 126.339 63.688C126.051 63.5387 125.891 63.384 125.859 63.224C125.774 63.128 125.731 63.032 125.731 62.936C125.742 62.8507 125.79 62.776 125.875 62.712C125.982 62.6373 126.094 62.6267 126.211 62.68C126.328 62.744 126.504 62.824 126.739 62.92C126.846 62.952 126.99 63 127.171 63.064C127.352 63.128 127.566 63.1813 127.811 63.224C128.067 63.2773 128.334 63.304 128.611 63.304C129.571 63.304 130.312 63.0267 130.835 62.472C131.368 61.928 131.635 61.208 131.635 60.312V58.776L131.811 58.824C131.715 59.208 131.555 59.544 131.331 59.832C131.118 60.12 130.862 60.3653 130.563 60.568C130.264 60.76 129.939 60.904 129.587 61C129.246 61.1067 128.904 61.16 128.563 61.16C127.827 61.16 127.166 60.9733 126.579 60.6C125.992 60.2267 125.523 59.72 125.171 59.08C124.83 58.44 124.659 57.7093 124.659 56.888C124.659 56.0773 124.83 55.352 125.171 54.712C125.523 54.0613 125.987 53.5547 126.563 53.192C127.15 52.8187 127.811 52.632 128.547 52.632ZM128.659 53.528C128.072 53.528 127.544 53.6773 127.075 53.976C126.616 54.264 126.254 54.664 125.987 55.176C125.731 55.6773 125.603 56.248 125.603 56.888C125.603 57.528 125.731 58.104 125.987 58.616C126.254 59.128 126.616 59.5333 127.075 59.832C127.544 60.12 128.072 60.264 128.659 60.264C129.246 60.264 129.768 60.12 130.227 59.832C130.686 59.544 131.048 59.1493 131.315 58.648C131.582 58.136 131.715 57.5493 131.715 56.888C131.715 56.2267 131.582 55.6453 131.315 55.144C131.048 54.632 130.686 54.2373 130.227 53.96C129.768 53.672 129.246 53.528 128.659 53.528ZM142.427 56.904C142.427 57.7147 142.251 58.4453 141.899 59.096C141.547 59.736 141.067 60.2427 140.459 60.616C139.851 60.9787 139.158 61.16 138.379 61.16C137.622 61.16 136.934 60.9787 136.315 60.616C135.707 60.2427 135.222 59.736 134.859 59.096C134.507 58.4453 134.331 57.7147 134.331 56.904C134.331 56.0827 134.507 55.352 134.859 54.712C135.222 54.072 135.707 53.5653 136.315 53.192C136.934 52.8187 137.622 52.632 138.379 52.632C139.158 52.632 139.851 52.8187 140.459 53.192C141.067 53.5653 141.547 54.072 141.899 54.712C142.251 55.352 142.427 56.0827 142.427 56.904ZM141.467 56.904C141.467 56.2533 141.334 55.6773 141.067 55.176C140.8 54.664 140.432 54.264 139.963 53.976C139.504 53.6773 138.976 53.528 138.379 53.528C137.803 53.528 137.28 53.6773 136.811 53.976C136.342 54.264 135.968 54.664 135.691 55.176C135.424 55.6773 135.291 56.2533 135.291 56.904C135.291 57.5547 135.424 58.1307 135.691 58.632C135.968 59.1333 136.342 59.5333 136.811 59.832C137.28 60.12 137.803 60.264 138.379 60.264C138.976 60.264 139.504 60.12 139.963 59.832C140.432 59.5333 140.8 59.1333 141.067 58.632C141.334 58.1307 141.467 57.5547 141.467 56.904ZM152.083 56.904C152.083 57.7147 151.907 58.4453 151.555 59.096C151.203 59.736 150.723 60.2427 150.115 60.616C149.507 60.9787 148.814 61.16 148.035 61.16C147.278 61.16 146.59 60.9787 145.971 60.616C145.363 60.2427 144.878 59.736 144.515 59.096C144.163 58.4453 143.987 57.7147 143.987 56.904C143.987 56.0827 144.163 55.352 144.515 54.712C144.878 54.072 145.363 53.5653 145.971 53.192C146.59 52.8187 147.278 52.632 148.035 52.632C148.814 52.632 149.507 52.8187 150.115 53.192C150.723 53.5653 151.203 54.072 151.555 54.712C151.907 55.352 152.083 56.0827 152.083 56.904ZM151.123 56.904C151.123 56.2533 150.99 55.6773 150.723 55.176C150.456 54.664 150.088 54.264 149.619 53.976C149.16 53.6773 148.632 53.528 148.035 53.528C147.459 53.528 146.936 53.6773 146.467 53.976C145.998 54.264 145.624 54.664 145.347 55.176C145.08 55.6773 144.947 56.2533 144.947 56.904C144.947 57.5547 145.08 58.1307 145.347 58.632C145.624 59.1333 145.998 59.5333 146.467 59.832C146.936 60.12 147.459 60.264 148.035 60.264C148.632 60.264 149.16 60.12 149.619 59.832C150.088 59.5333 150.456 59.1333 150.723 58.632C150.99 58.1307 151.123 57.5547 151.123 56.904ZM160.827 49.16C160.966 49.16 161.078 49.208 161.163 49.304C161.259 49.3893 161.307 49.5013 161.307 49.64V60.52C161.307 60.648 161.259 60.76 161.163 60.856C161.067 60.952 160.955 61 160.827 61C160.689 61 160.571 60.952 160.475 60.856C160.39 60.76 160.347 60.648 160.347 60.52V58.616L160.619 58.392C160.619 58.6907 160.539 59.0053 160.379 59.336C160.219 59.656 159.99 59.9547 159.691 60.232C159.403 60.5093 159.062 60.7333 158.667 60.904C158.283 61.0747 157.867 61.16 157.419 61.16C156.705 61.16 156.059 60.9733 155.483 60.6C154.918 60.2267 154.47 59.72 154.139 59.08C153.809 58.44 153.643 57.7093 153.643 56.888C153.643 56.0773 153.809 55.352 154.139 54.712C154.47 54.0613 154.918 53.5547 155.483 53.192C156.049 52.8187 156.689 52.632 157.403 52.632C157.841 52.632 158.257 52.712 158.651 52.872C159.046 53.032 159.393 53.2507 159.691 53.528C160.001 53.8053 160.241 54.1253 160.411 54.488C160.593 54.84 160.683 55.208 160.683 55.592L160.347 55.352V49.64C160.347 49.512 160.39 49.4 160.475 49.304C160.571 49.208 160.689 49.16 160.827 49.16ZM157.499 60.264C158.075 60.264 158.577 60.12 159.003 59.832C159.441 59.5333 159.782 59.1333 160.027 58.632C160.283 58.12 160.411 57.5387 160.411 56.888C160.411 56.248 160.283 55.6773 160.027 55.176C159.782 54.664 159.441 54.264 159.003 53.976C158.566 53.6773 158.065 53.528 157.499 53.528C156.945 53.528 156.443 53.6773 155.995 53.976C155.558 54.264 155.211 54.664 154.955 55.176C154.71 55.6773 154.587 56.248 154.587 56.888C154.587 57.528 154.71 58.104 154.955 58.616C155.211 59.128 155.558 59.5333 155.995 59.832C156.443 60.12 156.945 60.264 157.499 60.264ZM163.363 59.704C163.277 59.576 163.235 59.4533 163.235 59.336C163.245 59.208 163.315 59.1067 163.443 59.032C163.528 58.9573 163.624 58.9253 163.731 58.936C163.848 58.9467 163.955 59 164.051 59.096C164.339 59.4693 164.685 59.7733 165.091 60.008C165.507 60.232 165.997 60.344 166.562 60.344C166.861 60.344 167.155 60.296 167.443 60.2C167.741 60.0933 167.987 59.9387 168.179 59.736C168.371 59.5227 168.467 59.256 168.467 58.936C168.467 58.6053 168.371 58.3387 168.179 58.136C167.987 57.9333 167.736 57.7733 167.427 57.656C167.128 57.5387 166.808 57.4373 166.467 57.352C166.104 57.256 165.752 57.1493 165.411 57.032C165.069 56.904 164.765 56.7493 164.499 56.568C164.243 56.376 164.035 56.1467 163.875 55.88C163.715 55.6133 163.635 55.288 163.635 54.904C163.635 54.456 163.757 54.0613 164.003 53.72C164.248 53.3787 164.579 53.112 164.995 52.92C165.421 52.728 165.901 52.632 166.435 52.632C166.701 52.632 166.989 52.6693 167.299 52.744C167.608 52.808 167.912 52.92 168.211 53.08C168.509 53.24 168.776 53.4587 169.011 53.736C169.107 53.832 169.155 53.944 169.155 54.072C169.155 54.1893 169.101 54.296 168.995 54.392C168.909 54.456 168.808 54.488 168.691 54.488C168.584 54.488 168.493 54.4453 168.419 54.36C168.163 54.072 167.859 53.8533 167.507 53.704C167.155 53.5547 166.776 53.48 166.371 53.48C166.061 53.48 165.768 53.5333 165.491 53.64C165.224 53.736 165 53.8853 164.819 54.088C164.637 54.2907 164.547 54.5573 164.547 54.888C164.568 55.1973 164.675 55.448 164.867 55.64C165.069 55.832 165.331 55.992 165.651 56.12C165.981 56.248 166.349 56.3653 166.755 56.472C167.096 56.5573 167.421 56.6587 167.731 56.776C168.051 56.8933 168.328 57.0427 168.563 57.224C168.808 57.3947 169 57.6133 169.139 57.88C169.288 58.1467 169.363 58.4827 169.363 58.888C169.363 59.3573 169.229 59.7627 168.963 60.104C168.707 60.4453 168.36 60.7067 167.923 60.888C167.485 61.0693 167 61.16 166.467 61.16C165.891 61.16 165.331 61.048 164.787 60.824C164.253 60.6 163.779 60.2267 163.363 59.704ZM179.59 52.76C180.315 52.76 180.955 52.9413 181.51 53.304C182.075 53.656 182.523 54.1467 182.854 54.776C183.184 55.3947 183.35 56.1093 183.35 56.92C183.35 57.7307 183.184 58.4507 182.854 59.08C182.523 59.7093 182.075 60.2053 181.51 60.568C180.944 60.9307 180.31 61.112 179.606 61.112C179.232 61.112 178.875 61.0587 178.534 60.952C178.203 60.8347 177.899 60.68 177.622 60.488C177.344 60.296 177.099 60.072 176.886 59.816C176.672 59.5493 176.502 59.2613 176.374 58.952L176.662 58.744V63.72C176.662 63.848 176.614 63.96 176.518 64.056C176.432 64.152 176.32 64.2 176.182 64.2C176.043 64.2 175.926 64.152 175.83 64.056C175.744 63.96 175.702 63.848 175.702 63.72V53.288C175.702 53.1493 175.744 53.032 175.83 52.936C175.915 52.84 176.032 52.792 176.182 52.792C176.32 52.792 176.432 52.84 176.518 52.936C176.614 53.032 176.662 53.1493 176.662 53.288V55.016L176.438 54.888C176.544 54.5573 176.699 54.264 176.902 54.008C177.115 53.7413 177.36 53.5173 177.638 53.336C177.915 53.144 178.219 53 178.549 52.904C178.88 52.808 179.227 52.76 179.59 52.76ZM179.51 53.656C178.934 53.656 178.427 53.8 177.99 54.088C177.552 54.3653 177.206 54.7493 176.95 55.24C176.704 55.72 176.582 56.28 176.582 56.92C176.582 57.5493 176.704 58.1147 176.95 58.616C177.206 59.1173 177.552 59.512 177.99 59.8C178.427 60.0773 178.934 60.216 179.51 60.216C180.075 60.216 180.571 60.0773 180.998 59.8C181.435 59.512 181.782 59.1173 182.038 58.616C182.294 58.1147 182.422 57.5493 182.422 56.92C182.422 56.2907 182.294 55.7307 182.038 55.24C181.782 54.7493 181.435 54.3653 180.998 54.088C180.571 53.8 180.075 53.656 179.51 53.656ZM192.109 52.824C192.247 52.824 192.359 52.872 192.445 52.968C192.541 53.064 192.589 53.1813 192.589 53.32V60.52C192.589 60.648 192.541 60.76 192.445 60.856C192.349 60.952 192.237 61 192.109 61C191.97 61 191.853 60.952 191.757 60.856C191.671 60.76 191.629 60.648 191.629 60.52V58.616L191.901 58.488C191.901 58.7867 191.815 59.0907 191.645 59.4C191.485 59.7093 191.261 59.9973 190.973 60.264C190.685 60.5307 190.343 60.7493 189.949 60.92C189.565 61.08 189.149 61.16 188.701 61.16C187.975 61.16 187.325 60.9733 186.749 60.6C186.183 60.2267 185.735 59.7147 185.405 59.064C185.085 58.4133 184.925 57.6827 184.925 56.872C184.925 56.04 185.09 55.3093 185.421 54.68C185.751 54.04 186.199 53.5387 186.765 53.176C187.33 52.8133 187.97 52.632 188.685 52.632C189.143 52.632 189.57 52.712 189.965 52.872C190.37 53.032 190.722 53.2507 191.021 53.528C191.319 53.8053 191.549 54.1253 191.709 54.488C191.879 54.84 191.965 55.208 191.965 55.592L191.629 55.352V53.32C191.629 53.1813 191.671 53.064 191.757 52.968C191.853 52.872 191.97 52.824 192.109 52.824ZM188.781 60.264C189.346 60.264 189.847 60.12 190.285 59.832C190.722 59.5333 191.063 59.128 191.309 58.616C191.565 58.0933 191.693 57.512 191.693 56.872C191.693 56.2427 191.565 55.6773 191.309 55.176C191.063 54.6747 190.722 54.2747 190.285 53.976C189.847 53.6773 189.346 53.528 188.781 53.528C188.226 53.528 187.725 53.672 187.277 53.96C186.839 54.248 186.493 54.6427 186.237 55.144C185.991 55.6453 185.869 56.2213 185.869 56.872C185.869 57.512 185.991 58.0933 186.237 58.616C186.493 59.128 186.839 59.5333 187.277 59.832C187.714 60.12 188.215 60.264 188.781 60.264ZM196.036 60.52C196.036 60.648 195.988 60.76 195.892 60.856C195.796 60.952 195.684 61 195.556 61C195.417 61 195.3 60.952 195.204 60.856C195.118 60.76 195.076 60.648 195.076 60.52V53.16C195.076 53.032 195.118 52.92 195.204 52.824C195.3 52.728 195.417 52.68 195.556 52.68C195.694 52.68 195.806 52.728 195.892 52.824C195.988 52.92 196.036 53.032 196.036 53.16V60.52ZM195.556 51.608C195.332 51.608 195.161 51.56 195.044 51.464C194.937 51.3573 194.884 51.208 194.884 51.016V50.856C194.884 50.664 194.942 50.52 195.06 50.424C195.188 50.3173 195.358 50.264 195.572 50.264C195.774 50.264 195.929 50.3173 196.036 50.424C196.153 50.52 196.212 50.664 196.212 50.856V51.016C196.212 51.208 196.153 51.3573 196.036 51.464C195.929 51.56 195.769 51.608 195.556 51.608ZM205.234 49.16C205.372 49.16 205.484 49.208 205.57 49.304C205.666 49.3893 205.714 49.5013 205.714 49.64V60.52C205.714 60.648 205.666 60.76 205.57 60.856C205.474 60.952 205.362 61 205.234 61C205.095 61 204.978 60.952 204.882 60.856C204.796 60.76 204.754 60.648 204.754 60.52V58.616L205.026 58.392C205.026 58.6907 204.946 59.0053 204.786 59.336C204.626 59.656 204.396 59.9547 204.098 60.232C203.81 60.5093 203.468 60.7333 203.074 60.904C202.69 61.0747 202.274 61.16 201.826 61.16C201.111 61.16 200.466 60.9733 199.89 60.6C199.324 60.2267 198.876 59.72 198.546 59.08C198.215 58.44 198.05 57.7093 198.05 56.888C198.05 56.0773 198.215 55.352 198.546 54.712C198.876 54.0613 199.324 53.5547 199.89 53.192C200.455 52.8187 201.095 52.632 201.81 52.632C202.247 52.632 202.663 52.712 203.058 52.872C203.452 53.032 203.799 53.2507 204.098 53.528C204.407 53.8053 204.647 54.1253 204.818 54.488C204.999 54.84 205.09 55.208 205.09 55.592L204.754 55.352V49.64C204.754 49.512 204.796 49.4 204.882 49.304C204.978 49.208 205.095 49.16 205.234 49.16ZM201.906 60.264C202.482 60.264 202.983 60.12 203.41 59.832C203.847 59.5333 204.188 59.1333 204.434 58.632C204.69 58.12 204.818 57.5387 204.818 56.888C204.818 56.248 204.69 55.6773 204.434 55.176C204.188 54.664 203.847 54.264 203.41 53.976C202.972 53.6773 202.471 53.528 201.906 53.528C201.351 53.528 200.85 53.6773 200.402 53.976C199.964 54.264 199.618 54.664 199.362 55.176C199.116 55.6773 198.994 56.248 198.994 56.888C198.994 57.528 199.116 58.104 199.362 58.616C199.618 59.128 199.964 59.5333 200.402 59.832C200.85 60.12 201.351 60.264 201.906 60.264ZM215.568 49.224C215.728 49.224 215.898 49.24 216.08 49.272C216.272 49.304 216.437 49.3627 216.576 49.448C216.714 49.5227 216.784 49.64 216.784 49.8C216.784 49.9173 216.741 50.024 216.656 50.12C216.57 50.2053 216.474 50.248 216.368 50.248C216.261 50.248 216.128 50.2213 215.968 50.168C215.808 50.104 215.637 50.072 215.456 50.072C215.232 50.072 215.04 50.1253 214.88 50.232C214.72 50.328 214.597 50.472 214.512 50.664C214.426 50.8453 214.384 51.0693 214.384 51.336V60.52C214.384 60.648 214.336 60.76 214.24 60.856C214.154 60.952 214.042 61 213.904 61C213.765 61 213.648 60.952 213.552 60.856C213.466 60.76 213.424 60.648 213.424 60.52V51.336C213.424 50.6533 213.621 50.1307 214.016 49.768C214.421 49.4053 214.938 49.224 215.568 49.224ZM216.176 52.984C216.304 52.984 216.41 53.0267 216.496 53.112C216.581 53.1973 216.624 53.304 216.624 53.432C216.624 53.56 216.581 53.6667 216.496 53.752C216.41 53.8373 216.304 53.88 216.176 53.88H212.256C212.138 53.88 212.032 53.8373 211.936 53.752C211.85 53.656 211.808 53.5493 211.808 53.432C211.808 53.2933 211.85 53.1867 211.936 53.112C212.032 53.0267 212.138 52.984 212.256 52.984H216.176ZM225.396 56.904C225.396 57.7147 225.22 58.4453 224.868 59.096C224.516 59.736 224.036 60.2427 223.428 60.616C222.82 60.9787 222.126 61.16 221.348 61.16C220.59 61.16 219.902 60.9787 219.284 60.616C218.676 60.2427 218.19 59.736 217.828 59.096C217.476 58.4453 217.3 57.7147 217.3 56.904C217.3 56.0827 217.476 55.352 217.828 54.712C218.19 54.072 218.676 53.5653 219.284 53.192C219.902 52.8187 220.59 52.632 221.348 52.632C222.126 52.632 222.82 52.8187 223.428 53.192C224.036 53.5653 224.516 54.072 224.868 54.712C225.22 55.352 225.396 56.0827 225.396 56.904ZM224.436 56.904C224.436 56.2533 224.302 55.6773 224.036 55.176C223.769 54.664 223.401 54.264 222.932 53.976C222.473 53.6773 221.945 53.528 221.348 53.528C220.772 53.528 220.249 53.6773 219.78 53.976C219.31 54.264 218.937 54.664 218.66 55.176C218.393 55.6773 218.26 56.2533 218.26 56.904C218.26 57.5547 218.393 58.1307 218.66 58.632C218.937 59.1333 219.31 59.5333 219.78 59.832C220.249 60.12 220.772 60.264 221.348 60.264C221.945 60.264 222.473 60.12 222.932 59.832C223.401 59.5333 223.769 59.1333 224.036 58.632C224.302 58.1307 224.436 57.5547 224.436 56.904ZM227.916 61C227.767 61 227.649 60.952 227.564 60.856C227.479 60.76 227.436 60.648 227.436 60.52V53.352C227.436 53.224 227.479 53.112 227.564 53.016C227.66 52.92 227.777 52.872 227.916 52.872C228.055 52.872 228.167 52.92 228.252 53.016C228.348 53.112 228.396 53.224 228.396 53.352V55.752L228.156 55.8C228.188 55.4267 228.279 55.0587 228.428 54.696C228.588 54.3227 228.801 53.9813 229.068 53.672C229.335 53.3627 229.649 53.112 230.012 52.92C230.385 52.728 230.801 52.632 231.26 52.632C231.452 52.632 231.639 52.6747 231.82 52.76C232.001 52.8347 232.092 52.9627 232.092 53.144C232.092 53.304 232.049 53.4267 231.964 53.512C231.879 53.5973 231.777 53.64 231.66 53.64C231.564 53.64 231.457 53.6133 231.34 53.56C231.233 53.5067 231.089 53.48 230.908 53.48C230.609 53.48 230.311 53.5707 230.012 53.752C229.713 53.9227 229.441 54.1573 229.196 54.456C228.951 54.7547 228.753 55.0907 228.604 55.464C228.465 55.8267 228.396 56.1947 228.396 56.568V60.52C228.396 60.648 228.348 60.76 228.252 60.856C228.156 60.952 228.044 61 227.916 61Z" fill="white"/>
<path d="M55 64C66.0457 64 75 55.0457 75 44C75 32.9543 66.0457 24 55 24C43.9543 24 35 32.9543 35 44C35 55.0457 43.9543 64 55 64Z" stroke="white" stroke-width="3" stroke-linecap="round" stroke-linejoin="round"/>
<path d="M55 32V44L63 48" stroke="white" stroke-width="3" stroke-linecap="round" stroke-linejoin="round"/>
</svg>
