<svg width="294" height="88" viewBox="0 0 294 88" fill="none" xmlns="http://www.w3.org/2000/svg">
<rect width="294" height="88" fill="#2E7A62"/>
<path d="M134.712 26.49V28.164H129.402V31.854H133.542V33.528H129.402V39H127.35V26.49H134.712ZM144.552 39L141.672 33.996H140.106V39H138.054V26.49H142.374C143.334 26.49 144.144 26.658 144.804 26.994C145.476 27.33 145.974 27.78 146.298 28.344C146.634 28.908 146.802 29.538 146.802 30.234C146.802 31.05 146.562 31.794 146.082 32.466C145.614 33.126 144.888 33.576 143.904 33.816L147 39H144.552ZM140.106 32.358H142.374C143.142 32.358 143.718 32.166 144.102 31.782C144.498 31.398 144.696 30.882 144.696 30.234C144.696 29.586 144.504 29.082 144.12 28.722C143.736 28.35 143.154 28.164 142.374 28.164H140.106V32.358ZM152.919 28.146V31.818H157.239V33.492H152.919V37.326H157.779V39H150.867V26.472H157.779V28.146H152.919ZM163.798 28.146V31.818H168.118V33.492H163.798V37.326H168.658V39H161.746V26.472H168.658V28.146H163.798ZM182.863 39.126C182.023 39.126 181.267 38.982 180.595 38.694C179.923 38.394 179.395 37.974 179.011 37.434C178.627 36.894 178.435 36.264 178.435 35.544H180.631C180.679 36.084 180.889 36.528 181.261 36.876C181.645 37.224 182.179 37.398 182.863 37.398C183.571 37.398 184.123 37.23 184.519 36.894C184.915 36.546 185.113 36.102 185.113 35.562C185.113 35.142 184.987 34.8 184.735 34.536C184.495 34.272 184.189 34.068 183.817 33.924C183.457 33.78 182.953 33.624 182.305 33.456C181.489 33.24 180.823 33.024 180.307 32.808C179.803 32.58 179.371 32.232 179.011 31.764C178.651 31.296 178.471 30.672 178.471 29.892C178.471 29.172 178.651 28.542 179.011 28.002C179.371 27.462 179.875 27.048 180.523 26.76C181.171 26.472 181.921 26.328 182.773 26.328C183.985 26.328 184.975 26.634 185.743 27.246C186.523 27.846 186.955 28.674 187.039 29.73H184.771C184.735 29.274 184.519 28.884 184.123 28.56C183.727 28.236 183.205 28.074 182.557 28.074C181.969 28.074 181.489 28.224 181.117 28.524C180.745 28.824 180.559 29.256 180.559 29.82C180.559 30.204 180.673 30.522 180.901 30.774C181.141 31.014 181.441 31.206 181.801 31.35C182.161 31.494 182.653 31.65 183.277 31.818C184.105 32.046 184.777 32.274 185.293 32.502C185.821 32.73 186.265 33.084 186.625 33.564C186.997 34.032 187.183 34.662 187.183 35.454C187.183 36.09 187.009 36.69 186.661 37.254C186.325 37.818 185.827 38.274 185.167 38.622C184.519 38.958 183.751 39.126 182.863 39.126ZM201.035 26.49V39H198.983V33.528H193.097V39H191.045V26.49H193.097V31.854H198.983V26.49H201.035ZM207.228 26.49V39H205.176V26.49H207.228ZM220.11 30.216C220.11 30.852 219.96 31.452 219.66 32.016C219.36 32.58 218.88 33.042 218.22 33.402C217.56 33.75 216.714 33.924 215.682 33.924H213.414V39H211.362V26.49H215.682C216.642 26.49 217.452 26.658 218.112 26.994C218.784 27.318 219.282 27.762 219.606 28.326C219.942 28.89 220.11 29.52 220.11 30.216ZM215.682 32.25C216.462 32.25 217.044 32.076 217.428 31.728C217.812 31.368 218.004 30.864 218.004 30.216C218.004 28.848 217.23 28.164 215.682 28.164H213.414V32.25H215.682ZM232.255 30.216C232.255 30.852 232.105 31.452 231.805 32.016C231.505 32.58 231.025 33.042 230.365 33.402C229.705 33.75 228.859 33.924 227.827 33.924H225.559V39H223.507V26.49H227.827C228.787 26.49 229.597 26.658 230.257 26.994C230.929 27.318 231.427 27.762 231.751 28.326C232.087 28.89 232.255 29.52 232.255 30.216ZM227.827 32.25C228.607 32.25 229.189 32.076 229.573 31.728C229.957 31.368 230.149 30.864 230.149 30.216C230.149 28.848 229.375 28.164 227.827 28.164H225.559V32.25H227.827ZM237.704 26.49V39H235.652V26.49H237.704ZM252.116 39H250.064L243.89 29.658V39H241.838V26.472H243.89L250.064 35.796V26.472H252.116V39ZM265.305 30.09C264.981 29.466 264.531 28.998 263.955 28.686C263.379 28.362 262.713 28.2 261.957 28.2C261.129 28.2 260.391 28.386 259.743 28.758C259.095 29.13 258.585 29.658 258.213 30.342C257.853 31.026 257.673 31.818 257.673 32.718C257.673 33.618 257.853 34.416 258.213 35.112C258.585 35.796 259.095 36.324 259.743 36.696C260.391 37.068 261.129 37.254 261.957 37.254C263.073 37.254 263.979 36.942 264.675 36.318C265.371 35.694 265.797 34.848 265.953 33.78H261.255V32.142H268.149V33.744C268.017 34.716 267.669 35.61 267.105 36.426C266.553 37.242 265.827 37.896 264.927 38.388C264.039 38.868 263.049 39.108 261.957 39.108C260.781 39.108 259.707 38.838 258.735 38.298C257.763 37.746 256.989 36.984 256.413 36.012C255.849 35.04 255.567 33.942 255.567 32.718C255.567 31.494 255.849 30.396 256.413 29.424C256.989 28.452 257.763 27.696 258.735 27.156C259.719 26.604 260.793 26.328 261.957 26.328C263.289 26.328 264.471 26.658 265.503 27.318C266.547 27.966 267.303 28.89 267.771 30.09H265.305Z" fill="white"/>
<path d="M137.488 55.4C137.488 56.2427 137.355 57.016 137.088 57.72C136.832 58.4133 136.464 59.0213 135.984 59.544C135.504 60.056 134.933 60.456 134.272 60.744C133.621 61.0213 132.907 61.16 132.128 61.16C131.349 61.16 130.629 61.0213 129.968 60.744C129.317 60.456 128.752 60.056 128.272 59.544C127.792 59.0213 127.419 58.4133 127.152 57.72C126.896 57.016 126.768 56.2427 126.768 55.4C126.768 54.5573 126.896 53.7893 127.152 53.096C127.419 52.392 127.792 51.784 128.272 51.272C128.752 50.7493 129.317 50.3493 129.968 50.072C130.629 49.784 131.349 49.64 132.128 49.64C132.907 49.64 133.621 49.784 134.272 50.072C134.933 50.3493 135.504 50.7493 135.984 51.272C136.464 51.784 136.832 52.392 137.088 53.096C137.355 53.7893 137.488 54.5573 137.488 55.4ZM136.464 55.4C136.464 54.4507 136.277 53.6187 135.904 52.904C135.541 52.1787 135.035 51.6133 134.384 51.208C133.733 50.8027 132.981 50.6 132.128 50.6C131.285 50.6 130.533 50.8027 129.872 51.208C129.221 51.6133 128.709 52.1787 128.336 52.904C127.973 53.6187 127.792 54.4507 127.792 55.4C127.792 56.3493 127.973 57.1867 128.336 57.912C128.709 58.6267 129.221 59.1867 129.872 59.592C130.533 59.9973 131.285 60.2 132.128 60.2C132.981 60.2 133.733 59.9973 134.384 59.592C135.035 59.1867 135.541 58.6267 135.904 57.912C136.277 57.1867 136.464 56.3493 136.464 55.4ZM143.37 52.632C144.074 52.632 144.634 52.776 145.05 53.064C145.477 53.3413 145.781 53.7253 145.962 54.216C146.154 54.696 146.25 55.2293 146.25 55.816V60.52C146.25 60.648 146.202 60.76 146.106 60.856C146.01 60.952 145.898 61 145.77 61C145.621 61 145.503 60.952 145.418 60.856C145.333 60.76 145.29 60.648 145.29 60.52V55.864C145.29 55.4373 145.221 55.048 145.082 54.696C144.943 54.344 144.714 54.0613 144.394 53.848C144.085 53.6347 143.674 53.528 143.162 53.528C142.703 53.528 142.266 53.6347 141.85 53.848C141.445 54.0613 141.114 54.344 140.858 54.696C140.602 55.048 140.474 55.4373 140.474 55.864V60.52C140.474 60.648 140.426 60.76 140.33 60.856C140.234 60.952 140.122 61 139.994 61C139.845 61 139.727 60.952 139.642 60.856C139.557 60.76 139.514 60.648 139.514 60.52V53.352C139.514 53.224 139.557 53.112 139.642 53.016C139.738 52.92 139.855 52.872 139.994 52.872C140.133 52.872 140.245 52.92 140.33 53.016C140.426 53.112 140.474 53.224 140.474 53.352V54.696L140.106 55.272C140.127 54.9307 140.234 54.6053 140.426 54.296C140.629 53.976 140.885 53.6933 141.194 53.448C141.503 53.192 141.845 52.9947 142.218 52.856C142.602 52.7067 142.986 52.632 143.37 52.632ZM149.82 60.52C149.82 60.648 149.772 60.76 149.676 60.856C149.58 60.952 149.468 61 149.34 61C149.201 61 149.084 60.952 148.988 60.856C148.903 60.76 148.86 60.648 148.86 60.52V49.64C148.86 49.512 148.908 49.4 149.004 49.304C149.1 49.208 149.212 49.16 149.34 49.16C149.479 49.16 149.591 49.208 149.676 49.304C149.772 49.4 149.82 49.512 149.82 49.64V60.52ZM158.313 52.68C158.452 52.68 158.564 52.728 158.649 52.824C158.745 52.92 158.793 53.032 158.793 53.16V60.216C158.793 61.08 158.622 61.8053 158.281 62.392C157.94 62.9893 157.481 63.4373 156.905 63.736C156.329 64.0453 155.673 64.2 154.937 64.2C154.478 64.2 154.052 64.1467 153.657 64.04C153.273 63.944 152.958 63.816 152.713 63.656C152.585 63.5813 152.489 63.4907 152.425 63.384C152.361 63.2773 152.356 63.1653 152.409 63.048C152.462 62.8987 152.542 62.7973 152.649 62.744C152.766 62.7013 152.884 62.7067 153.001 62.76C153.182 62.856 153.444 62.9733 153.785 63.112C154.126 63.2507 154.516 63.32 154.953 63.32C155.54 63.32 156.046 63.1973 156.473 62.952C156.91 62.7067 157.246 62.3493 157.481 61.88C157.716 61.4213 157.833 60.872 157.833 60.232V59.08L157.945 59.464C157.785 59.7947 157.556 60.088 157.257 60.344C156.969 60.6 156.633 60.8027 156.249 60.952C155.876 61.0907 155.476 61.16 155.049 61.16C154.409 61.16 153.876 61.032 153.449 60.776C153.033 60.5093 152.724 60.1467 152.521 59.688C152.318 59.2293 152.217 58.6907 152.217 58.072V53.16C152.217 53.032 152.26 52.92 152.345 52.824C152.43 52.728 152.548 52.68 152.697 52.68C152.836 52.68 152.948 52.728 153.033 52.824C153.129 52.92 153.177 53.032 153.177 53.16V57.928C153.177 58.6747 153.337 59.2507 153.657 59.656C153.988 60.0613 154.521 60.264 155.257 60.264C155.716 60.264 156.137 60.1573 156.521 59.944C156.905 59.72 157.22 59.432 157.465 59.08C157.71 58.7173 157.833 58.3333 157.833 57.928V53.16C157.833 53.032 157.876 52.92 157.961 52.824C158.057 52.728 158.174 52.68 158.313 52.68ZM168.646 49.224C168.806 49.224 168.977 49.24 169.158 49.272C169.35 49.304 169.515 49.3627 169.654 49.448C169.793 49.5227 169.862 49.64 169.862 49.8C169.862 49.9173 169.819 50.024 169.734 50.12C169.649 50.2053 169.553 50.248 169.446 50.248C169.339 50.248 169.206 50.2213 169.046 50.168C168.886 50.104 168.715 50.072 168.534 50.072C168.31 50.072 168.118 50.1253 167.958 50.232C167.798 50.328 167.675 50.472 167.59 50.664C167.505 50.8453 167.462 51.0693 167.462 51.336V60.52C167.462 60.648 167.414 60.76 167.318 60.856C167.233 60.952 167.121 61 166.982 61C166.843 61 166.726 60.952 166.63 60.856C166.545 60.76 166.502 60.648 166.502 60.52V51.336C166.502 50.6533 166.699 50.1307 167.094 49.768C167.499 49.4053 168.017 49.224 168.646 49.224ZM169.254 52.984C169.382 52.984 169.489 53.0267 169.574 53.112C169.659 53.1973 169.702 53.304 169.702 53.432C169.702 53.56 169.659 53.6667 169.574 53.752C169.489 53.8373 169.382 53.88 169.254 53.88H165.334C165.217 53.88 165.11 53.8373 165.014 53.752C164.929 53.656 164.886 53.5493 164.886 53.432C164.886 53.2933 164.929 53.1867 165.014 53.112C165.11 53.0267 165.217 52.984 165.334 52.984H169.254ZM178.474 56.904C178.474 57.7147 178.298 58.4453 177.946 59.096C177.594 59.736 177.114 60.2427 176.506 60.616C175.898 60.9787 175.204 61.16 174.426 61.16C173.668 61.16 172.98 60.9787 172.362 60.616C171.754 60.2427 171.268 59.736 170.906 59.096C170.554 58.4453 170.378 57.7147 170.378 56.904C170.378 56.0827 170.554 55.352 170.906 54.712C171.268 54.072 171.754 53.5653 172.362 53.192C172.98 52.8187 173.668 52.632 174.426 52.632C175.204 52.632 175.898 52.8187 176.506 53.192C177.114 53.5653 177.594 54.072 177.946 54.712C178.298 55.352 178.474 56.0827 178.474 56.904ZM177.514 56.904C177.514 56.2533 177.38 55.6773 177.114 55.176C176.847 54.664 176.479 54.264 176.01 53.976C175.551 53.6773 175.023 53.528 174.426 53.528C173.85 53.528 173.327 53.6773 172.858 53.976C172.388 54.264 172.015 54.664 171.738 55.176C171.471 55.6773 171.338 56.2533 171.338 56.904C171.338 57.5547 171.471 58.1307 171.738 58.632C172.015 59.1333 172.388 59.5333 172.858 59.832C173.327 60.12 173.85 60.264 174.426 60.264C175.023 60.264 175.551 60.12 176.01 59.832C176.479 59.5333 176.847 59.1333 177.114 58.632C177.38 58.1307 177.514 57.5547 177.514 56.904ZM180.994 61C180.845 61 180.727 60.952 180.642 60.856C180.557 60.76 180.514 60.648 180.514 60.52V53.352C180.514 53.224 180.557 53.112 180.642 53.016C180.738 52.92 180.855 52.872 180.994 52.872C181.133 52.872 181.245 52.92 181.33 53.016C181.426 53.112 181.474 53.224 181.474 53.352V55.752L181.234 55.8C181.266 55.4267 181.357 55.0587 181.506 54.696C181.666 54.3227 181.879 53.9813 182.146 53.672C182.413 53.3627 182.727 53.112 183.09 52.92C183.463 52.728 183.879 52.632 184.338 52.632C184.53 52.632 184.717 52.6747 184.898 52.76C185.079 52.8347 185.17 52.9627 185.17 53.144C185.17 53.304 185.127 53.4267 185.042 53.512C184.957 53.5973 184.855 53.64 184.738 53.64C184.642 53.64 184.535 53.6133 184.418 53.56C184.311 53.5067 184.167 53.48 183.986 53.48C183.687 53.48 183.389 53.5707 183.09 53.752C182.791 53.9227 182.519 54.1573 182.274 54.456C182.029 54.7547 181.831 55.0907 181.682 55.464C181.543 55.8267 181.474 56.1947 181.474 56.568V60.52C181.474 60.648 181.426 60.76 181.33 60.856C181.234 60.952 181.122 61 180.994 61ZM210.897 61C210.748 61 210.625 60.952 210.529 60.856C210.433 60.76 210.385 60.648 210.385 60.52V50.888L210.561 51.048L208.433 52.472C208.348 52.536 208.257 52.568 208.161 52.568C208.033 52.568 207.916 52.5147 207.809 52.408C207.713 52.3013 207.665 52.184 207.665 52.056C207.665 51.8853 207.751 51.752 207.921 51.656L210.593 49.88C210.657 49.8373 210.721 49.8107 210.785 49.8C210.86 49.7893 210.924 49.7893 210.977 49.8C211.116 49.8107 211.223 49.864 211.297 49.96C211.372 50.0453 211.409 50.152 211.409 50.28V60.52C211.409 60.648 211.361 60.76 211.265 60.856C211.169 60.952 211.047 61 210.897 61ZM215.747 61.128C215.747 61.416 215.662 61.6933 215.491 61.96C215.32 62.2373 215.112 62.4613 214.867 62.632C214.622 62.8133 214.382 62.904 214.147 62.904C214.062 62.904 213.976 62.8773 213.891 62.824C213.816 62.7707 213.779 62.6693 213.779 62.52C213.779 62.3707 213.827 62.2853 213.923 62.264C214.03 62.2533 214.158 62.2053 214.307 62.12C214.488 62.0347 214.627 61.928 214.723 61.8C214.819 61.672 214.867 61.5227 214.867 61.352C214.867 61.2133 214.824 61.1067 214.739 61.032C214.664 60.9573 214.574 60.92 214.467 60.92C214.392 60.92 214.318 60.9307 214.243 60.952C214.168 60.9733 214.099 61.0053 214.035 61.048C213.982 60.9947 213.934 60.936 213.891 60.872C213.848 60.808 213.832 60.728 213.843 60.632C213.864 60.4507 213.96 60.296 214.131 60.168C214.312 60.0293 214.52 59.96 214.755 59.96C215.043 59.96 215.278 60.0773 215.459 60.312C215.651 60.5467 215.747 60.8187 215.747 61.128ZM221.065 61.16C220.211 61.16 219.497 60.904 218.921 60.392C218.345 59.88 217.913 59.192 217.625 58.328C217.337 57.4533 217.193 56.4773 217.193 55.4C217.193 54.312 217.337 53.336 217.625 52.472C217.913 51.5973 218.345 50.9093 218.921 50.408C219.497 49.896 220.211 49.64 221.065 49.64C221.939 49.64 222.659 49.896 223.225 50.408C223.801 50.9093 224.233 51.5973 224.521 52.472C224.809 53.336 224.953 54.312 224.953 55.4C224.953 56.4773 224.809 57.4533 224.521 58.328C224.233 59.192 223.801 59.88 223.225 60.392C222.659 60.904 221.939 61.16 221.065 61.16ZM221.065 60.168C221.694 60.168 222.217 59.9707 222.633 59.576C223.059 59.1813 223.379 58.6267 223.593 57.912C223.817 57.1867 223.929 56.3493 223.929 55.4C223.929 54.44 223.817 53.6027 223.593 52.888C223.379 52.1627 223.059 51.6027 222.633 51.208C222.217 50.8133 221.694 50.616 221.065 50.616C220.446 50.616 219.923 50.8133 219.497 51.208C219.081 51.6027 218.761 52.1627 218.537 52.888C218.323 53.6027 218.217 54.44 218.217 55.4C218.217 56.3493 218.323 57.1867 218.537 57.912C218.761 58.6267 219.081 59.1813 219.497 59.576C219.923 59.9707 220.446 60.168 221.065 60.168ZM230.58 61.16C229.727 61.16 229.012 60.904 228.436 60.392C227.86 59.88 227.428 59.192 227.14 58.328C226.852 57.4533 226.708 56.4773 226.708 55.4C226.708 54.312 226.852 53.336 227.14 52.472C227.428 51.5973 227.86 50.9093 228.436 50.408C229.012 49.896 229.727 49.64 230.58 49.64C231.455 49.64 232.175 49.896 232.74 50.408C233.316 50.9093 233.748 51.5973 234.036 52.472C234.324 53.336 234.468 54.312 234.468 55.4C234.468 56.4773 234.324 57.4533 234.036 58.328C233.748 59.192 233.316 59.88 232.74 60.392C232.175 60.904 231.455 61.16 230.58 61.16ZM230.58 60.168C231.209 60.168 231.732 59.9707 232.148 59.576C232.575 59.1813 232.895 58.6267 233.108 57.912C233.332 57.1867 233.444 56.3493 233.444 55.4C233.444 54.44 233.332 53.6027 233.108 52.888C232.895 52.1627 232.575 51.6027 232.148 51.208C231.732 50.8133 231.209 50.616 230.58 50.616C229.961 50.616 229.439 50.8133 229.012 51.208C228.596 51.6027 228.276 52.1627 228.052 52.888C227.839 53.6027 227.732 54.44 227.732 55.4C227.732 56.3493 227.839 57.1867 228.052 57.912C228.276 58.6267 228.596 59.1813 229.012 59.576C229.439 59.9707 229.961 60.168 230.58 60.168ZM240.096 61.16C239.242 61.16 238.528 60.904 237.952 60.392C237.376 59.88 236.944 59.192 236.656 58.328C236.368 57.4533 236.224 56.4773 236.224 55.4C236.224 54.312 236.368 53.336 236.656 52.472C236.944 51.5973 237.376 50.9093 237.952 50.408C238.528 49.896 239.242 49.64 240.096 49.64C240.97 49.64 241.69 49.896 242.256 50.408C242.832 50.9093 243.264 51.5973 243.552 52.472C243.84 53.336 243.984 54.312 243.984 55.4C243.984 56.4773 243.84 57.4533 243.552 58.328C243.264 59.192 242.832 59.88 242.256 60.392C241.69 60.904 240.97 61.16 240.096 61.16ZM240.096 60.168C240.725 60.168 241.248 59.9707 241.664 59.576C242.09 59.1813 242.41 58.6267 242.624 57.912C242.848 57.1867 242.96 56.3493 242.96 55.4C242.96 54.44 242.848 53.6027 242.624 52.888C242.41 52.1627 242.09 51.6027 241.664 51.208C241.248 50.8133 240.725 50.616 240.096 50.616C239.477 50.616 238.954 50.8133 238.528 51.208C238.112 51.6027 237.792 52.1627 237.568 52.888C237.354 53.6027 237.248 54.44 237.248 55.4C237.248 56.3493 237.354 57.1867 237.568 57.912C237.792 58.6267 238.112 59.1813 238.528 59.576C238.954 59.9707 239.477 60.168 240.096 60.168Z" fill="white"/>
<path d="M203.36 49.4C203.516 49.4 203.636 49.448 203.72 49.544C203.816 49.64 203.864 49.76 203.864 49.904V61.424C203.864 61.604 203.804 61.748 203.684 61.856C203.576 61.952 203.45 62 203.306 62C203.234 62 203.156 61.988 203.072 61.964C202.988 61.928 202.922 61.88 202.874 61.82L194.846 51.002L195.152 50.84V61.514C195.152 61.646 195.104 61.76 195.008 61.856C194.912 61.952 194.792 62 194.648 62C194.492 62 194.366 61.952 194.27 61.856C194.186 61.76 194.144 61.646 194.144 61.514V49.94C194.144 49.76 194.198 49.628 194.306 49.544C194.414 49.448 194.534 49.4 194.666 49.4C194.738 49.4 194.816 49.418 194.9 49.454C194.984 49.478 195.05 49.526 195.098 49.598L203.036 60.29L202.856 60.614V49.904C202.856 49.76 202.904 49.64 203 49.544C203.108 49.448 203.228 49.4 203.36 49.4Z" fill="white"/>
<path d="M193 54H205V55H193V54Z" fill="white"/>
<path d="M193 56H205V57H193V56Z" fill="white"/>
<path d="M78.6001 39.8874L78.6001 39.8874C77.0177 39.7154 75.5182 39.0106 74.3118 37.8633L67.2001 31.0987C65.3465 29.3354 62.9592 28.3571 60.4807 28.3571H35.1702C31.1541 28.3571 27.9681 31.883 27.9681 36.1429V52.3333C27.9681 53.0166 28.4869 53.6429 29.2128 53.6429H35.1702C36.0894 53.6429 36.9043 54.4662 36.9043 55.5714C36.9043 56.6766 36.0894 57.5 35.1702 57.5H29.2128C26.6485 57.5 24.5 55.2269 24.5 52.3333V36.1429C24.5 29.6726 29.3157 24.5 35.1702 24.5H60.4807C63.7741 24.5 66.963 25.7992 69.4533 28.1679L76.5647 34.9324C77.2239 35.5595 78.0526 35.9525 78.9368 36.0486L83.8871 36.5867C89.3113 37.1765 93.5 42.1553 93.5 48.1724V52.3333C93.5 55.2269 91.3515 57.5 88.7872 57.5H79.8511C78.9319 57.5 78.117 56.6766 78.117 55.5714C78.117 54.4662 78.9319 53.6429 79.8511 53.6429H88.7872C89.5132 53.6429 90.0319 53.0165 90.0319 52.3333V48.1724C90.0319 44.2078 87.2629 40.829 83.5507 40.4255L78.6001 39.8874ZM45.3511 55.5714C45.3511 54.4662 46.1659 53.6429 47.0851 53.6429H67.9362C68.8553 53.6429 69.6702 54.4662 69.6702 55.5714C69.6702 56.6766 68.8553 57.5 67.9362 57.5H47.0851C46.1659 57.5 45.3511 56.6766 45.3511 55.5714Z" fill="white" stroke="#2E7A62"/>
<path d="M41.0388 51.6481C38.7171 51.6481 36.8351 53.53 36.8351 55.8518C36.8351 58.1735 38.7171 60.0555 41.0388 60.0555C43.3604 60.0555 45.2425 58.1735 45.2425 55.8518C45.2425 53.53 43.3604 51.6481 41.0388 51.6481ZM33.3906 55.8518C33.3906 51.6278 36.8148 48.2036 41.0388 48.2036C45.2627 48.2036 48.6869 51.6278 48.6869 55.8518C48.6869 60.0758 45.2627 63.4999 41.0388 63.4999C36.8148 63.4999 33.3906 60.0758 33.3906 55.8518Z" fill="white" stroke="#2E7A62"/>
<path d="M73.6325 51.6481C71.3108 51.6481 69.4288 53.53 69.4288 55.8518C69.4288 58.1735 71.3108 60.0555 73.6325 60.0555C75.9543 60.0555 77.8362 58.1735 77.8362 55.8518C77.8362 53.53 75.9543 51.6481 73.6325 51.6481ZM65.9844 55.8518C65.9844 51.6278 69.4085 48.2036 73.6325 48.2036C77.8565 48.2036 81.2807 51.6278 81.2807 55.8518C81.2807 60.0758 77.8565 63.4999 73.6325 63.4999C69.4085 63.4999 65.9844 60.0758 65.9844 55.8518Z" fill="white" stroke="#2E7A62"/>
<path d="M83.7578 44.0001C83.7578 43.0489 84.5289 42.2778 85.48 42.2778H89.9245C90.8756 42.2778 91.6467 43.0489 91.6467 44.0001C91.6467 44.9512 90.8756 45.7223 89.9245 45.7223H85.48C84.5289 45.7223 83.7578 44.9512 83.7578 44.0001Z" fill="white" stroke="#2E7A62"/>
<path d="M49.9253 24.5C50.8765 24.5 51.6476 25.2711 51.6476 26.2222V38.0741C51.6476 39.0252 50.8765 39.7963 49.9253 39.7963C48.9742 39.7963 48.2031 39.0252 48.2031 38.0741V26.2222C48.2031 25.2711 48.9742 24.5 49.9253 24.5Z" fill="white" stroke="#2E7A62"/>
<path d="M33.3906 38.074C33.3906 37.1229 34.1617 36.3518 35.1128 36.3518H66.224C67.1751 36.3518 67.9462 37.1229 67.9462 38.074C67.9462 39.0251 67.1751 39.7963 66.224 39.7963H35.1128C34.1617 39.7963 33.3906 39.0252 33.3906 38.074Z" fill="white" stroke="#2E7A62"/>
</svg>
