<svg width="294" height="88" viewBox="0 0 294 88" fill="none" xmlns="http://www.w3.org/2000/svg">
<rect width="294" height="88" fill="#2E7A62"/>
<path d="M109.214 36.21C110.366 35.214 111.272 34.398 111.932 33.762C112.604 33.114 113.162 32.442 113.606 31.746C114.05 31.05 114.272 30.354 114.272 29.658C114.272 28.938 114.098 28.374 113.75 27.966C113.414 27.558 112.88 27.354 112.148 27.354C111.44 27.354 110.888 27.582 110.492 28.038C110.108 28.482 109.904 29.082 109.88 29.838H107.9C107.936 28.47 108.344 27.426 109.124 26.706C109.916 25.974 110.918 25.608 112.13 25.608C113.438 25.608 114.458 25.968 115.19 26.688C115.934 27.408 116.306 28.368 116.306 29.568C116.306 30.432 116.084 31.266 115.64 32.07C115.208 32.862 114.686 33.576 114.074 34.212C113.474 34.836 112.706 35.562 111.77 36.39L110.96 37.11H116.666V38.82H107.918V37.326L109.214 36.21ZM119.657 36.264V34.716L125.705 26.04H128.189V34.482H129.863V36.264H128.189V39H126.173V36.264H119.657ZM126.263 28.128L122.015 34.482H126.263V28.128ZM139.933 22.008L135.037 42.15H133.021L137.899 22.008H139.933ZM152.005 27.462L147.001 39H144.931L149.989 27.678H143.329V25.932H152.005V27.462ZM165.709 39.126C164.869 39.126 164.113 38.982 163.441 38.694C162.769 38.394 162.241 37.974 161.857 37.434C161.473 36.894 161.281 36.264 161.281 35.544H163.477C163.525 36.084 163.735 36.528 164.107 36.876C164.491 37.224 165.025 37.398 165.709 37.398C166.417 37.398 166.969 37.23 167.365 36.894C167.761 36.546 167.959 36.102 167.959 35.562C167.959 35.142 167.833 34.8 167.581 34.536C167.341 34.272 167.035 34.068 166.663 33.924C166.303 33.78 165.799 33.624 165.151 33.456C164.335 33.24 163.669 33.024 163.153 32.808C162.649 32.58 162.217 32.232 161.857 31.764C161.497 31.296 161.317 30.672 161.317 29.892C161.317 29.172 161.497 28.542 161.857 28.002C162.217 27.462 162.721 27.048 163.369 26.76C164.017 26.472 164.767 26.328 165.619 26.328C166.831 26.328 167.821 26.634 168.589 27.246C169.369 27.846 169.801 28.674 169.885 29.73H167.617C167.581 29.274 167.365 28.884 166.969 28.56C166.573 28.236 166.051 28.074 165.403 28.074C164.815 28.074 164.335 28.224 163.963 28.524C163.591 28.824 163.405 29.256 163.405 29.82C163.405 30.204 163.519 30.522 163.747 30.774C163.987 31.014 164.287 31.206 164.647 31.35C165.007 31.494 165.499 31.65 166.123 31.818C166.951 32.046 167.623 32.274 168.139 32.502C168.667 32.73 169.111 33.084 169.471 33.564C169.843 34.032 170.029 34.662 170.029 35.454C170.029 36.09 169.855 36.69 169.507 37.254C169.171 37.818 168.673 38.274 168.013 38.622C167.365 38.958 166.597 39.126 165.709 39.126ZM175.924 26.49V34.464C175.924 35.412 176.17 36.126 176.662 36.606C177.166 37.086 177.862 37.326 178.75 37.326C179.65 37.326 180.346 37.086 180.838 36.606C181.342 36.126 181.594 35.412 181.594 34.464V26.49H183.646V34.428C183.646 35.448 183.424 36.312 182.98 37.02C182.536 37.728 181.942 38.256 181.198 38.604C180.454 38.952 179.632 39.126 178.732 39.126C177.832 39.126 177.01 38.952 176.266 38.604C175.534 38.256 174.952 37.728 174.52 37.02C174.088 36.312 173.872 35.448 173.872 34.428V26.49H175.924ZM196.506 30.216C196.506 30.852 196.356 31.452 196.056 32.016C195.756 32.58 195.276 33.042 194.616 33.402C193.956 33.75 193.11 33.924 192.078 33.924H189.81V39H187.758V26.49H192.078C193.038 26.49 193.848 26.658 194.508 26.994C195.18 27.318 195.678 27.762 196.002 28.326C196.338 28.89 196.506 29.52 196.506 30.216ZM192.078 32.25C192.858 32.25 193.44 32.076 193.824 31.728C194.208 31.368 194.4 30.864 194.4 30.216C194.4 28.848 193.626 28.164 192.078 28.164H189.81V32.25H192.078ZM208.651 30.216C208.651 30.852 208.501 31.452 208.201 32.016C207.901 32.58 207.421 33.042 206.761 33.402C206.101 33.75 205.255 33.924 204.223 33.924H201.955V39H199.903V26.49H204.223C205.183 26.49 205.993 26.658 206.653 26.994C207.325 27.318 207.823 27.762 208.147 28.326C208.483 28.89 208.651 29.52 208.651 30.216ZM204.223 32.25C205.003 32.25 205.585 32.076 205.969 31.728C206.353 31.368 206.545 30.864 206.545 30.216C206.545 28.848 205.771 28.164 204.223 28.164H201.955V32.25H204.223ZM217.754 39.126C216.59 39.126 215.516 38.856 214.532 38.316C213.56 37.764 212.786 37.002 212.21 36.03C211.646 35.046 211.364 33.942 211.364 32.718C211.364 31.494 211.646 30.396 212.21 29.424C212.786 28.452 213.56 27.696 214.532 27.156C215.516 26.604 216.59 26.328 217.754 26.328C218.93 26.328 220.004 26.604 220.976 27.156C221.96 27.696 222.734 28.452 223.298 29.424C223.862 30.396 224.144 31.494 224.144 32.718C224.144 33.942 223.862 35.046 223.298 36.03C222.734 37.002 221.96 37.764 220.976 38.316C220.004 38.856 218.93 39.126 217.754 39.126ZM217.754 37.344C218.582 37.344 219.32 37.158 219.968 36.786C220.616 36.402 221.12 35.862 221.48 35.166C221.852 34.458 222.038 33.642 222.038 32.718C222.038 31.794 221.852 30.984 221.48 30.288C221.12 29.592 220.616 29.058 219.968 28.686C219.32 28.314 218.582 28.128 217.754 28.128C216.926 28.128 216.188 28.314 215.54 28.686C214.892 29.058 214.382 29.592 214.01 30.288C213.65 30.984 213.47 31.794 213.47 32.718C213.47 33.642 213.65 34.458 214.01 35.166C214.382 35.862 214.892 36.402 215.54 36.786C216.188 37.158 216.926 37.344 217.754 37.344ZM234.102 39L231.222 33.996H229.656V39H227.604V26.49H231.924C232.884 26.49 233.694 26.658 234.354 26.994C235.026 27.33 235.524 27.78 235.848 28.344C236.184 28.908 236.352 29.538 236.352 30.234C236.352 31.05 236.112 31.794 235.632 32.466C235.164 33.126 234.438 33.576 233.454 33.816L236.55 39H234.102ZM229.656 32.358H231.924C232.692 32.358 233.268 32.166 233.652 31.782C234.048 31.398 234.246 30.882 234.246 30.234C234.246 29.586 234.054 29.082 233.67 28.722C233.286 28.35 232.704 28.164 231.924 28.164H229.656V32.358ZM248.499 26.49V28.164H245.169V39H243.117V28.164H239.769V26.49H248.499Z" fill="white"/>
<path d="M111.832 61C111.683 61 111.56 60.952 111.464 60.856C111.379 60.76 111.336 60.648 111.336 60.52V50.328H112.328V60.52C112.328 60.648 112.28 60.76 112.184 60.856C112.088 60.952 111.971 61 111.832 61ZM108.024 50.712C107.896 50.712 107.784 50.6693 107.688 50.584C107.592 50.4987 107.544 50.3867 107.544 50.248C107.544 50.12 107.592 50.0133 107.688 49.928C107.784 49.8427 107.896 49.8 108.024 49.8H115.64C115.768 49.8 115.88 49.8427 115.976 49.928C116.072 50.0133 116.12 50.1253 116.12 50.264C116.12 50.4027 116.072 50.5147 115.976 50.6C115.88 50.6747 115.768 50.712 115.64 50.712H108.024ZM123.614 56.904C123.614 57.7147 123.438 58.4453 123.086 59.096C122.734 59.736 122.254 60.2427 121.646 60.616C121.038 60.9787 120.345 61.16 119.566 61.16C118.809 61.16 118.121 60.9787 117.502 60.616C116.894 60.2427 116.409 59.736 116.046 59.096C115.694 58.4453 115.518 57.7147 115.518 56.904C115.518 56.0827 115.694 55.352 116.046 54.712C116.409 54.072 116.894 53.5653 117.502 53.192C118.121 52.8187 118.809 52.632 119.566 52.632C120.345 52.632 121.038 52.8187 121.646 53.192C122.254 53.5653 122.734 54.072 123.086 54.712C123.438 55.352 123.614 56.0827 123.614 56.904ZM122.654 56.904C122.654 56.2533 122.521 55.6773 122.254 55.176C121.988 54.664 121.62 54.264 121.15 53.976C120.692 53.6773 120.164 53.528 119.566 53.528C118.99 53.528 118.468 53.6773 117.998 53.976C117.529 54.264 117.156 54.664 116.878 55.176C116.612 55.6773 116.478 56.2533 116.478 56.904C116.478 57.5547 116.612 58.1307 116.878 58.632C117.156 59.1333 117.529 59.5333 117.998 59.832C118.468 60.12 118.99 60.264 119.566 60.264C120.164 60.264 120.692 60.12 121.15 59.832C121.62 59.5333 121.988 59.1333 122.254 58.632C122.521 58.1307 122.654 57.5547 122.654 56.904ZM130.51 61C130.36 61 130.243 60.952 130.158 60.856C130.072 60.76 130.03 60.648 130.03 60.52V53.352C130.03 53.224 130.072 53.112 130.158 53.016C130.254 52.92 130.371 52.872 130.51 52.872C130.648 52.872 130.76 52.92 130.846 53.016C130.942 53.112 130.99 53.224 130.99 53.352V55.752L130.75 55.8C130.782 55.4267 130.872 55.0587 131.022 54.696C131.182 54.3227 131.395 53.9813 131.662 53.672C131.928 53.3627 132.243 53.112 132.606 52.92C132.979 52.728 133.395 52.632 133.854 52.632C134.046 52.632 134.232 52.6747 134.414 52.76C134.595 52.8347 134.686 52.9627 134.686 53.144C134.686 53.304 134.643 53.4267 134.558 53.512C134.472 53.5973 134.371 53.64 134.254 53.64C134.158 53.64 134.051 53.6133 133.934 53.56C133.827 53.5067 133.683 53.48 133.502 53.48C133.203 53.48 132.904 53.5707 132.606 53.752C132.307 53.9227 132.035 54.1573 131.79 54.456C131.544 54.7547 131.347 55.0907 131.198 55.464C131.059 55.8267 130.99 56.1947 130.99 56.568V60.52C130.99 60.648 130.942 60.76 130.846 60.856C130.75 60.952 130.638 61 130.51 61ZM139.523 61.16C138.701 61.16 137.976 60.984 137.347 60.632C136.717 60.28 136.227 59.7893 135.875 59.16C135.523 58.5307 135.347 57.7947 135.347 56.952C135.347 56.0453 135.523 55.272 135.875 54.632C136.237 53.992 136.701 53.5013 137.267 53.16C137.843 52.808 138.451 52.632 139.091 52.632C139.56 52.632 140.013 52.7173 140.451 52.888C140.899 53.048 141.293 53.2933 141.635 53.624C141.987 53.944 142.264 54.3387 142.467 54.808C142.68 55.2773 142.797 55.8213 142.819 56.44C142.808 56.568 142.755 56.68 142.659 56.776C142.563 56.8613 142.451 56.904 142.323 56.904H135.907L135.715 56.04H142.019L141.811 56.232V55.912C141.768 55.4107 141.608 54.984 141.331 54.632C141.053 54.28 140.717 54.0133 140.323 53.832C139.928 53.6507 139.517 53.56 139.091 53.56C138.771 53.56 138.44 53.624 138.099 53.752C137.768 53.88 137.464 54.0827 137.187 54.36C136.92 54.6267 136.701 54.9733 136.531 55.4C136.36 55.816 136.275 56.312 136.275 56.888C136.275 57.5173 136.403 58.088 136.659 58.6C136.915 59.112 137.283 59.5173 137.763 59.816C138.253 60.1147 138.835 60.264 139.507 60.264C139.88 60.264 140.216 60.2107 140.515 60.104C140.813 59.9973 141.075 59.8587 141.299 59.688C141.523 59.5067 141.709 59.32 141.859 59.128C141.976 59.032 142.093 58.984 142.211 58.984C142.317 58.984 142.408 59.0267 142.483 59.112C142.568 59.1973 142.611 59.2933 142.611 59.4C142.611 59.528 142.557 59.64 142.451 59.736C142.131 60.12 141.715 60.456 141.203 60.744C140.691 61.0213 140.131 61.16 139.523 61.16ZM144.409 59.704C144.324 59.576 144.281 59.4533 144.281 59.336C144.292 59.208 144.361 59.1067 144.489 59.032C144.575 58.9573 144.671 58.9253 144.777 58.936C144.895 58.9467 145.001 59 145.097 59.096C145.385 59.4693 145.732 59.7733 146.137 60.008C146.553 60.232 147.044 60.344 147.609 60.344C147.908 60.344 148.201 60.296 148.489 60.2C148.788 60.0933 149.033 59.9387 149.225 59.736C149.417 59.5227 149.513 59.256 149.513 58.936C149.513 58.6053 149.417 58.3387 149.225 58.136C149.033 57.9333 148.783 57.7733 148.473 57.656C148.175 57.5387 147.855 57.4373 147.513 57.352C147.151 57.256 146.799 57.1493 146.457 57.032C146.116 56.904 145.812 56.7493 145.545 56.568C145.289 56.376 145.081 56.1467 144.921 55.88C144.761 55.6133 144.681 55.288 144.681 54.904C144.681 54.456 144.804 54.0613 145.049 53.72C145.295 53.3787 145.625 53.112 146.041 52.92C146.468 52.728 146.948 52.632 147.481 52.632C147.748 52.632 148.036 52.6693 148.345 52.744C148.655 52.808 148.959 52.92 149.257 53.08C149.556 53.24 149.823 53.4587 150.057 53.736C150.153 53.832 150.201 53.944 150.201 54.072C150.201 54.1893 150.148 54.296 150.041 54.392C149.956 54.456 149.855 54.488 149.737 54.488C149.631 54.488 149.54 54.4453 149.465 54.36C149.209 54.072 148.905 53.8533 148.553 53.704C148.201 53.5547 147.823 53.48 147.417 53.48C147.108 53.48 146.815 53.5333 146.537 53.64C146.271 53.736 146.047 53.8853 145.865 54.088C145.684 54.2907 145.593 54.5573 145.593 54.888C145.615 55.1973 145.721 55.448 145.913 55.64C146.116 55.832 146.377 55.992 146.697 56.12C147.028 56.248 147.396 56.3653 147.801 56.472C148.143 56.5573 148.468 56.6587 148.777 56.776C149.097 56.8933 149.375 57.0427 149.609 57.224C149.855 57.3947 150.047 57.6133 150.185 57.88C150.335 58.1467 150.409 58.4827 150.409 58.888C150.409 59.3573 150.276 59.7627 150.009 60.104C149.753 60.4453 149.407 60.7067 148.969 60.888C148.532 61.0693 148.047 61.16 147.513 61.16C146.937 61.16 146.377 61.048 145.833 60.824C145.3 60.6 144.825 60.2267 144.409 59.704ZM159.989 56.904C159.989 57.7147 159.813 58.4453 159.461 59.096C159.109 59.736 158.629 60.2427 158.021 60.616C157.413 60.9787 156.72 61.16 155.941 61.16C155.184 61.16 154.496 60.9787 153.877 60.616C153.269 60.2427 152.784 59.736 152.421 59.096C152.069 58.4453 151.893 57.7147 151.893 56.904C151.893 56.0827 152.069 55.352 152.421 54.712C152.784 54.072 153.269 53.5653 153.877 53.192C154.496 52.8187 155.184 52.632 155.941 52.632C156.72 52.632 157.413 52.8187 158.021 53.192C158.629 53.5653 159.109 54.072 159.461 54.712C159.813 55.352 159.989 56.0827 159.989 56.904ZM159.029 56.904C159.029 56.2533 158.896 55.6773 158.629 55.176C158.363 54.664 157.995 54.264 157.525 53.976C157.067 53.6773 156.539 53.528 155.941 53.528C155.365 53.528 154.843 53.6773 154.373 53.976C153.904 54.264 153.531 54.664 153.253 55.176C152.987 55.6773 152.853 56.2533 152.853 56.904C152.853 57.5547 152.987 58.1307 153.253 58.632C153.531 59.1333 153.904 59.5333 154.373 59.832C154.843 60.12 155.365 60.264 155.941 60.264C156.539 60.264 157.067 60.12 157.525 59.832C157.995 59.5333 158.363 59.1333 158.629 58.632C158.896 58.1307 159.029 57.5547 159.029 56.904ZM163.086 60.52C163.086 60.648 163.038 60.76 162.942 60.856C162.846 60.952 162.734 61 162.606 61C162.467 61 162.35 60.952 162.254 60.856C162.168 60.76 162.126 60.648 162.126 60.52V49.64C162.126 49.512 162.174 49.4 162.27 49.304C162.366 49.208 162.478 49.16 162.606 49.16C162.744 49.16 162.856 49.208 162.942 49.304C163.038 49.4 163.086 49.512 163.086 49.64V60.52ZM165.119 52.648C165.204 52.648 165.29 52.6747 165.375 52.728C165.46 52.7813 165.524 52.8613 165.567 52.968L168.367 59.624L168.159 59.752L171.023 52.968C171.108 52.7547 171.263 52.6533 171.487 52.664C171.594 52.664 171.695 52.7013 171.791 52.776C171.887 52.84 171.935 52.936 171.935 53.064C171.935 53.128 171.924 53.1813 171.903 53.224C171.892 53.256 171.882 53.2933 171.871 53.336L168.735 60.696C168.65 60.888 168.506 60.9893 168.303 61C168.207 61.0107 168.111 60.9893 168.015 60.936C167.93 60.872 167.866 60.792 167.823 60.696L164.671 53.336C164.66 53.3147 164.65 53.2827 164.639 53.24C164.628 53.1973 164.623 53.1547 164.623 53.112C164.623 52.9947 164.666 52.888 164.751 52.792C164.836 52.696 164.959 52.648 165.119 52.648ZM177.398 61.16C176.576 61.16 175.851 60.984 175.222 60.632C174.592 60.28 174.102 59.7893 173.75 59.16C173.398 58.5307 173.222 57.7947 173.222 56.952C173.222 56.0453 173.398 55.272 173.75 54.632C174.112 53.992 174.576 53.5013 175.142 53.16C175.718 52.808 176.326 52.632 176.966 52.632C177.435 52.632 177.888 52.7173 178.326 52.888C178.774 53.048 179.168 53.2933 179.51 53.624C179.862 53.944 180.139 54.3387 180.342 54.808C180.555 55.2773 180.672 55.8213 180.694 56.44C180.683 56.568 180.63 56.68 180.534 56.776C180.438 56.8613 180.326 56.904 180.198 56.904H173.782L173.59 56.04H179.894L179.686 56.232V55.912C179.643 55.4107 179.483 54.984 179.206 54.632C178.928 54.28 178.592 54.0133 178.198 53.832C177.803 53.6507 177.392 53.56 176.966 53.56C176.646 53.56 176.315 53.624 175.974 53.752C175.643 53.88 175.339 54.0827 175.062 54.36C174.795 54.6267 174.576 54.9733 174.406 55.4C174.235 55.816 174.15 56.312 174.15 56.888C174.15 57.5173 174.278 58.088 174.534 58.6C174.79 59.112 175.158 59.5173 175.638 59.816C176.128 60.1147 176.71 60.264 177.382 60.264C177.755 60.264 178.091 60.2107 178.39 60.104C178.688 59.9973 178.95 59.8587 179.174 59.688C179.398 59.5067 179.584 59.32 179.734 59.128C179.851 59.032 179.968 58.984 180.086 58.984C180.192 58.984 180.283 59.0267 180.358 59.112C180.443 59.1973 180.486 59.2933 180.486 59.4C180.486 59.528 180.432 59.64 180.326 59.736C180.006 60.12 179.59 60.456 179.078 60.744C178.566 61.0213 178.006 61.16 177.398 61.16ZM193.827 52.824C193.966 52.824 194.078 52.872 194.163 52.968C194.259 53.064 194.307 53.1813 194.307 53.32V60.52C194.307 60.648 194.259 60.76 194.163 60.856C194.067 60.952 193.955 61 193.827 61C193.689 61 193.571 60.952 193.475 60.856C193.39 60.76 193.347 60.648 193.347 60.52V58.616L193.619 58.488C193.619 58.7867 193.534 59.0907 193.363 59.4C193.203 59.7093 192.979 59.9973 192.691 60.264C192.403 60.5307 192.062 60.7493 191.667 60.92C191.283 61.08 190.867 61.16 190.419 61.16C189.694 61.16 189.043 60.9733 188.467 60.6C187.902 60.2267 187.454 59.7147 187.123 59.064C186.803 58.4133 186.643 57.6827 186.643 56.872C186.643 56.04 186.809 55.3093 187.139 54.68C187.47 54.04 187.918 53.5387 188.483 53.176C189.049 52.8133 189.689 52.632 190.403 52.632C190.862 52.632 191.289 52.712 191.683 52.872C192.089 53.032 192.441 53.2507 192.739 53.528C193.038 53.8053 193.267 54.1253 193.427 54.488C193.598 54.84 193.683 55.208 193.683 55.592L193.347 55.352V53.32C193.347 53.1813 193.39 53.064 193.475 52.968C193.571 52.872 193.689 52.824 193.827 52.824ZM190.499 60.264C191.065 60.264 191.566 60.12 192.003 59.832C192.441 59.5333 192.782 59.128 193.027 58.616C193.283 58.0933 193.411 57.512 193.411 56.872C193.411 56.2427 193.283 55.6773 193.027 55.176C192.782 54.6747 192.441 54.2747 192.003 53.976C191.566 53.6773 191.065 53.528 190.499 53.528C189.945 53.528 189.443 53.672 188.995 53.96C188.558 54.248 188.211 54.6427 187.955 55.144C187.71 55.6453 187.587 56.2213 187.587 56.872C187.587 57.512 187.71 58.0933 187.955 58.616C188.211 59.128 188.558 59.5333 188.995 59.832C189.433 60.12 189.934 60.264 190.499 60.264ZM197.883 60.52C197.883 60.648 197.835 60.76 197.739 60.856C197.643 60.952 197.531 61 197.403 61C197.264 61 197.147 60.952 197.051 60.856C196.965 60.76 196.923 60.648 196.923 60.52V49.64C196.923 49.512 196.971 49.4 197.067 49.304C197.163 49.208 197.275 49.16 197.403 49.16C197.541 49.16 197.653 49.208 197.739 49.304C197.835 49.4 197.883 49.512 197.883 49.64V60.52ZM201.57 60.52C201.57 60.648 201.522 60.76 201.426 60.856C201.33 60.952 201.218 61 201.09 61C200.951 61 200.834 60.952 200.738 60.856C200.653 60.76 200.61 60.648 200.61 60.52V49.64C200.61 49.512 200.658 49.4 200.754 49.304C200.85 49.208 200.962 49.16 201.09 49.16C201.229 49.16 201.341 49.208 201.426 49.304C201.522 49.4 201.57 49.512 201.57 49.64V60.52ZM214.689 52.872C214.827 52.872 214.939 52.92 215.025 53.016C215.121 53.112 215.169 53.224 215.169 53.352V57.864C215.169 58.92 214.87 59.7253 214.273 60.28C213.675 60.8347 212.87 61.112 211.857 61.112C210.854 61.112 210.054 60.8347 209.457 60.28C208.87 59.7253 208.577 58.92 208.577 57.864V53.352C208.577 53.224 208.619 53.112 208.705 53.016C208.801 52.92 208.918 52.872 209.057 52.872C209.195 52.872 209.307 52.92 209.393 53.016C209.489 53.112 209.537 53.224 209.537 53.352V57.864C209.537 58.632 209.739 59.2187 210.145 59.624C210.561 60.0187 211.131 60.216 211.857 60.216C212.593 60.216 213.169 60.0187 213.585 59.624C214.001 59.2187 214.209 58.632 214.209 57.864V53.352C214.209 53.224 214.251 53.112 214.337 53.016C214.422 52.92 214.539 52.872 214.689 52.872ZM217.222 59.704C217.137 59.576 217.094 59.4533 217.094 59.336C217.105 59.208 217.174 59.1067 217.302 59.032C217.387 58.9573 217.483 58.9253 217.59 58.936C217.707 58.9467 217.814 59 217.91 59.096C218.198 59.4693 218.545 59.7733 218.95 60.008C219.366 60.232 219.857 60.344 220.422 60.344C220.721 60.344 221.014 60.296 221.302 60.2C221.601 60.0933 221.846 59.9387 222.038 59.736C222.23 59.5227 222.326 59.256 222.326 58.936C222.326 58.6053 222.23 58.3387 222.038 58.136C221.846 57.9333 221.595 57.7733 221.286 57.656C220.987 57.5387 220.667 57.4373 220.326 57.352C219.963 57.256 219.611 57.1493 219.27 57.032C218.929 56.904 218.625 56.7493 218.358 56.568C218.102 56.376 217.894 56.1467 217.734 55.88C217.574 55.6133 217.494 55.288 217.494 54.904C217.494 54.456 217.617 54.0613 217.862 53.72C218.107 53.3787 218.438 53.112 218.854 52.92C219.281 52.728 219.761 52.632 220.294 52.632C220.561 52.632 220.849 52.6693 221.158 52.744C221.467 52.808 221.771 52.92 222.07 53.08C222.369 53.24 222.635 53.4587 222.87 53.736C222.966 53.832 223.014 53.944 223.014 54.072C223.014 54.1893 222.961 54.296 222.854 54.392C222.769 54.456 222.667 54.488 222.55 54.488C222.443 54.488 222.353 54.4453 222.278 54.36C222.022 54.072 221.718 53.8533 221.366 53.704C221.014 53.5547 220.635 53.48 220.23 53.48C219.921 53.48 219.627 53.5333 219.35 53.64C219.083 53.736 218.859 53.8853 218.678 54.088C218.497 54.2907 218.406 54.5573 218.406 54.888C218.427 55.1973 218.534 55.448 218.726 55.64C218.929 55.832 219.19 55.992 219.51 56.12C219.841 56.248 220.209 56.3653 220.614 56.472C220.955 56.5573 221.281 56.6587 221.59 56.776C221.91 56.8933 222.187 57.0427 222.422 57.224C222.667 57.3947 222.859 57.6133 222.998 57.88C223.147 58.1467 223.222 58.4827 223.222 58.888C223.222 59.3573 223.089 59.7627 222.822 60.104C222.566 60.4453 222.219 60.7067 221.782 60.888C221.345 61.0693 220.859 61.16 220.326 61.16C219.75 61.16 219.19 61.048 218.646 60.824C218.113 60.6 217.638 60.2267 217.222 59.704ZM228.882 61.16C228.061 61.16 227.335 60.984 226.706 60.632C226.077 60.28 225.586 59.7893 225.234 59.16C224.882 58.5307 224.706 57.7947 224.706 56.952C224.706 56.0453 224.882 55.272 225.234 54.632C225.597 53.992 226.061 53.5013 226.626 53.16C227.202 52.808 227.81 52.632 228.45 52.632C228.919 52.632 229.373 52.7173 229.81 52.888C230.258 53.048 230.653 53.2933 230.994 53.624C231.346 53.944 231.623 54.3387 231.826 54.808C232.039 55.2773 232.157 55.8213 232.178 56.44C232.167 56.568 232.114 56.68 232.018 56.776C231.922 56.8613 231.81 56.904 231.682 56.904H225.266L225.074 56.04H231.378L231.17 56.232V55.912C231.127 55.4107 230.967 54.984 230.69 54.632C230.413 54.28 230.077 54.0133 229.682 53.832C229.287 53.6507 228.877 53.56 228.45 53.56C228.13 53.56 227.799 53.624 227.458 53.752C227.127 53.88 226.823 54.0827 226.546 54.36C226.279 54.6267 226.061 54.9733 225.89 55.4C225.719 55.816 225.634 56.312 225.634 56.888C225.634 57.5173 225.762 58.088 226.018 58.6C226.274 59.112 226.642 59.5173 227.122 59.816C227.613 60.1147 228.194 60.264 228.866 60.264C229.239 60.264 229.575 60.2107 229.874 60.104C230.173 59.9973 230.434 59.8587 230.658 59.688C230.882 59.5067 231.069 59.32 231.218 59.128C231.335 59.032 231.453 58.984 231.57 58.984C231.677 58.984 231.767 59.0267 231.842 59.112C231.927 59.1973 231.97 59.2933 231.97 59.4C231.97 59.528 231.917 59.64 231.81 59.736C231.49 60.12 231.074 60.456 230.562 60.744C230.05 61.0213 229.49 61.16 228.882 61.16ZM233.769 59.704C233.683 59.576 233.641 59.4533 233.641 59.336C233.651 59.208 233.721 59.1067 233.849 59.032C233.934 58.9573 234.03 58.9253 234.137 58.936C234.254 58.9467 234.361 59 234.457 59.096C234.745 59.4693 235.091 59.7733 235.497 60.008C235.913 60.232 236.403 60.344 236.969 60.344C237.267 60.344 237.561 60.296 237.849 60.2C238.147 60.0933 238.393 59.9387 238.585 59.736C238.777 59.5227 238.873 59.256 238.873 58.936C238.873 58.6053 238.777 58.3387 238.585 58.136C238.393 57.9333 238.142 57.7733 237.833 57.656C237.534 57.5387 237.214 57.4373 236.873 57.352C236.51 57.256 236.158 57.1493 235.817 57.032C235.475 56.904 235.171 56.7493 234.905 56.568C234.649 56.376 234.441 56.1467 234.281 55.88C234.121 55.6133 234.041 55.288 234.041 54.904C234.041 54.456 234.163 54.0613 234.409 53.72C234.654 53.3787 234.985 53.112 235.401 52.92C235.827 52.728 236.307 52.632 236.841 52.632C237.107 52.632 237.395 52.6693 237.705 52.744C238.014 52.808 238.318 52.92 238.617 53.08C238.915 53.24 239.182 53.4587 239.417 53.736C239.513 53.832 239.561 53.944 239.561 54.072C239.561 54.1893 239.507 54.296 239.401 54.392C239.315 54.456 239.214 54.488 239.097 54.488C238.99 54.488 238.899 54.4453 238.825 54.36C238.569 54.072 238.265 53.8533 237.913 53.704C237.561 53.5547 237.182 53.48 236.777 53.48C236.467 53.48 236.174 53.5333 235.897 53.64C235.63 53.736 235.406 53.8853 235.225 54.088C235.043 54.2907 234.953 54.5573 234.953 54.888C234.974 55.1973 235.081 55.448 235.273 55.64C235.475 55.832 235.737 55.992 236.057 56.12C236.387 56.248 236.755 56.3653 237.161 56.472C237.502 56.5573 237.827 56.6587 238.137 56.776C238.457 56.8933 238.734 57.0427 238.969 57.224C239.214 57.3947 239.406 57.6133 239.545 57.88C239.694 58.1467 239.769 58.4827 239.769 58.888C239.769 59.3573 239.635 59.7627 239.369 60.104C239.113 60.4453 238.766 60.7067 238.329 60.888C237.891 61.0693 237.406 61.16 236.873 61.16C236.297 61.16 235.737 61.048 235.193 60.824C234.659 60.6 234.185 60.2267 233.769 59.704Z" fill="white"/>
<path d="M78.2 39.9999C78.2 39.1167 77.4832 38.3999 76.6 38.3999C75.7168 38.3999 75 39.1167 75 39.9999C75 40.3807 75 51.6191 75 51.9999C75 52.8831 75.7168 53.5999 76.6 53.5999C77.4832 53.5999 78.2 52.8831 78.2 51.9999C78.2 51.6191 78.2 40.3807 78.2 39.9999Z" stroke="white" stroke-width="2.5" stroke-miterlimit="10"/>
<path d="M65.3969 61.5999C66.2801 61.5999 66.9969 60.8831 66.9969 59.9999C66.9969 59.1167 66.2801 58.3999 65.3969 58.3999C65.0161 58.3999 61.7777 58.3999 61.3969 58.3999C60.5137 58.3999 59.7969 59.1167 59.7969 59.9999C59.7969 60.8831 60.5137 61.5999 61.3969 61.5999C61.7777 61.5999 65.0161 61.5999 65.3969 61.5999Z" stroke="white" stroke-width="2.5" stroke-miterlimit="10"/>
<path d="M49.3984 39.2001C49.3984 31.6889 55.4872 25.6001 62.9984 25.6001C70.5096 25.6001 76.5984 31.6889 76.5984 39.2001" stroke="white" stroke-width="2.5" stroke-miterlimit="10"/>
<path d="M78.2031 40C80.4127 40 82.2031 42.6856 82.2031 46C82.2031 49.3128 80.4127 52 78.2031 52" stroke="white" stroke-width="2.5" stroke-miterlimit="10"/>
<path d="M47.7969 39.9999C47.7969 39.1167 48.5137 38.3999 49.3969 38.3999C50.2801 38.3999 50.9969 39.1167 50.9969 39.9999C50.9969 40.3807 50.9969 51.6191 50.9969 51.9999C50.9969 52.8831 50.2801 53.5999 49.3969 53.5999C48.5137 53.5999 47.7969 52.8831 47.7969 51.9999C47.7969 51.6191 47.7969 40.3807 47.7969 39.9999Z" stroke="white" stroke-width="2.5" stroke-miterlimit="10"/>
<path d="M47.7969 40C45.5881 40 43.7969 42.6856 43.7969 46C43.7969 49.3128 45.5881 52 47.7969 52" stroke="white" stroke-width="2.5" stroke-miterlimit="10"/>
<path d="M76.6 53.6001C76.6 57.6001 74.2 60.0001 70.2 60.0001H67" stroke="white" stroke-width="2.5" stroke-miterlimit="10"/>
</svg>
