<svg width="294" height="88" viewBox="0 0 294 88" fill="none" xmlns="http://www.w3.org/2000/svg">
<rect width="294" height="88" fill="#3C514D"/>
<path d="M108.526 26.49V39H106.474V30.432L102.658 39H101.236L97.402 30.432V39H95.35V26.49H97.564L101.956 36.3L106.33 26.49H108.526ZM118.369 39.126C117.205 39.126 116.131 38.856 115.147 38.316C114.175 37.764 113.401 37.002 112.825 36.03C112.261 35.046 111.979 33.942 111.979 32.718C111.979 31.494 112.261 30.396 112.825 29.424C113.401 28.452 114.175 27.696 115.147 27.156C116.131 26.604 117.205 26.328 118.369 26.328C119.545 26.328 120.619 26.604 121.591 27.156C122.575 27.696 123.349 28.452 123.913 29.424C124.477 30.396 124.759 31.494 124.759 32.718C124.759 33.942 124.477 35.046 123.913 36.03C123.349 37.002 122.575 37.764 121.591 38.316C120.619 38.856 119.545 39.126 118.369 39.126ZM118.369 37.344C119.197 37.344 119.935 37.158 120.583 36.786C121.231 36.402 121.735 35.862 122.095 35.166C122.467 34.458 122.653 33.642 122.653 32.718C122.653 31.794 122.467 30.984 122.095 30.288C121.735 29.592 121.231 29.058 120.583 28.686C119.935 28.314 119.197 28.128 118.369 28.128C117.541 28.128 116.803 28.314 116.155 28.686C115.507 29.058 114.997 29.592 114.625 30.288C114.265 30.984 114.085 31.794 114.085 32.718C114.085 33.642 114.265 34.458 114.625 35.166C114.997 35.862 115.507 36.402 116.155 36.786C116.803 37.158 117.541 37.344 118.369 37.344ZM134.914 32.574C135.586 32.694 136.156 33.048 136.624 33.636C137.092 34.224 137.326 34.89 137.326 35.634C137.326 36.27 137.158 36.846 136.822 37.362C136.498 37.866 136.024 38.268 135.4 38.568C134.776 38.856 134.05 39 133.222 39H128.218V26.49H132.988C133.84 26.49 134.572 26.634 135.184 26.922C135.796 27.21 136.258 27.6 136.57 28.092C136.882 28.572 137.038 29.112 137.038 29.712C137.038 30.432 136.846 31.032 136.462 31.512C136.078 31.992 135.562 32.346 134.914 32.574ZM130.27 31.746H132.808C133.48 31.746 134.002 31.596 134.374 31.296C134.758 30.984 134.95 30.54 134.95 29.964C134.95 29.4 134.758 28.962 134.374 28.65C134.002 28.326 133.48 28.164 132.808 28.164H130.27V31.746ZM133.042 37.326C133.738 37.326 134.284 37.158 134.68 36.822C135.076 36.486 135.274 36.018 135.274 35.418C135.274 34.806 135.064 34.32 134.644 33.96C134.224 33.6 133.666 33.42 132.97 33.42H130.27V37.326H133.042ZM143.048 26.49V39H140.996V26.49H143.048ZM149.234 37.344H153.464V39H147.182V26.49H149.234V37.344ZM158.672 28.146V31.818H162.992V33.492H158.672V37.326H163.532V39H156.62V26.472H163.532V28.146H158.672ZM180.978 26.49V28.164H175.668V31.854H179.808V33.528H175.668V39H173.616V26.49H180.978ZM190.817 39L187.937 33.996H186.371V39H184.319V26.49H188.639C189.599 26.49 190.409 26.658 191.069 26.994C191.741 27.33 192.239 27.78 192.563 28.344C192.899 28.908 193.067 29.538 193.067 30.234C193.067 31.05 192.827 31.794 192.347 32.466C191.879 33.126 191.153 33.576 190.169 33.816L193.265 39H190.817ZM186.371 32.358H188.639C189.407 32.358 189.983 32.166 190.367 31.782C190.763 31.398 190.961 30.882 190.961 30.234C190.961 29.586 190.769 29.082 190.385 28.722C190.001 28.35 189.419 28.164 188.639 28.164H186.371V32.358ZM199.184 26.49V39H197.132V26.49H199.184ZM205.37 28.146V31.818H209.69V33.492H205.37V37.326H210.23V39H203.318V26.472H210.23V28.146H205.37ZM224.476 39H222.424L216.25 29.658V39H214.198V26.472H216.25L222.424 35.796V26.472H224.476V39ZM232.696 26.49C234.028 26.49 235.192 26.748 236.188 27.264C237.196 27.768 237.97 28.5 238.51 29.46C239.062 30.408 239.338 31.518 239.338 32.79C239.338 34.062 239.062 35.166 238.51 36.102C237.97 37.038 237.196 37.758 236.188 38.262C235.192 38.754 234.028 39 232.696 39H228.61V26.49H232.696ZM232.696 37.326C234.16 37.326 235.282 36.93 236.062 36.138C236.842 35.346 237.232 34.23 237.232 32.79C237.232 31.338 236.842 30.204 236.062 29.388C235.282 28.572 234.16 28.164 232.696 28.164H230.662V37.326H232.696ZM244.864 37.344H249.094V39H242.812V26.49H244.864V37.344ZM261.52 26.49L257.38 34.464V39H255.328V34.464L251.17 26.49H253.456L256.354 32.628L259.252 26.49H261.52Z" fill="white"/>
<path d="M96 61C95.8507 61 95.728 60.952 95.632 60.856C95.5467 60.76 95.504 60.648 95.504 60.52V50.28C95.504 50.152 95.552 50.04 95.648 49.944C95.744 49.848 95.856 49.8 95.984 49.8H101.808C101.947 49.8 102.059 49.848 102.144 49.944C102.24 50.0293 102.288 50.1413 102.288 50.28C102.288 50.408 102.24 50.52 102.144 50.616C102.059 50.7013 101.947 50.744 101.808 50.744H96.416L96.48 50.648V54.904L96.4 54.76H101.088C101.227 54.76 101.339 54.808 101.424 54.904C101.52 54.9893 101.568 55.096 101.568 55.224C101.568 55.3627 101.52 55.4747 101.424 55.56C101.339 55.6453 101.227 55.688 101.088 55.688H96.368L96.48 55.56V60.52C96.48 60.648 96.432 60.76 96.336 60.856C96.2507 60.952 96.1387 61 96 61ZM111.708 56.904C111.708 57.7147 111.532 58.4453 111.18 59.096C110.828 59.736 110.348 60.2427 109.74 60.616C109.132 60.9787 108.439 61.16 107.66 61.16C106.903 61.16 106.215 60.9787 105.596 60.616C104.988 60.2427 104.503 59.736 104.14 59.096C103.788 58.4453 103.612 57.7147 103.612 56.904C103.612 56.0827 103.788 55.352 104.14 54.712C104.503 54.072 104.988 53.5653 105.596 53.192C106.215 52.8187 106.903 52.632 107.66 52.632C108.439 52.632 109.132 52.8187 109.74 53.192C110.348 53.5653 110.828 54.072 111.18 54.712C111.532 55.352 111.708 56.0827 111.708 56.904ZM110.748 56.904C110.748 56.2533 110.615 55.6773 110.348 55.176C110.081 54.664 109.713 54.264 109.244 53.976C108.785 53.6773 108.257 53.528 107.66 53.528C107.084 53.528 106.561 53.6773 106.092 53.976C105.623 54.264 105.249 54.664 104.972 55.176C104.705 55.6773 104.572 56.2533 104.572 56.904C104.572 57.5547 104.705 58.1307 104.972 58.632C105.249 59.1333 105.623 59.5333 106.092 59.832C106.561 60.12 107.084 60.264 107.66 60.264C108.257 60.264 108.785 60.12 109.244 59.832C109.713 59.5333 110.081 59.1333 110.348 58.632C110.615 58.1307 110.748 57.5547 110.748 56.904ZM114.228 61C114.079 61 113.962 60.952 113.876 60.856C113.791 60.76 113.748 60.648 113.748 60.52V53.352C113.748 53.224 113.791 53.112 113.876 53.016C113.972 52.92 114.09 52.872 114.228 52.872C114.367 52.872 114.479 52.92 114.564 53.016C114.66 53.112 114.708 53.224 114.708 53.352V55.752L114.468 55.8C114.5 55.4267 114.591 55.0587 114.74 54.696C114.9 54.3227 115.114 53.9813 115.38 53.672C115.647 53.3627 115.962 53.112 116.324 52.92C116.698 52.728 117.114 52.632 117.572 52.632C117.764 52.632 117.951 52.6747 118.132 52.76C118.314 52.8347 118.404 52.9627 118.404 53.144C118.404 53.304 118.362 53.4267 118.276 53.512C118.191 53.5973 118.09 53.64 117.972 53.64C117.876 53.64 117.77 53.6133 117.652 53.56C117.546 53.5067 117.402 53.48 117.22 53.48C116.922 53.48 116.623 53.5707 116.324 53.752C116.026 53.9227 115.754 54.1573 115.508 54.456C115.263 54.7547 115.066 55.0907 114.916 55.464C114.778 55.8267 114.708 56.1947 114.708 56.568V60.52C114.708 60.648 114.66 60.76 114.564 60.856C114.468 60.952 114.356 61 114.228 61ZM130.984 52.824C131.122 52.824 131.234 52.872 131.32 52.968C131.416 53.064 131.464 53.1813 131.464 53.32V60.52C131.464 60.648 131.416 60.76 131.32 60.856C131.224 60.952 131.112 61 130.984 61C130.845 61 130.728 60.952 130.632 60.856C130.546 60.76 130.504 60.648 130.504 60.52V58.616L130.776 58.488C130.776 58.7867 130.69 59.0907 130.52 59.4C130.36 59.7093 130.136 59.9973 129.848 60.264C129.56 60.5307 129.218 60.7493 128.824 60.92C128.44 61.08 128.024 61.16 127.576 61.16C126.85 61.16 126.2 60.9733 125.624 60.6C125.058 60.2267 124.61 59.7147 124.28 59.064C123.96 58.4133 123.8 57.6827 123.8 56.872C123.8 56.04 123.965 55.3093 124.296 54.68C124.626 54.04 125.074 53.5387 125.64 53.176C126.205 52.8133 126.845 52.632 127.56 52.632C128.018 52.632 128.445 52.712 128.84 52.872C129.245 53.032 129.597 53.2507 129.896 53.528C130.194 53.8053 130.424 54.1253 130.584 54.488C130.754 54.84 130.84 55.208 130.84 55.592L130.504 55.352V53.32C130.504 53.1813 130.546 53.064 130.632 52.968C130.728 52.872 130.845 52.824 130.984 52.824ZM127.656 60.264C128.221 60.264 128.722 60.12 129.16 59.832C129.597 59.5333 129.938 59.128 130.184 58.616C130.44 58.0933 130.568 57.512 130.568 56.872C130.568 56.2427 130.44 55.6773 130.184 55.176C129.938 54.6747 129.597 54.2747 129.16 53.976C128.722 53.6773 128.221 53.528 127.656 53.528C127.101 53.528 126.6 53.672 126.152 53.96C125.714 54.248 125.368 54.6427 125.112 55.144C124.866 55.6453 124.744 56.2213 124.744 56.872C124.744 57.512 124.866 58.0933 125.112 58.616C125.368 59.128 125.714 59.5333 126.152 59.832C126.589 60.12 127.09 60.264 127.656 60.264ZM135.039 60.52C135.039 60.648 134.991 60.76 134.895 60.856C134.799 60.952 134.687 61 134.559 61C134.42 61 134.303 60.952 134.207 60.856C134.121 60.76 134.079 60.648 134.079 60.52V49.64C134.079 49.512 134.127 49.4 134.223 49.304C134.319 49.208 134.431 49.16 134.559 49.16C134.697 49.16 134.809 49.208 134.895 49.304C134.991 49.4 135.039 49.512 135.039 49.64V60.52ZM138.726 60.52C138.726 60.648 138.678 60.76 138.582 60.856C138.486 60.952 138.374 61 138.246 61C138.108 61 137.99 60.952 137.894 60.856C137.809 60.76 137.766 60.648 137.766 60.52V49.64C137.766 49.512 137.814 49.4 137.91 49.304C138.006 49.208 138.118 49.16 138.246 49.16C138.385 49.16 138.497 49.208 138.582 49.304C138.678 49.4 138.726 49.512 138.726 49.64V60.52ZM152.437 49.16C152.575 49.16 152.687 49.208 152.773 49.304C152.869 49.3893 152.917 49.5013 152.917 49.64V60.52C152.917 60.648 152.869 60.76 152.773 60.856C152.677 60.952 152.565 61 152.437 61C152.298 61 152.181 60.952 152.085 60.856C151.999 60.76 151.957 60.648 151.957 60.52V58.616L152.229 58.392C152.229 58.6907 152.149 59.0053 151.989 59.336C151.829 59.656 151.599 59.9547 151.301 60.232C151.013 60.5093 150.671 60.7333 150.277 60.904C149.893 61.0747 149.477 61.16 149.029 61.16C148.314 61.16 147.669 60.9733 147.093 60.6C146.527 60.2267 146.079 59.72 145.749 59.08C145.418 58.44 145.253 57.7093 145.253 56.888C145.253 56.0773 145.418 55.352 145.749 54.712C146.079 54.0613 146.527 53.5547 147.093 53.192C147.658 52.8187 148.298 52.632 149.013 52.632C149.45 52.632 149.866 52.712 150.261 52.872C150.655 53.032 151.002 53.2507 151.301 53.528C151.61 53.8053 151.85 54.1253 152.021 54.488C152.202 54.84 152.293 55.208 152.293 55.592L151.957 55.352V49.64C151.957 49.512 151.999 49.4 152.085 49.304C152.181 49.208 152.298 49.16 152.437 49.16ZM149.109 60.264C149.685 60.264 150.186 60.12 150.613 59.832C151.05 59.5333 151.391 59.1333 151.637 58.632C151.893 58.12 152.021 57.5387 152.021 56.888C152.021 56.248 151.893 55.6773 151.637 55.176C151.391 54.664 151.05 54.264 150.613 53.976C150.175 53.6773 149.674 53.528 149.109 53.528C148.554 53.528 148.053 53.6773 147.605 53.976C147.167 54.264 146.821 54.664 146.565 55.176C146.319 55.6773 146.197 56.248 146.197 56.888C146.197 57.528 146.319 58.104 146.565 58.616C146.821 59.128 147.167 59.5333 147.605 59.832C148.053 60.12 148.554 60.264 149.109 60.264ZM159.132 61.16C158.311 61.16 157.585 60.984 156.956 60.632C156.327 60.28 155.836 59.7893 155.484 59.16C155.132 58.5307 154.956 57.7947 154.956 56.952C154.956 56.0453 155.132 55.272 155.484 54.632C155.847 53.992 156.311 53.5013 156.876 53.16C157.452 52.808 158.06 52.632 158.7 52.632C159.169 52.632 159.623 52.7173 160.06 52.888C160.508 53.048 160.903 53.2933 161.244 53.624C161.596 53.944 161.873 54.3387 162.076 54.808C162.289 55.2773 162.407 55.8213 162.428 56.44C162.417 56.568 162.364 56.68 162.268 56.776C162.172 56.8613 162.06 56.904 161.932 56.904H155.516L155.324 56.04H161.628L161.42 56.232V55.912C161.377 55.4107 161.217 54.984 160.94 54.632C160.663 54.28 160.327 54.0133 159.932 53.832C159.537 53.6507 159.127 53.56 158.7 53.56C158.38 53.56 158.049 53.624 157.708 53.752C157.377 53.88 157.073 54.0827 156.796 54.36C156.529 54.6267 156.311 54.9733 156.14 55.4C155.969 55.816 155.884 56.312 155.884 56.888C155.884 57.5173 156.012 58.088 156.268 58.6C156.524 59.112 156.892 59.5173 157.372 59.816C157.863 60.1147 158.444 60.264 159.116 60.264C159.489 60.264 159.825 60.2107 160.124 60.104C160.423 59.9973 160.684 59.8587 160.908 59.688C161.132 59.5067 161.319 59.32 161.468 59.128C161.585 59.032 161.703 58.984 161.82 58.984C161.927 58.984 162.017 59.0267 162.092 59.112C162.177 59.1973 162.22 59.2933 162.22 59.4C162.22 59.528 162.167 59.64 162.06 59.736C161.74 60.12 161.324 60.456 160.812 60.744C160.3 61.0213 159.74 61.16 159.132 61.16ZM164.213 52.648C164.298 52.648 164.383 52.6747 164.469 52.728C164.554 52.7813 164.618 52.8613 164.661 52.968L167.461 59.624L167.253 59.752L170.117 52.968C170.202 52.7547 170.357 52.6533 170.581 52.664C170.687 52.664 170.789 52.7013 170.885 52.776C170.981 52.84 171.029 52.936 171.029 53.064C171.029 53.128 171.018 53.1813 170.997 53.224C170.986 53.256 170.975 53.2933 170.965 53.336L167.829 60.696C167.743 60.888 167.599 60.9893 167.397 61C167.301 61.0107 167.205 60.9893 167.109 60.936C167.023 60.872 166.959 60.792 166.917 60.696L163.765 53.336C163.754 53.3147 163.743 53.2827 163.733 53.24C163.722 53.1973 163.717 53.1547 163.717 53.112C163.717 52.9947 163.759 52.888 163.845 52.792C163.93 52.696 164.053 52.648 164.213 52.648ZM173.801 60.52C173.801 60.648 173.753 60.76 173.657 60.856C173.561 60.952 173.449 61 173.321 61C173.183 61 173.065 60.952 172.969 60.856C172.884 60.76 172.841 60.648 172.841 60.52V53.16C172.841 53.032 172.884 52.92 172.969 52.824C173.065 52.728 173.183 52.68 173.321 52.68C173.46 52.68 173.572 52.728 173.657 52.824C173.753 52.92 173.801 53.032 173.801 53.16V60.52ZM173.321 51.608C173.097 51.608 172.927 51.56 172.809 51.464C172.703 51.3573 172.649 51.208 172.649 51.016V50.856C172.649 50.664 172.708 50.52 172.825 50.424C172.953 50.3173 173.124 50.264 173.337 50.264C173.54 50.264 173.695 50.3173 173.801 50.424C173.919 50.52 173.977 50.664 173.977 50.856V51.016C173.977 51.208 173.919 51.3573 173.801 51.464C173.695 51.56 173.535 51.608 173.321 51.608ZM179.895 52.632C180.407 52.632 180.877 52.6907 181.303 52.808C181.73 52.9147 182.071 53.064 182.327 53.256C182.594 53.448 182.727 53.656 182.727 53.88C182.727 53.9867 182.69 54.0933 182.615 54.2C182.541 54.296 182.439 54.344 182.311 54.344C182.183 54.344 182.077 54.312 181.991 54.248C181.917 54.184 181.837 54.1093 181.751 54.024C181.677 53.9387 181.565 53.8587 181.415 53.784C181.277 53.72 181.079 53.6613 180.823 53.608C180.567 53.5547 180.274 53.528 179.943 53.528C179.346 53.528 178.807 53.6773 178.327 53.976C177.847 54.2747 177.469 54.68 177.191 55.192C176.914 55.6933 176.775 56.2587 176.775 56.888C176.775 57.528 176.909 58.104 177.175 58.616C177.442 59.128 177.81 59.5333 178.279 59.832C178.749 60.12 179.298 60.264 179.927 60.264C180.354 60.264 180.685 60.2267 180.919 60.152C181.154 60.0773 181.357 59.992 181.527 59.896C181.73 59.7787 181.874 59.6667 181.959 59.56C182.055 59.4427 182.178 59.384 182.327 59.384C182.466 59.384 182.567 59.4267 182.631 59.512C182.706 59.5867 182.743 59.688 182.743 59.816C182.743 59.9867 182.615 60.1787 182.359 60.392C182.114 60.5947 181.773 60.776 181.335 60.936C180.898 61.0853 180.397 61.16 179.831 61.16C179.031 61.16 178.327 60.9733 177.719 60.6C177.122 60.2267 176.653 59.72 176.311 59.08C175.981 58.4293 175.815 57.6987 175.815 56.888C175.815 56.1093 175.986 55.4 176.327 54.76C176.669 54.12 177.143 53.608 177.751 53.224C178.37 52.8293 179.085 52.632 179.895 52.632ZM188.273 61.16C187.451 61.16 186.726 60.984 186.097 60.632C185.467 60.28 184.977 59.7893 184.625 59.16C184.273 58.5307 184.097 57.7947 184.097 56.952C184.097 56.0453 184.273 55.272 184.625 54.632C184.987 53.992 185.451 53.5013 186.017 53.16C186.593 52.808 187.201 52.632 187.841 52.632C188.31 52.632 188.763 52.7173 189.201 52.888C189.649 53.048 190.043 53.2933 190.385 53.624C190.737 53.944 191.014 54.3387 191.217 54.808C191.43 55.2773 191.547 55.8213 191.569 56.44C191.558 56.568 191.505 56.68 191.409 56.776C191.313 56.8613 191.201 56.904 191.073 56.904H184.657L184.465 56.04H190.769L190.561 56.232V55.912C190.518 55.4107 190.358 54.984 190.081 54.632C189.803 54.28 189.467 54.0133 189.073 53.832C188.678 53.6507 188.267 53.56 187.841 53.56C187.521 53.56 187.19 53.624 186.849 53.752C186.518 53.88 186.214 54.0827 185.937 54.36C185.67 54.6267 185.451 54.9733 185.281 55.4C185.11 55.816 185.025 56.312 185.025 56.888C185.025 57.5173 185.153 58.088 185.409 58.6C185.665 59.112 186.033 59.5173 186.513 59.816C187.003 60.1147 187.585 60.264 188.257 60.264C188.63 60.264 188.966 60.2107 189.265 60.104C189.563 59.9973 189.825 59.8587 190.049 59.688C190.273 59.5067 190.459 59.32 190.609 59.128C190.726 59.032 190.843 58.984 190.961 58.984C191.067 58.984 191.158 59.0267 191.233 59.112C191.318 59.1973 191.361 59.2933 191.361 59.4C191.361 59.528 191.307 59.64 191.201 59.736C190.881 60.12 190.465 60.456 189.953 60.744C189.441 61.0213 188.881 61.16 188.273 61.16ZM193.159 59.704C193.074 59.576 193.031 59.4533 193.031 59.336C193.042 59.208 193.111 59.1067 193.239 59.032C193.325 58.9573 193.421 58.9253 193.527 58.936C193.645 58.9467 193.751 59 193.847 59.096C194.135 59.4693 194.482 59.7733 194.887 60.008C195.303 60.232 195.794 60.344 196.359 60.344C196.658 60.344 196.951 60.296 197.239 60.2C197.538 60.0933 197.783 59.9387 197.975 59.736C198.167 59.5227 198.263 59.256 198.263 58.936C198.263 58.6053 198.167 58.3387 197.975 58.136C197.783 57.9333 197.533 57.7733 197.223 57.656C196.925 57.5387 196.605 57.4373 196.263 57.352C195.901 57.256 195.549 57.1493 195.207 57.032C194.866 56.904 194.562 56.7493 194.295 56.568C194.039 56.376 193.831 56.1467 193.671 55.88C193.511 55.6133 193.431 55.288 193.431 54.904C193.431 54.456 193.554 54.0613 193.799 53.72C194.045 53.3787 194.375 53.112 194.791 52.92C195.218 52.728 195.698 52.632 196.231 52.632C196.498 52.632 196.786 52.6693 197.095 52.744C197.405 52.808 197.709 52.92 198.007 53.08C198.306 53.24 198.573 53.4587 198.807 53.736C198.903 53.832 198.951 53.944 198.951 54.072C198.951 54.1893 198.898 54.296 198.791 54.392C198.706 54.456 198.605 54.488 198.487 54.488C198.381 54.488 198.29 54.4453 198.215 54.36C197.959 54.072 197.655 53.8533 197.303 53.704C196.951 53.5547 196.573 53.48 196.167 53.48C195.858 53.48 195.565 53.5333 195.287 53.64C195.021 53.736 194.797 53.8853 194.615 54.088C194.434 54.2907 194.343 54.5573 194.343 54.888C194.365 55.1973 194.471 55.448 194.663 55.64C194.866 55.832 195.127 55.992 195.447 56.12C195.778 56.248 196.146 56.3653 196.551 56.472C196.893 56.5573 197.218 56.6587 197.527 56.776C197.847 56.8933 198.125 57.0427 198.359 57.224C198.605 57.3947 198.797 57.6133 198.935 57.88C199.085 58.1467 199.159 58.4827 199.159 58.888C199.159 59.3573 199.026 59.7627 198.759 60.104C198.503 60.4453 198.157 60.7067 197.719 60.888C197.282 61.0693 196.797 61.16 196.263 61.16C195.687 61.16 195.127 61.048 194.583 60.824C194.05 60.6 193.575 60.2267 193.159 59.704Z" fill="white"/>
<path d="M69.5 24H34.5C33.837 24 33.2011 24.2634 32.7322 24.7322C32.2634 25.2011 32 25.837 32 26.5V53.1667C32 53.8297 32.2634 54.4656 32.7322 54.9344C33.2011 55.4033 33.837 55.6667 34.5 55.6667H45.3333V59.2333L43.4 59.875C43.2345 59.9309 43.0907 60.0374 42.989 60.1795C42.8873 60.3215 42.8329 60.492 42.8333 60.6667V62.3333H41.1667V64H55.3333V62.3333H44.5V61.2667L46.3 60.6667H55.3333V59H47V55.6667H55.3333V54H34.5C34.279 54 34.067 53.9122 33.9107 53.7559C33.7545 53.5996 33.6667 53.3877 33.6667 53.1667V48.1667H55.3333V46.5H33.6667V26.5C33.6667 26.279 33.7545 26.067 33.9107 25.9107C34.067 25.7545 34.279 25.6667 34.5 25.6667H69.5C69.721 25.6667 69.933 25.7545 70.0893 25.9107C70.2455 26.067 70.3333 26.279 70.3333 26.5V39H72V26.5C72 25.837 71.7366 25.2011 71.2678 24.7322C70.7989 24.2634 70.163 24 69.5 24Z" fill="white" stroke="white"/>
<path d="M70.3333 40.6667H58.6667C58.2246 40.6667 57.8007 40.8423 57.4882 41.1549C57.1756 41.4675 57 41.8914 57 42.3334V62.3334C57 62.7754 57.1756 63.1994 57.4882 63.5119C57.8007 63.8245 58.2246 64.0001 58.6667 64.0001H70.3333C70.7754 64.0001 71.1993 63.8245 71.5118 63.5119C71.8244 63.1994 72 62.7754 72 62.3334V42.3334C72 41.8914 71.8244 41.4675 71.5118 41.1549C71.1993 40.8423 70.7754 40.6667 70.3333 40.6667ZM70.3333 62.3334H58.6667V59.8334H70.3333V62.3334ZM70.3333 58.1667H58.6667V46.5001H70.3333V58.1667ZM70.3333 44.8334H58.6667V42.3334H70.3333V44.8334Z" fill="white" stroke="white"/>
</svg>
